<svg width="176" height="40" viewBox="0 0 176 40" fill="none" xmlns="http://www.w3.org/2000/svg">
<path d="M2.80199 23.1027C1.73492 19.107 2.76876 14.6669 5.9035 11.5322C10.5808 6.85484 18.1642 6.85484 22.8416 11.5322C27.5189 16.2095 27.5189 23.7929 22.8416 28.4702C19.7068 31.605 15.2668 32.6388 11.271 31.5717" stroke="black" stroke-width="2.5" stroke-linecap="round" stroke-linejoin="round"/>
<path d="M17.966 23.5937V16.4075M17.966 16.4075H10.7798M17.966 16.4075L5.98877 28.3844" stroke="#00A8A5" stroke-width="2.4" stroke-linecap="round" stroke-linejoin="round"/>
<mask id="path-4-outside-1_5443_1617" maskUnits="userSpaceOnUse" x="33.9043" y="5.25708" width="142" height="31" fill="black">
<rect fill="white" x="33.9043" y="5.25708" width="142" height="31"/>
<path d="M36.1151 17.4313C35.5628 17.4313 35.1151 16.9835 35.1151 16.4313V7.77809C35.1151 7.28738 35.5129 6.88958 36.0036 6.88958C36.4944 6.88958 36.8922 7.28738 36.8922 7.77809V14.585L42.4652 7.28288C42.6544 7.03502 42.9483 6.88958 43.2601 6.88958H43.4219C43.9742 6.88958 44.4219 7.3373 44.4219 7.88958V16.5503C44.4219 17.0368 44.0275 17.4313 43.5409 17.4313C43.0544 17.4313 42.66 17.0368 42.66 16.5503V9.75089L37.0869 17.0387C36.8977 17.2861 36.604 17.4313 36.2926 17.4313H36.1151Z"/>
<path d="M48.1603 17.4313C47.6863 17.4313 47.3019 17.0469 47.3019 16.5729V10.2629C47.3019 9.78884 47.6863 9.40452 48.1603 9.40452C48.6344 9.40452 49.0187 9.78884 49.0187 10.2629V12.7176H53.2505V10.2629C53.2505 9.78884 53.6348 9.40452 54.1089 9.40452C54.5829 9.40452 54.9672 9.78884 54.9672 10.2629V16.5729C54.9672 17.0469 54.5829 17.4313 54.1089 17.4313C53.6348 17.4313 53.2505 17.0469 53.2505 16.5729V14.1935H49.0187V16.5729C49.0187 17.0469 48.6344 17.4313 48.1603 17.4313Z"/>
<path d="M63.9438 16.618C63.4655 16.618 63.0779 16.2304 63.0779 15.7521V10.8954H59.8551L59.7949 12.2658C59.7748 12.7477 59.7447 13.2096 59.7045 13.6513C59.6644 14.0931 59.5991 14.4997 59.5088 14.8711C59.4184 15.2326 59.2829 15.5338 59.1021 15.7747C58.9315 16.0056 58.7006 16.1512 58.4094 16.2114L56.5129 16.5256C56.8141 16.5356 57.2548 15.855 57.4456 15.6542C57.6363 15.4434 57.7819 15.1623 57.8823 14.8109C57.9928 14.4495 58.0731 14.0378 58.1233 13.576C58.1735 13.1142 58.2136 12.6373 58.2437 12.1454L58.3122 10.3661C58.3328 9.82916 58.7741 9.40452 59.3114 9.40452H63.8097C64.362 9.40452 64.8097 9.85224 64.8097 10.4045V15.7521C64.8097 16.2304 64.422 16.618 63.9438 16.618ZM57.2122 19.2535C56.7672 19.2535 56.4065 18.8927 56.4065 18.4478V16.9404C56.4065 16.3881 56.8542 15.9404 57.4065 15.9404H64.9994C65.5517 15.9404 65.9994 16.3881 65.9994 16.9404V18.4478C65.9994 18.8927 65.6387 19.2535 65.1937 19.2535C64.7488 19.2535 64.388 18.8927 64.388 18.4478V17.4313H58.0179V18.4478C58.0179 18.8927 57.6571 19.2535 57.2122 19.2535Z"/>
<path d="M68.7735 17.4313C68.2212 17.4313 67.7735 16.9835 67.7735 16.4313V10.2629C67.7735 9.78884 68.1578 9.40452 68.6319 9.40452C69.106 9.40452 69.4903 9.78884 69.4903 10.2629V14.8862L73.7837 9.76227C73.9737 9.53551 74.2543 9.40452 74.5502 9.40452H74.6496C75.2019 9.40452 75.6496 9.85224 75.6496 10.4045V16.5729C75.6496 17.0469 75.2653 17.4313 74.7912 17.4313C74.3172 17.4313 73.9328 17.0469 73.9328 16.5729V11.9496L69.6546 17.0723C69.4646 17.2998 69.1834 17.4313 68.887 17.4313H68.7735Z"/>
<path d="M79.3034 17.4313C78.7511 17.4313 78.3034 16.9835 78.3034 16.4313V10.4045C78.3034 9.85224 78.7511 9.40452 79.3034 9.40452H82.1586C83.1124 9.40452 83.8654 9.58524 84.4176 9.94667C84.9698 10.3081 85.2458 10.8201 85.2458 11.4827C85.2458 12.1353 84.9848 12.6423 84.4627 13.0038C84.0183 13.3115 83.4573 13.4882 82.78 13.5339C82.6124 13.5452 82.503 13.3692 82.5781 13.219C82.6164 13.1424 82.6948 13.0938 82.7803 13.0954C83.674 13.1122 84.3453 13.2925 84.7941 13.6363C85.2659 13.9876 85.5019 14.5097 85.5019 15.2024C85.5019 15.9052 85.2358 16.4524 84.7037 16.8439C84.1816 17.2355 83.3835 17.4313 82.3092 17.4313H79.3034ZM79.9599 16.1361H82.1586C82.7008 16.1361 83.1074 16.0508 83.3785 15.8801C83.6596 15.7094 83.8001 15.4434 83.8001 15.082C83.8001 14.7105 83.6746 14.4344 83.4236 14.2537C83.1726 14.073 82.7761 13.9826 82.2339 13.9826H79.9599V16.1361ZM79.9599 12.7779H81.993C82.495 12.7779 82.8765 12.6875 83.1375 12.5068C83.3985 12.3261 83.5291 12.065 83.5291 11.7237C83.5291 11.3823 83.3985 11.1313 83.1375 10.9707C82.8765 10.8 82.495 10.7147 81.993 10.7147H79.9599V12.7779Z"/>
<path d="M88.6127 17.4313C88.0604 17.4313 87.6127 16.9835 87.6127 16.4313V10.2629C87.6127 9.78884 87.997 9.40452 88.4711 9.40452C88.9451 9.40452 89.3295 9.78884 89.3295 10.2629V14.8862L93.6229 9.76227C93.8129 9.53551 94.0935 9.40452 94.3893 9.40452H94.4888C95.0411 9.40452 95.4888 9.85224 95.4888 10.4045V16.5729C95.4888 17.0469 95.1045 17.4313 94.6304 17.4313C94.1563 17.4313 93.772 17.0469 93.772 16.5729V11.9496L89.4937 17.0723C89.3037 17.2998 89.0226 17.4313 88.7262 17.4313H88.6127Z"/>
<path d="M104.475 16.618C103.997 16.618 103.609 16.2304 103.609 15.7521V10.8954H100.386L100.326 12.2658C100.306 12.7477 100.276 13.2096 100.236 13.6513C100.196 14.0931 100.13 14.4997 100.04 14.8711C99.9497 15.2326 99.8142 15.5338 99.6335 15.7747C99.4628 16.0056 99.2319 16.1512 98.9407 16.2114L97.0979 16.5256C97.3991 16.5356 97.7862 15.855 97.9769 15.6542C98.1677 15.4434 98.3132 15.1623 98.4136 14.8109C98.5241 14.4495 98.6044 14.0378 98.6546 13.576C98.7048 13.1142 98.745 12.6373 98.7751 12.1454L98.8435 10.3661C98.8642 9.82916 99.3054 9.40452 99.8428 9.40452H104.341C104.893 9.40452 105.341 9.85224 105.341 10.4045V15.7521C105.341 16.2304 104.953 16.618 104.475 16.618ZM97.7435 19.2535C97.2985 19.2535 96.9378 18.8927 96.9378 18.4478V16.9404C96.9378 16.3881 97.3855 15.9404 97.9378 15.9404H105.531C106.083 15.9404 106.531 16.3881 106.531 16.9404V18.4478C106.531 18.8927 106.17 19.2535 105.725 19.2535C105.28 19.2535 104.919 18.8927 104.919 18.4478V17.4313H98.5492V18.4478C98.5492 18.8927 98.1885 19.2535 97.7435 19.2535Z"/>
<path d="M108.892 20.4432C108.501 20.4432 108.114 20.3779 107.733 20.2474C107.546 20.1885 107.374 20.1152 107.216 20.0275C106.933 19.8698 106.879 19.5055 107.036 19.2216L107.101 19.1052C107.291 18.7609 107.761 18.6955 108.124 18.8469C108.375 18.9472 108.626 18.9974 108.877 18.9974C109.218 18.9974 109.5 18.9071 109.72 18.7264C109.941 18.5557 110.147 18.2595 110.338 17.8379L110.77 16.8621C110.793 16.8099 110.821 16.7598 110.852 16.7123L110.905 16.6339C110.938 16.5833 110.967 16.5297 110.991 16.4738L113.829 9.86744C113.949 9.58657 114.226 9.40452 114.531 9.40452C115.082 9.40452 115.452 9.96981 115.232 10.4749L111.889 18.1391C111.648 18.7214 111.377 19.1832 111.076 19.5245C110.775 19.8659 110.443 20.1018 110.082 20.2323C109.72 20.3729 109.324 20.4432 108.892 20.4432ZM110.624 17.7023L107.505 10.5427C107.271 10.0055 107.665 9.40452 108.251 9.40452C108.576 9.40452 108.87 9.59798 108.998 9.89652L111.545 15.8165C111.699 16.1763 111.63 16.5934 111.367 16.8835L110.624 17.7023Z"/>
<path d="M122.52 17.4313C122.067 17.4313 121.699 17.0638 121.699 16.6105V15.9086C121.699 15.8197 121.687 15.7313 121.664 15.6455L121.644 15.5726C121.621 15.4868 121.609 15.3984 121.609 15.3095V12.5971C121.609 12.0249 121.438 11.5831 121.097 11.2719C120.755 10.9506 120.243 10.79 119.561 10.79C119.099 10.79 118.647 10.8653 118.205 11.0159C118.072 11.0583 117.945 11.1057 117.825 11.1582C117.417 11.3359 116.893 11.2375 116.681 10.8459C116.518 10.5439 116.593 10.1623 116.892 9.99274C117.197 9.81946 117.534 9.67861 117.904 9.57018C118.497 9.3995 119.114 9.31417 119.757 9.31417C120.891 9.31417 121.769 9.59026 122.392 10.1424C123.024 10.6946 123.341 11.543 123.341 12.6875V16.6105C123.341 17.0638 122.973 17.4313 122.52 17.4313ZM119.154 17.5216C118.552 17.5216 118.025 17.4212 117.573 17.2204C117.121 17.0196 116.77 16.7385 116.519 16.3771C116.278 16.0157 116.157 15.604 116.157 15.1422C116.157 14.6904 116.263 14.2888 116.474 13.9374C116.694 13.576 117.046 13.2899 117.528 13.079C118.01 12.8582 118.652 12.7477 119.455 12.7477H121.865V13.9676H119.546C118.883 13.9676 118.436 14.078 118.205 14.2989C117.974 14.5097 117.859 14.7657 117.859 15.0669C117.859 15.4283 118 15.7145 118.281 15.9253C118.572 16.1261 118.968 16.2265 119.47 16.2265C119.962 16.2265 120.399 16.1211 120.781 15.9102C121.172 15.6894 121.448 15.3681 121.609 14.9464L121.925 16.0759C121.734 16.5377 121.403 16.8941 120.931 17.1451C120.459 17.3961 119.867 17.5216 119.154 17.5216Z"/>
<path d="M125.039 17.5216C124.735 17.4647 124.526 17.1878 124.545 16.8797L124.59 16.1682C124.596 16.0616 124.692 15.983 124.798 16.0006C124.858 16.0106 124.913 16.0157 124.963 16.0157C125.285 16.0157 125.536 15.9153 125.716 15.7145C125.897 15.5036 126.028 15.2275 126.108 14.8862C126.188 14.5448 126.243 14.1633 126.274 13.7417C126.314 13.31 126.344 12.8833 126.364 12.4616L126.457 10.3602C126.481 9.8257 126.921 9.40452 127.456 9.40452H131.87C132.422 9.40452 132.87 9.85224 132.87 10.4045V16.5729C132.87 17.0469 132.485 17.4313 132.011 17.4313C131.537 17.4313 131.153 17.0469 131.153 16.5729V10.7664C131.153 10.6462 131.303 10.5913 131.38 10.6832C131.451 10.7671 131.392 10.8954 131.282 10.8954H127.868C127.77 10.8954 127.714 10.7831 127.773 10.7049C127.844 10.6118 127.992 10.6657 127.987 10.7824L127.9 12.552C127.87 13.2547 127.815 13.9123 127.734 14.5248C127.654 15.1372 127.529 15.6743 127.358 16.1361C127.187 16.5879 126.951 16.9393 126.65 17.1903C126.349 17.4413 125.967 17.5668 125.506 17.5668C125.355 17.5668 125.199 17.5517 125.039 17.5216Z"/>
<path d="M139.427 12.0701C140.451 12.0801 141.234 12.316 141.776 12.7779C142.319 13.2296 142.59 13.8722 142.59 14.7055C142.59 15.589 142.288 16.2717 141.686 16.7536C141.094 17.2254 140.255 17.4564 139.171 17.4463L136.523 17.4354C135.972 17.4331 135.527 16.9861 135.527 16.4354V10.2629C135.527 9.78884 135.911 9.40452 136.385 9.40452C136.859 9.40452 137.243 9.78884 137.243 10.2629V12.055L139.427 12.0701ZM139.021 16.1512C139.613 16.1612 140.06 16.0408 140.361 15.7898C140.672 15.5388 140.828 15.1723 140.828 14.6904C140.828 14.2085 140.677 13.8621 140.376 13.6513C140.075 13.4304 139.623 13.315 139.021 13.3049L137.243 13.2899V16.1361L139.021 16.1512Z"/>
<path d="M145.18 17.4313C144.706 17.4313 144.321 17.0469 144.321 16.5729V10.2629C144.321 9.78884 144.706 9.40452 145.18 9.40452C145.654 9.40452 146.038 9.78884 146.038 10.2629V12.7176H150.27V10.2629C150.27 9.78884 150.654 9.40452 151.128 9.40452C151.602 9.40452 151.987 9.78884 151.987 10.2629V16.5729C151.987 17.0469 151.602 17.4313 151.128 17.4313C150.654 17.4313 150.27 17.0469 150.27 16.5729V14.1935H146.038V16.5729C146.038 17.0469 145.654 17.4313 145.18 17.4313Z"/>
<path d="M163.516 17.4313C163.042 17.4313 162.657 17.0469 162.657 16.5729V10.2629C162.657 9.78884 163.042 9.40452 163.516 9.40452C163.99 9.40452 164.374 9.78884 164.374 10.2629V16.5729C164.374 17.0469 163.99 17.4313 163.516 17.4313ZM158.41 12.0701C159.435 12.0801 160.213 12.316 160.745 12.7779C161.287 13.2296 161.558 13.8722 161.558 14.7055C161.558 15.589 161.262 16.2717 160.669 16.7536C160.077 17.2254 159.239 17.4564 158.154 17.4463L155.626 17.4355C155.076 17.4332 154.631 16.9861 154.631 16.4355V10.2629C154.631 9.78884 155.015 9.40452 155.489 9.40452C155.963 9.40452 156.347 9.78884 156.347 10.2629V12.055L158.41 12.0701ZM158.004 16.1512C158.596 16.1612 159.043 16.0408 159.344 15.7898C159.655 15.5388 159.811 15.1723 159.811 14.6904C159.811 14.2085 159.66 13.8621 159.359 13.6513C159.058 13.4304 158.606 13.315 158.004 13.3049L156.347 13.2899V16.1361L158.004 16.1512Z"/>
<path d="M168.028 17.4313C167.476 17.4313 167.028 16.9835 167.028 16.4313V10.2629C167.028 9.78884 167.412 9.40452 167.887 9.40452C168.361 9.40452 168.745 9.78884 168.745 10.2629V14.8862L173.038 9.76227C173.228 9.53551 173.509 9.40452 173.805 9.40452H173.904C174.457 9.40452 174.904 9.85224 174.904 10.4045V16.5729C174.904 17.0469 174.52 17.4313 174.046 17.4313C173.572 17.4313 173.188 17.0469 173.188 16.5729V11.9496L168.909 17.0723C168.719 17.2998 168.438 17.4313 168.142 17.4313H168.028ZM170.853 8.42565C170.08 8.42565 169.478 8.24494 169.046 7.88351C168.747 7.62035 168.552 7.27153 168.46 6.83705C168.393 6.52283 168.661 6.25708 168.983 6.25708C169.295 6.25708 169.531 6.51681 169.656 6.80263C169.712 6.93212 169.79 7.04644 169.889 7.14559C170.12 7.35643 170.437 7.46184 170.838 7.46184C171.24 7.46184 171.556 7.35643 171.787 7.14559C171.886 7.05129 171.964 6.94327 172.022 6.82152C172.162 6.52906 172.407 6.25708 172.731 6.25708C173.065 6.25708 173.344 6.53375 173.271 6.85937C173.174 7.28349 172.976 7.62487 172.675 7.88351C172.244 8.24494 171.636 8.42565 170.853 8.42565Z"/>
<path d="M35.7627 33.0785C35.2886 33.0785 34.9043 32.6942 34.9043 32.2201V26.0518C34.9043 25.4995 35.352 25.0518 35.9043 25.0518H41.4943C42.0466 25.0518 42.4943 25.4995 42.4943 26.0518V32.2201C42.4943 32.6942 42.11 33.0785 41.6359 33.0785C41.1618 33.0785 40.7775 32.6942 40.7775 32.2201V26.4258C40.7775 26.3207 40.9056 26.2691 40.9785 26.3448C41.05 26.419 40.9974 26.5427 40.8944 26.5427H36.502C36.3959 26.5427 36.3428 26.4144 36.4178 26.3394C36.4928 26.2643 36.6211 26.3175 36.6211 26.4236V32.2201C36.6211 32.6942 36.2368 33.0785 35.7627 33.0785Z"/>
<path d="M44.4172 33.1689C44.1138 33.112 43.9044 32.835 43.9237 32.527L43.9681 31.8154C43.9748 31.7089 44.071 31.6303 44.1763 31.6479C44.2365 31.6579 44.2917 31.6629 44.3419 31.6629C44.6632 31.6629 44.9142 31.5625 45.0949 31.3617C45.2756 31.1509 45.4061 30.8748 45.4864 30.5335C45.5668 30.1921 45.622 29.8106 45.6521 29.3889C45.6923 28.9572 45.7224 28.5305 45.7425 28.1089L45.8356 26.0075C45.8593 25.473 46.2996 25.0518 46.8346 25.0518H51.2482C51.8005 25.0518 52.2482 25.4995 52.2482 26.0518V32.2201C52.2482 32.6942 51.8639 33.0785 51.3898 33.0785C50.9157 33.0785 50.5314 32.6942 50.5314 32.2201V26.4137C50.5314 26.2934 50.6814 26.2386 50.759 26.3305C50.8297 26.4144 50.7701 26.5427 50.6604 26.5427H47.2465C47.1483 26.5427 47.0925 26.4304 47.1518 26.3521C47.2224 26.259 47.3709 26.313 47.3651 26.4297L47.2785 28.1992C47.2484 28.902 47.1932 29.5596 47.1129 30.172C47.0326 30.7844 46.9071 31.3216 46.7364 31.7834C46.5657 32.2352 46.3298 32.5866 46.0286 32.8376C45.7274 33.0886 45.3459 33.2141 44.8841 33.2141C44.7335 33.2141 44.5779 33.199 44.4172 33.1689Z"/>
<path d="M60.6053 33.0785C60.152 33.0785 59.7845 32.7111 59.7845 32.2578V31.5559C59.7845 31.467 59.7727 31.3785 59.7493 31.2928L59.7294 31.2199C59.706 31.1341 59.6942 31.0456 59.6942 30.9567V28.2444C59.6942 27.6721 59.5235 27.2304 59.1821 26.9192C58.8408 26.5979 58.3288 26.4373 57.6461 26.4373C57.1843 26.4373 56.7325 26.5126 56.2907 26.6632C56.1575 26.7056 56.0306 26.753 55.9101 26.8054C55.5019 26.9832 54.9784 26.8847 54.7665 26.4931C54.603 26.1912 54.6784 25.8096 54.9769 25.64C55.282 25.4667 55.6196 25.3259 55.9895 25.2174C56.5819 25.0468 57.1993 24.9614 57.8419 24.9614C58.9763 24.9614 59.8548 25.2375 60.4773 25.7897C61.1098 26.3419 61.426 27.1902 61.426 28.3348V32.2578C61.426 32.7111 61.0586 33.0785 60.6053 33.0785ZM57.2395 33.1689C56.6371 33.1689 56.11 33.0685 55.6582 32.8677C55.2064 32.6669 54.855 32.3858 54.6041 32.0243C54.3631 31.6629 54.2426 31.2513 54.2426 30.7895C54.2426 30.3377 54.348 29.9361 54.5589 29.5847C54.7797 29.2233 55.1311 28.9371 55.613 28.7263C56.0949 28.5054 56.7375 28.395 57.5407 28.395H59.9502V29.6148H57.631C56.9684 29.6148 56.5216 29.7253 56.2907 29.9461C56.0598 30.157 55.9443 30.413 55.9443 30.7142C55.9443 31.0756 56.0849 31.3617 56.366 31.5726C56.6572 31.7734 57.0537 31.8738 57.5557 31.8738C58.0477 31.8738 58.4844 31.7683 58.8659 31.5575C59.2574 31.3366 59.5335 31.0154 59.6942 30.5937L60.0104 31.7232C59.8197 32.185 59.4884 32.5414 59.0165 32.7924C58.5446 33.0434 57.9523 33.1689 57.2395 33.1689Z"/>
<path d="M64.7052 33.0785C64.2312 33.0785 63.8468 32.6942 63.8468 32.2201V25.9102C63.8468 25.4361 64.2312 25.0518 64.7052 25.0518C65.1793 25.0518 65.5636 25.4361 65.5636 25.9102V28.3649H69.7954V25.9102C69.7954 25.4361 70.1797 25.0518 70.6537 25.0518C71.1278 25.0518 71.5121 25.4361 71.5121 25.9102V32.2201C71.5121 32.6942 71.1278 33.0785 70.6537 33.0785C70.1797 33.0785 69.7954 32.6942 69.7954 32.2201V29.8407H65.5636V32.2201C65.5636 32.6942 65.1793 33.0785 64.7052 33.0785Z"/>
<path d="M82.6262 33.1689C81.9636 33.1689 81.3612 33.0233 80.819 32.7321C80.2769 32.431 79.8452 31.9792 79.5239 31.3768C79.2027 30.7644 79.042 29.9963 79.042 29.0727C79.042 28.139 79.1976 27.371 79.5089 26.7686C79.8201 26.1561 80.2468 25.7044 80.7889 25.4132C81.3311 25.112 81.9435 24.9614 82.6262 24.9614C83.4093 24.9614 84.107 25.1321 84.7195 25.4734C85.3319 25.8148 85.8138 26.2967 86.1652 26.9192C86.5166 27.5316 86.6923 28.2494 86.6923 29.0727C86.6923 29.8959 86.5166 30.6138 86.1652 31.2262C85.8138 31.8386 85.3319 32.3155 84.7195 32.6568C84.107 32.9982 83.4093 33.1689 82.6262 33.1689ZM79.1324 36.0001C78.6583 36.0001 78.274 35.6157 78.274 35.1417V25.8725C78.274 25.4192 78.6414 25.0518 79.0947 25.0518C79.548 25.0518 79.9155 25.4192 79.9155 25.8725V27.0396L79.8402 29.0877L79.9908 31.1208V35.1417C79.9908 35.6157 79.6065 36.0001 79.1324 36.0001ZM82.4605 31.678C82.9324 31.678 83.3541 31.5726 83.7255 31.3617C84.107 31.1509 84.4082 30.8497 84.6291 30.4582C84.85 30.0566 84.9604 29.5947 84.9604 29.0727C84.9604 28.5305 84.85 28.0687 84.6291 27.6872C84.4082 27.2957 84.107 26.9945 83.7255 26.7836C83.3541 26.5628 82.9324 26.4523 82.4605 26.4523C81.9887 26.4523 81.562 26.5628 81.1805 26.7836C80.809 26.9945 80.5128 27.2957 80.292 27.6872C80.0711 28.0687 79.9607 28.5305 79.9607 29.0727C79.9607 29.5947 80.0711 30.0566 80.292 30.4582C80.5128 30.8497 80.809 31.1509 81.1805 31.3617C81.562 31.5726 81.9887 31.678 82.4605 31.678Z"/>
<path d="M94.2686 33.0785C93.8153 33.0785 93.4479 32.7111 93.4479 32.2578V31.5559C93.4479 31.467 93.436 31.3785 93.4126 31.2928L93.3928 31.2199C93.3694 31.1341 93.3575 31.0456 93.3575 30.9567V28.2444C93.3575 27.6721 93.1869 27.2304 92.8455 26.9192C92.5042 26.5979 91.9921 26.4373 91.3094 26.4373C90.8476 26.4373 90.3958 26.5126 89.9541 26.6632C89.8208 26.7056 89.6939 26.753 89.5735 26.8054C89.1652 26.9832 88.6417 26.8847 88.4298 26.4931C88.2664 26.1912 88.3417 25.8096 88.6403 25.64C88.9454 25.4667 89.2829 25.3259 89.6529 25.2174C90.2452 25.0468 90.8627 24.9614 91.5052 24.9614C92.6397 24.9614 93.5182 25.2375 94.1406 25.7897C94.7731 26.3419 95.0894 27.1902 95.0894 28.3348V32.2578C95.0894 32.7111 94.7219 33.0785 94.2686 33.0785ZM90.9028 33.1689C90.3004 33.1689 89.7734 33.0685 89.3216 32.8677C88.8698 32.6669 88.5184 32.3858 88.2674 32.0243C88.0264 31.6629 87.906 31.2513 87.906 30.7895C87.906 30.3377 88.0114 29.9361 88.2222 29.5847C88.4431 29.2233 88.7945 28.9371 89.2764 28.7263C89.7583 28.5054 90.4008 28.395 91.204 28.395H93.6135V29.6148H91.2944C90.6317 29.6148 90.185 29.7253 89.9541 29.9461C89.7232 30.157 89.6077 30.413 89.6077 30.7142C89.6077 31.0756 89.7483 31.3617 90.0294 31.5726C90.3205 31.7734 90.7171 31.8738 91.2191 31.8738C91.711 31.8738 92.1477 31.7683 92.5293 31.5575C92.9208 31.3366 93.1969 31.0154 93.3575 30.5937L93.6738 31.7232C93.483 32.185 93.1517 32.5414 92.6798 32.7924C92.208 33.0434 91.6156 33.1689 90.9028 33.1689Z"/>
<path d="M99.8623 33.199C99.2398 33.199 98.6324 33.1287 98.0401 32.9882C97.663 32.8906 97.309 32.7657 96.9782 32.6135C96.6698 32.4715 96.5466 32.1092 96.667 31.7918C96.819 31.3912 97.2927 31.222 97.6935 31.3732C97.8767 31.4423 98.0675 31.5037 98.266 31.5575C98.7579 31.688 99.2549 31.7533 99.7569 31.7533C100.199 31.7533 100.575 31.7081 100.886 31.6177C101.208 31.5173 101.449 31.3818 101.609 31.2111C101.78 31.0304 101.865 30.8196 101.865 30.5786C101.865 30.2473 101.72 29.9963 101.428 29.8257C101.137 29.6449 100.721 29.5546 100.179 29.5546H99.2599C98.9272 29.5546 98.6575 29.2849 98.6575 28.9522C98.6575 28.6195 98.9272 28.3498 99.2599 28.3498H100.043C100.384 28.3498 100.67 28.3147 100.901 28.2444C101.142 28.1641 101.323 28.0536 101.444 27.9131C101.574 27.7625 101.639 27.5868 101.639 27.386C101.639 27.1852 101.564 27.0095 101.413 26.8589C101.263 26.6983 101.047 26.5828 100.766 26.5126C100.485 26.4322 100.143 26.3921 99.7418 26.3921C99.3402 26.3921 98.9286 26.4423 98.5069 26.5427C98.3119 26.5891 98.1148 26.6452 97.9155 26.7109C97.5294 26.8383 97.0988 26.6515 96.9662 26.2672C96.8492 25.9278 97.0074 25.5518 97.3427 25.4234C97.641 25.3092 97.9337 25.2154 98.2208 25.1421C98.6927 25.0116 99.1696 24.9413 99.6515 24.9313C100.374 24.9012 101.017 24.9815 101.579 25.1723C102.151 25.353 102.598 25.614 102.919 25.9554C103.241 26.2867 103.401 26.6832 103.401 27.1451C103.401 27.5266 103.281 27.8679 103.04 28.1691C102.809 28.4703 102.488 28.7062 102.076 28.8769C101.732 29.0231 101.344 29.1067 100.911 29.1277C100.796 29.1333 100.707 29.0293 100.725 28.9149C100.74 28.8236 100.819 28.7561 100.911 28.7584C101.729 28.7784 102.378 28.9534 102.859 29.2835C103.371 29.6349 103.627 30.1168 103.627 30.7292C103.627 31.2111 103.467 31.6378 103.145 32.0093C102.824 32.3808 102.377 32.6719 101.805 32.8827C101.243 33.0936 100.595 33.199 99.8623 33.199Z"/>
<path d="M106.672 33.0785C106.12 33.0785 105.672 32.6308 105.672 32.0785V26.0518C105.672 25.4995 106.12 25.0518 106.672 25.0518H109.528C110.481 25.0518 111.234 25.2325 111.787 25.5939C112.339 25.9554 112.615 26.4674 112.615 27.13C112.615 27.7826 112.354 28.2896 111.832 28.651C111.387 28.9587 110.826 29.1355 110.149 29.1812C109.981 29.1925 109.872 29.0164 109.947 28.8662C109.985 28.7897 110.064 28.7411 110.149 28.7427C111.043 28.7595 111.714 28.9398 112.163 29.2835C112.635 29.6349 112.871 30.157 112.871 30.8497C112.871 31.5525 112.605 32.0996 112.073 32.4912C111.551 32.8827 110.752 33.0785 109.678 33.0785H106.672ZM107.329 31.7834H109.528C110.07 31.7834 110.476 31.6981 110.747 31.5274C111.029 31.3567 111.169 31.0907 111.169 30.7292C111.169 30.3578 111.044 30.0817 110.793 29.901C110.542 29.7202 110.145 29.6299 109.603 29.6299H107.329V31.7834ZM107.329 28.4251H109.362C109.864 28.4251 110.245 28.3348 110.506 28.154C110.767 27.9733 110.898 27.7123 110.898 27.371C110.898 27.0296 110.767 26.7786 110.506 26.618C110.245 26.4473 109.864 26.362 109.362 26.362H107.329V28.4251Z"/>
<path d="M115.982 33.0785C115.429 33.0785 114.982 32.6308 114.982 32.0785V25.9102C114.982 25.4361 115.366 25.0518 115.84 25.0518C116.314 25.0518 116.698 25.4361 116.698 25.9102V30.5335L120.992 25.4095C121.182 25.1828 121.462 25.0518 121.758 25.0518H121.858C122.41 25.0518 122.858 25.4995 122.858 26.0518V32.2201C122.858 32.6942 122.473 33.0785 121.999 33.0785C121.525 33.0785 121.141 32.6942 121.141 32.2201V27.5968L116.863 32.7195C116.673 32.947 116.392 33.0785 116.095 33.0785H115.982Z"/>
<path d="M128.004 33.0785C127.526 33.0785 127.138 32.6908 127.138 32.2126V26.4214C127.138 26.3123 127.271 26.2587 127.346 26.3373C127.421 26.4143 127.366 26.5427 127.259 26.5427H125.022C124.61 26.5427 124.277 26.2089 124.277 25.7972C124.277 25.3855 124.61 25.0518 125.022 25.0518H130.986C131.397 25.0518 131.731 25.3855 131.731 25.7972C131.731 26.2089 131.397 26.5427 130.986 26.5427H128.749C128.642 26.5427 128.587 26.4143 128.661 26.3373C128.737 26.2587 128.87 26.3123 128.87 26.4214V32.2126C128.87 32.6908 128.482 33.0785 128.004 33.0785Z"/>
<path d="M134.144 33.0785C133.592 33.0785 133.144 32.6308 133.144 32.0785V25.9102C133.144 25.4361 133.529 25.0518 134.003 25.0518C134.477 25.0518 134.861 25.4361 134.861 25.9102V30.5335L139.154 25.4095C139.344 25.1828 139.625 25.0518 139.921 25.0518H140.02C140.573 25.0518 141.02 25.4995 141.02 26.0518V32.2201C141.02 32.6942 140.636 33.0785 140.162 33.0785C139.688 33.0785 139.304 32.6942 139.304 32.2201V27.5968L135.025 32.7195C134.835 32.947 134.554 33.0785 134.258 33.0785H134.144Z"/>
<path d="M149.489 33.0785C149.089 33.0785 148.764 32.7541 148.764 32.354V30.5411C148.764 30.4632 148.862 30.4285 148.911 30.4891C148.955 30.5432 148.916 30.6238 148.847 30.6238H146.566C145.471 30.6238 144.613 30.3929 143.99 29.9311C143.378 29.4692 143.072 28.7966 143.072 27.9131C143.072 26.9794 143.398 26.2716 144.051 25.7897C144.713 25.2978 145.597 25.0518 146.701 25.0518H149.315C149.868 25.0518 150.315 25.4995 150.315 26.0518V32.3029C150.315 32.7313 149.968 33.0785 149.54 33.0785H149.489ZM144.425 33.0785C143.82 33.0785 143.466 32.3948 143.817 31.9008L145.15 30.0214H146.912L145.041 32.754C144.902 32.9571 144.671 33.0785 144.425 33.0785ZM148.923 29.5417C148.874 29.6111 148.764 29.5763 148.764 29.4913V26.4334C148.764 26.3365 148.893 26.3026 148.941 26.3869C148.976 26.4497 148.931 26.5276 148.859 26.5276H146.746C146.134 26.5276 145.657 26.6431 145.316 26.874C144.984 27.0949 144.819 27.4613 144.819 27.9733C144.819 28.9271 145.441 29.404 146.686 29.404H148.852C148.922 29.404 148.964 29.4839 148.923 29.5417Z"/>
</mask>
<path d="M36.1151 17.4313C35.5628 17.4313 35.1151 16.9835 35.1151 16.4313V7.77809C35.1151 7.28738 35.5129 6.88958 36.0036 6.88958C36.4944 6.88958 36.8922 7.28738 36.8922 7.77809V14.585L42.4652 7.28288C42.6544 7.03502 42.9483 6.88958 43.2601 6.88958H43.4219C43.9742 6.88958 44.4219 7.3373 44.4219 7.88958V16.5503C44.4219 17.0368 44.0275 17.4313 43.5409 17.4313C43.0544 17.4313 42.66 17.0368 42.66 16.5503V9.75089L37.0869 17.0387C36.8977 17.2861 36.604 17.4313 36.2926 17.4313H36.1151Z" fill="black"/>
<path d="M48.1603 17.4313C47.6863 17.4313 47.3019 17.0469 47.3019 16.5729V10.2629C47.3019 9.78884 47.6863 9.40452 48.1603 9.40452C48.6344 9.40452 49.0187 9.78884 49.0187 10.2629V12.7176H53.2505V10.2629C53.2505 9.78884 53.6348 9.40452 54.1089 9.40452C54.5829 9.40452 54.9672 9.78884 54.9672 10.2629V16.5729C54.9672 17.0469 54.5829 17.4313 54.1089 17.4313C53.6348 17.4313 53.2505 17.0469 53.2505 16.5729V14.1935H49.0187V16.5729C49.0187 17.0469 48.6344 17.4313 48.1603 17.4313Z" fill="black"/>
<path d="M63.9438 16.618C63.4655 16.618 63.0779 16.2304 63.0779 15.7521V10.8954H59.8551L59.7949 12.2658C59.7748 12.7477 59.7447 13.2096 59.7045 13.6513C59.6644 14.0931 59.5991 14.4997 59.5088 14.8711C59.4184 15.2326 59.2829 15.5338 59.1021 15.7747C58.9315 16.0056 58.7006 16.1512 58.4094 16.2114L56.5129 16.5256C56.8141 16.5356 57.2548 15.855 57.4456 15.6542C57.6363 15.4434 57.7819 15.1623 57.8823 14.8109C57.9928 14.4495 58.0731 14.0378 58.1233 13.576C58.1735 13.1142 58.2136 12.6373 58.2437 12.1454L58.3122 10.3661C58.3328 9.82916 58.7741 9.40452 59.3114 9.40452H63.8097C64.362 9.40452 64.8097 9.85224 64.8097 10.4045V15.7521C64.8097 16.2304 64.422 16.618 63.9438 16.618ZM57.2122 19.2535C56.7672 19.2535 56.4065 18.8927 56.4065 18.4478V16.9404C56.4065 16.3881 56.8542 15.9404 57.4065 15.9404H64.9994C65.5517 15.9404 65.9994 16.3881 65.9994 16.9404V18.4478C65.9994 18.8927 65.6387 19.2535 65.1937 19.2535C64.7488 19.2535 64.388 18.8927 64.388 18.4478V17.4313H58.0179V18.4478C58.0179 18.8927 57.6571 19.2535 57.2122 19.2535Z" fill="black"/>
<path d="M68.7735 17.4313C68.2212 17.4313 67.7735 16.9835 67.7735 16.4313V10.2629C67.7735 9.78884 68.1578 9.40452 68.6319 9.40452C69.106 9.40452 69.4903 9.78884 69.4903 10.2629V14.8862L73.7837 9.76227C73.9737 9.53551 74.2543 9.40452 74.5502 9.40452H74.6496C75.2019 9.40452 75.6496 9.85224 75.6496 10.4045V16.5729C75.6496 17.0469 75.2653 17.4313 74.7912 17.4313C74.3172 17.4313 73.9328 17.0469 73.9328 16.5729V11.9496L69.6546 17.0723C69.4646 17.2998 69.1834 17.4313 68.887 17.4313H68.7735Z" fill="black"/>
<path d="M79.3034 17.4313C78.7511 17.4313 78.3034 16.9835 78.3034 16.4313V10.4045C78.3034 9.85224 78.7511 9.40452 79.3034 9.40452H82.1586C83.1124 9.40452 83.8654 9.58524 84.4176 9.94667C84.9698 10.3081 85.2458 10.8201 85.2458 11.4827C85.2458 12.1353 84.9848 12.6423 84.4627 13.0038C84.0183 13.3115 83.4573 13.4882 82.78 13.5339C82.6124 13.5452 82.503 13.3692 82.5781 13.219C82.6164 13.1424 82.6948 13.0938 82.7803 13.0954C83.674 13.1122 84.3453 13.2925 84.7941 13.6363C85.2659 13.9876 85.5019 14.5097 85.5019 15.2024C85.5019 15.9052 85.2358 16.4524 84.7037 16.8439C84.1816 17.2355 83.3835 17.4313 82.3092 17.4313H79.3034ZM79.9599 16.1361H82.1586C82.7008 16.1361 83.1074 16.0508 83.3785 15.8801C83.6596 15.7094 83.8001 15.4434 83.8001 15.082C83.8001 14.7105 83.6746 14.4344 83.4236 14.2537C83.1726 14.073 82.7761 13.9826 82.2339 13.9826H79.9599V16.1361ZM79.9599 12.7779H81.993C82.495 12.7779 82.8765 12.6875 83.1375 12.5068C83.3985 12.3261 83.5291 12.065 83.5291 11.7237C83.5291 11.3823 83.3985 11.1313 83.1375 10.9707C82.8765 10.8 82.495 10.7147 81.993 10.7147H79.9599V12.7779Z" fill="black"/>
<path d="M88.6127 17.4313C88.0604 17.4313 87.6127 16.9835 87.6127 16.4313V10.2629C87.6127 9.78884 87.997 9.40452 88.4711 9.40452C88.9451 9.40452 89.3295 9.78884 89.3295 10.2629V14.8862L93.6229 9.76227C93.8129 9.53551 94.0935 9.40452 94.3893 9.40452H94.4888C95.0411 9.40452 95.4888 9.85224 95.4888 10.4045V16.5729C95.4888 17.0469 95.1045 17.4313 94.6304 17.4313C94.1563 17.4313 93.772 17.0469 93.772 16.5729V11.9496L89.4937 17.0723C89.3037 17.2998 89.0226 17.4313 88.7262 17.4313H88.6127Z" fill="black"/>
<path d="M104.475 16.618C103.997 16.618 103.609 16.2304 103.609 15.7521V10.8954H100.386L100.326 12.2658C100.306 12.7477 100.276 13.2096 100.236 13.6513C100.196 14.0931 100.13 14.4997 100.04 14.8711C99.9497 15.2326 99.8142 15.5338 99.6335 15.7747C99.4628 16.0056 99.2319 16.1512 98.9407 16.2114L97.0979 16.5256C97.3991 16.5356 97.7862 15.855 97.9769 15.6542C98.1677 15.4434 98.3132 15.1623 98.4136 14.8109C98.5241 14.4495 98.6044 14.0378 98.6546 13.576C98.7048 13.1142 98.745 12.6373 98.7751 12.1454L98.8435 10.3661C98.8642 9.82916 99.3054 9.40452 99.8428 9.40452H104.341C104.893 9.40452 105.341 9.85224 105.341 10.4045V15.7521C105.341 16.2304 104.953 16.618 104.475 16.618ZM97.7435 19.2535C97.2985 19.2535 96.9378 18.8927 96.9378 18.4478V16.9404C96.9378 16.3881 97.3855 15.9404 97.9378 15.9404H105.531C106.083 15.9404 106.531 16.3881 106.531 16.9404V18.4478C106.531 18.8927 106.17 19.2535 105.725 19.2535C105.28 19.2535 104.919 18.8927 104.919 18.4478V17.4313H98.5492V18.4478C98.5492 18.8927 98.1885 19.2535 97.7435 19.2535Z" fill="black"/>
<path d="M108.892 20.4432C108.501 20.4432 108.114 20.3779 107.733 20.2474C107.546 20.1885 107.374 20.1152 107.216 20.0275C106.933 19.8698 106.879 19.5055 107.036 19.2216L107.101 19.1052C107.291 18.7609 107.761 18.6955 108.124 18.8469C108.375 18.9472 108.626 18.9974 108.877 18.9974C109.218 18.9974 109.5 18.9071 109.72 18.7264C109.941 18.5557 110.147 18.2595 110.338 17.8379L110.77 16.8621C110.793 16.8099 110.821 16.7598 110.852 16.7123L110.905 16.6339C110.938 16.5833 110.967 16.5297 110.991 16.4738L113.829 9.86744C113.949 9.58657 114.226 9.40452 114.531 9.40452C115.082 9.40452 115.452 9.96981 115.232 10.4749L111.889 18.1391C111.648 18.7214 111.377 19.1832 111.076 19.5245C110.775 19.8659 110.443 20.1018 110.082 20.2323C109.72 20.3729 109.324 20.4432 108.892 20.4432ZM110.624 17.7023L107.505 10.5427C107.271 10.0055 107.665 9.40452 108.251 9.40452C108.576 9.40452 108.87 9.59798 108.998 9.89652L111.545 15.8165C111.699 16.1763 111.63 16.5934 111.367 16.8835L110.624 17.7023Z" fill="black"/>
<path d="M122.52 17.4313C122.067 17.4313 121.699 17.0638 121.699 16.6105V15.9086C121.699 15.8197 121.687 15.7313 121.664 15.6455L121.644 15.5726C121.621 15.4868 121.609 15.3984 121.609 15.3095V12.5971C121.609 12.0249 121.438 11.5831 121.097 11.2719C120.755 10.9506 120.243 10.79 119.561 10.79C119.099 10.79 118.647 10.8653 118.205 11.0159C118.072 11.0583 117.945 11.1057 117.825 11.1582C117.417 11.3359 116.893 11.2375 116.681 10.8459C116.518 10.5439 116.593 10.1623 116.892 9.99274C117.197 9.81946 117.534 9.67861 117.904 9.57018C118.497 9.3995 119.114 9.31417 119.757 9.31417C120.891 9.31417 121.769 9.59026 122.392 10.1424C123.024 10.6946 123.341 11.543 123.341 12.6875V16.6105C123.341 17.0638 122.973 17.4313 122.52 17.4313ZM119.154 17.5216C118.552 17.5216 118.025 17.4212 117.573 17.2204C117.121 17.0196 116.77 16.7385 116.519 16.3771C116.278 16.0157 116.157 15.604 116.157 15.1422C116.157 14.6904 116.263 14.2888 116.474 13.9374C116.694 13.576 117.046 13.2899 117.528 13.079C118.01 12.8582 118.652 12.7477 119.455 12.7477H121.865V13.9676H119.546C118.883 13.9676 118.436 14.078 118.205 14.2989C117.974 14.5097 117.859 14.7657 117.859 15.0669C117.859 15.4283 118 15.7145 118.281 15.9253C118.572 16.1261 118.968 16.2265 119.47 16.2265C119.962 16.2265 120.399 16.1211 120.781 15.9102C121.172 15.6894 121.448 15.3681 121.609 14.9464L121.925 16.0759C121.734 16.5377 121.403 16.8941 120.931 17.1451C120.459 17.3961 119.867 17.5216 119.154 17.5216Z" fill="black"/>
<path d="M125.039 17.5216C124.735 17.4647 124.526 17.1878 124.545 16.8797L124.59 16.1682C124.596 16.0616 124.692 15.983 124.798 16.0006C124.858 16.0106 124.913 16.0157 124.963 16.0157C125.285 16.0157 125.536 15.9153 125.716 15.7145C125.897 15.5036 126.028 15.2275 126.108 14.8862C126.188 14.5448 126.243 14.1633 126.274 13.7417C126.314 13.31 126.344 12.8833 126.364 12.4616L126.457 10.3602C126.481 9.8257 126.921 9.40452 127.456 9.40452H131.87C132.422 9.40452 132.87 9.85224 132.87 10.4045V16.5729C132.87 17.0469 132.485 17.4313 132.011 17.4313C131.537 17.4313 131.153 17.0469 131.153 16.5729V10.7664C131.153 10.6462 131.303 10.5913 131.38 10.6832C131.451 10.7671 131.392 10.8954 131.282 10.8954H127.868C127.77 10.8954 127.714 10.7831 127.773 10.7049C127.844 10.6118 127.992 10.6657 127.987 10.7824L127.9 12.552C127.87 13.2547 127.815 13.9123 127.734 14.5248C127.654 15.1372 127.529 15.6743 127.358 16.1361C127.187 16.5879 126.951 16.9393 126.65 17.1903C126.349 17.4413 125.967 17.5668 125.506 17.5668C125.355 17.5668 125.199 17.5517 125.039 17.5216Z" fill="black"/>
<path d="M139.427 12.0701C140.451 12.0801 141.234 12.316 141.776 12.7779C142.319 13.2296 142.59 13.8722 142.59 14.7055C142.59 15.589 142.288 16.2717 141.686 16.7536C141.094 17.2254 140.255 17.4564 139.171 17.4463L136.523 17.4354C135.972 17.4331 135.527 16.9861 135.527 16.4354V10.2629C135.527 9.78884 135.911 9.40452 136.385 9.40452C136.859 9.40452 137.243 9.78884 137.243 10.2629V12.055L139.427 12.0701ZM139.021 16.1512C139.613 16.1612 140.06 16.0408 140.361 15.7898C140.672 15.5388 140.828 15.1723 140.828 14.6904C140.828 14.2085 140.677 13.8621 140.376 13.6513C140.075 13.4304 139.623 13.315 139.021 13.3049L137.243 13.2899V16.1361L139.021 16.1512Z" fill="black"/>
<path d="M145.18 17.4313C144.706 17.4313 144.321 17.0469 144.321 16.5729V10.2629C144.321 9.78884 144.706 9.40452 145.18 9.40452C145.654 9.40452 146.038 9.78884 146.038 10.2629V12.7176H150.27V10.2629C150.27 9.78884 150.654 9.40452 151.128 9.40452C151.602 9.40452 151.987 9.78884 151.987 10.2629V16.5729C151.987 17.0469 151.602 17.4313 151.128 17.4313C150.654 17.4313 150.27 17.0469 150.27 16.5729V14.1935H146.038V16.5729C146.038 17.0469 145.654 17.4313 145.18 17.4313Z" fill="black"/>
<path d="M163.516 17.4313C163.042 17.4313 162.657 17.0469 162.657 16.5729V10.2629C162.657 9.78884 163.042 9.40452 163.516 9.40452C163.99 9.40452 164.374 9.78884 164.374 10.2629V16.5729C164.374 17.0469 163.99 17.4313 163.516 17.4313ZM158.41 12.0701C159.435 12.0801 160.213 12.316 160.745 12.7779C161.287 13.2296 161.558 13.8722 161.558 14.7055C161.558 15.589 161.262 16.2717 160.669 16.7536C160.077 17.2254 159.239 17.4564 158.154 17.4463L155.626 17.4355C155.076 17.4332 154.631 16.9861 154.631 16.4355V10.2629C154.631 9.78884 155.015 9.40452 155.489 9.40452C155.963 9.40452 156.347 9.78884 156.347 10.2629V12.055L158.41 12.0701ZM158.004 16.1512C158.596 16.1612 159.043 16.0408 159.344 15.7898C159.655 15.5388 159.811 15.1723 159.811 14.6904C159.811 14.2085 159.66 13.8621 159.359 13.6513C159.058 13.4304 158.606 13.315 158.004 13.3049L156.347 13.2899V16.1361L158.004 16.1512Z" fill="black"/>
<path d="M168.028 17.4313C167.476 17.4313 167.028 16.9835 167.028 16.4313V10.2629C167.028 9.78884 167.412 9.40452 167.887 9.40452C168.361 9.40452 168.745 9.78884 168.745 10.2629V14.8862L173.038 9.76227C173.228 9.53551 173.509 9.40452 173.805 9.40452H173.904C174.457 9.40452 174.904 9.85224 174.904 10.4045V16.5729C174.904 17.0469 174.52 17.4313 174.046 17.4313C173.572 17.4313 173.188 17.0469 173.188 16.5729V11.9496L168.909 17.0723C168.719 17.2998 168.438 17.4313 168.142 17.4313H168.028ZM170.853 8.42565C170.08 8.42565 169.478 8.24494 169.046 7.88351C168.747 7.62035 168.552 7.27153 168.46 6.83705C168.393 6.52283 168.661 6.25708 168.983 6.25708C169.295 6.25708 169.531 6.51681 169.656 6.80263C169.712 6.93212 169.79 7.04644 169.889 7.14559C170.12 7.35643 170.437 7.46184 170.838 7.46184C171.24 7.46184 171.556 7.35643 171.787 7.14559C171.886 7.05129 171.964 6.94327 172.022 6.82152C172.162 6.52906 172.407 6.25708 172.731 6.25708C173.065 6.25708 173.344 6.53375 173.271 6.85937C173.174 7.28349 172.976 7.62487 172.675 7.88351C172.244 8.24494 171.636 8.42565 170.853 8.42565Z" fill="black"/>
<path d="M35.7627 33.0785C35.2886 33.0785 34.9043 32.6942 34.9043 32.2201V26.0518C34.9043 25.4995 35.352 25.0518 35.9043 25.0518H41.4943C42.0466 25.0518 42.4943 25.4995 42.4943 26.0518V32.2201C42.4943 32.6942 42.11 33.0785 41.6359 33.0785C41.1618 33.0785 40.7775 32.6942 40.7775 32.2201V26.4258C40.7775 26.3207 40.9056 26.2691 40.9785 26.3448C41.05 26.419 40.9974 26.5427 40.8944 26.5427H36.502C36.3959 26.5427 36.3428 26.4144 36.4178 26.3394C36.4928 26.2643 36.6211 26.3175 36.6211 26.4236V32.2201C36.6211 32.6942 36.2368 33.0785 35.7627 33.0785Z" fill="black"/>
<path d="M44.4172 33.1689C44.1138 33.112 43.9044 32.835 43.9237 32.527L43.9681 31.8154C43.9748 31.7089 44.071 31.6303 44.1763 31.6479C44.2365 31.6579 44.2917 31.6629 44.3419 31.6629C44.6632 31.6629 44.9142 31.5625 45.0949 31.3617C45.2756 31.1509 45.4061 30.8748 45.4864 30.5335C45.5668 30.1921 45.622 29.8106 45.6521 29.3889C45.6923 28.9572 45.7224 28.5305 45.7425 28.1089L45.8356 26.0075C45.8593 25.473 46.2996 25.0518 46.8346 25.0518H51.2482C51.8005 25.0518 52.2482 25.4995 52.2482 26.0518V32.2201C52.2482 32.6942 51.8639 33.0785 51.3898 33.0785C50.9157 33.0785 50.5314 32.6942 50.5314 32.2201V26.4137C50.5314 26.2934 50.6814 26.2386 50.759 26.3305C50.8297 26.4144 50.7701 26.5427 50.6604 26.5427H47.2465C47.1483 26.5427 47.0925 26.4304 47.1518 26.3521C47.2224 26.259 47.3709 26.313 47.3651 26.4297L47.2785 28.1992C47.2484 28.902 47.1932 29.5596 47.1129 30.172C47.0326 30.7844 46.9071 31.3216 46.7364 31.7834C46.5657 32.2352 46.3298 32.5866 46.0286 32.8376C45.7274 33.0886 45.3459 33.2141 44.8841 33.2141C44.7335 33.2141 44.5779 33.199 44.4172 33.1689Z" fill="black"/>
<path d="M60.6053 33.0785C60.152 33.0785 59.7845 32.7111 59.7845 32.2578V31.5559C59.7845 31.467 59.7727 31.3785 59.7493 31.2928L59.7294 31.2199C59.706 31.1341 59.6942 31.0456 59.6942 30.9567V28.2444C59.6942 27.6721 59.5235 27.2304 59.1821 26.9192C58.8408 26.5979 58.3288 26.4373 57.6461 26.4373C57.1843 26.4373 56.7325 26.5126 56.2907 26.6632C56.1575 26.7056 56.0306 26.753 55.9101 26.8054C55.5019 26.9832 54.9784 26.8847 54.7665 26.4931C54.603 26.1912 54.6784 25.8096 54.9769 25.64C55.282 25.4667 55.6196 25.3259 55.9895 25.2174C56.5819 25.0468 57.1993 24.9614 57.8419 24.9614C58.9763 24.9614 59.8548 25.2375 60.4773 25.7897C61.1098 26.3419 61.426 27.1902 61.426 28.3348V32.2578C61.426 32.7111 61.0586 33.0785 60.6053 33.0785ZM57.2395 33.1689C56.6371 33.1689 56.11 33.0685 55.6582 32.8677C55.2064 32.6669 54.855 32.3858 54.6041 32.0243C54.3631 31.6629 54.2426 31.2513 54.2426 30.7895C54.2426 30.3377 54.348 29.9361 54.5589 29.5847C54.7797 29.2233 55.1311 28.9371 55.613 28.7263C56.0949 28.5054 56.7375 28.395 57.5407 28.395H59.9502V29.6148H57.631C56.9684 29.6148 56.5216 29.7253 56.2907 29.9461C56.0598 30.157 55.9443 30.413 55.9443 30.7142C55.9443 31.0756 56.0849 31.3617 56.366 31.5726C56.6572 31.7734 57.0537 31.8738 57.5557 31.8738C58.0477 31.8738 58.4844 31.7683 58.8659 31.5575C59.2574 31.3366 59.5335 31.0154 59.6942 30.5937L60.0104 31.7232C59.8197 32.185 59.4884 32.5414 59.0165 32.7924C58.5446 33.0434 57.9523 33.1689 57.2395 33.1689Z" fill="black"/>
<path d="M64.7052 33.0785C64.2312 33.0785 63.8468 32.6942 63.8468 32.2201V25.9102C63.8468 25.4361 64.2312 25.0518 64.7052 25.0518C65.1793 25.0518 65.5636 25.4361 65.5636 25.9102V28.3649H69.7954V25.9102C69.7954 25.4361 70.1797 25.0518 70.6537 25.0518C71.1278 25.0518 71.5121 25.4361 71.5121 25.9102V32.2201C71.5121 32.6942 71.1278 33.0785 70.6537 33.0785C70.1797 33.0785 69.7954 32.6942 69.7954 32.2201V29.8407H65.5636V32.2201C65.5636 32.6942 65.1793 33.0785 64.7052 33.0785Z" fill="black"/>
<path d="M82.6262 33.1689C81.9636 33.1689 81.3612 33.0233 80.819 32.7321C80.2769 32.431 79.8452 31.9792 79.5239 31.3768C79.2027 30.7644 79.042 29.9963 79.042 29.0727C79.042 28.139 79.1976 27.371 79.5089 26.7686C79.8201 26.1561 80.2468 25.7044 80.7889 25.4132C81.3311 25.112 81.9435 24.9614 82.6262 24.9614C83.4093 24.9614 84.107 25.1321 84.7195 25.4734C85.3319 25.8148 85.8138 26.2967 86.1652 26.9192C86.5166 27.5316 86.6923 28.2494 86.6923 29.0727C86.6923 29.8959 86.5166 30.6138 86.1652 31.2262C85.8138 31.8386 85.3319 32.3155 84.7195 32.6568C84.107 32.9982 83.4093 33.1689 82.6262 33.1689ZM79.1324 36.0001C78.6583 36.0001 78.274 35.6157 78.274 35.1417V25.8725C78.274 25.4192 78.6414 25.0518 79.0947 25.0518C79.548 25.0518 79.9155 25.4192 79.9155 25.8725V27.0396L79.8402 29.0877L79.9908 31.1208V35.1417C79.9908 35.6157 79.6065 36.0001 79.1324 36.0001ZM82.4605 31.678C82.9324 31.678 83.3541 31.5726 83.7255 31.3617C84.107 31.1509 84.4082 30.8497 84.6291 30.4582C84.85 30.0566 84.9604 29.5947 84.9604 29.0727C84.9604 28.5305 84.85 28.0687 84.6291 27.6872C84.4082 27.2957 84.107 26.9945 83.7255 26.7836C83.3541 26.5628 82.9324 26.4523 82.4605 26.4523C81.9887 26.4523 81.562 26.5628 81.1805 26.7836C80.809 26.9945 80.5128 27.2957 80.292 27.6872C80.0711 28.0687 79.9607 28.5305 79.9607 29.0727C79.9607 29.5947 80.0711 30.0566 80.292 30.4582C80.5128 30.8497 80.809 31.1509 81.1805 31.3617C81.562 31.5726 81.9887 31.678 82.4605 31.678Z" fill="black"/>
<path d="M94.2686 33.0785C93.8153 33.0785 93.4479 32.7111 93.4479 32.2578V31.5559C93.4479 31.467 93.436 31.3785 93.4126 31.2928L93.3928 31.2199C93.3694 31.1341 93.3575 31.0456 93.3575 30.9567V28.2444C93.3575 27.6721 93.1869 27.2304 92.8455 26.9192C92.5042 26.5979 91.9921 26.4373 91.3094 26.4373C90.8476 26.4373 90.3958 26.5126 89.9541 26.6632C89.8208 26.7056 89.6939 26.753 89.5735 26.8054C89.1652 26.9832 88.6417 26.8847 88.4298 26.4931C88.2664 26.1912 88.3417 25.8096 88.6403 25.64C88.9454 25.4667 89.2829 25.3259 89.6529 25.2174C90.2452 25.0468 90.8627 24.9614 91.5052 24.9614C92.6397 24.9614 93.5182 25.2375 94.1406 25.7897C94.7731 26.3419 95.0894 27.1902 95.0894 28.3348V32.2578C95.0894 32.7111 94.7219 33.0785 94.2686 33.0785ZM90.9028 33.1689C90.3004 33.1689 89.7734 33.0685 89.3216 32.8677C88.8698 32.6669 88.5184 32.3858 88.2674 32.0243C88.0264 31.6629 87.906 31.2513 87.906 30.7895C87.906 30.3377 88.0114 29.9361 88.2222 29.5847C88.4431 29.2233 88.7945 28.9371 89.2764 28.7263C89.7583 28.5054 90.4008 28.395 91.204 28.395H93.6135V29.6148H91.2944C90.6317 29.6148 90.185 29.7253 89.9541 29.9461C89.7232 30.157 89.6077 30.413 89.6077 30.7142C89.6077 31.0756 89.7483 31.3617 90.0294 31.5726C90.3205 31.7734 90.7171 31.8738 91.2191 31.8738C91.711 31.8738 92.1477 31.7683 92.5293 31.5575C92.9208 31.3366 93.1969 31.0154 93.3575 30.5937L93.6738 31.7232C93.483 32.185 93.1517 32.5414 92.6798 32.7924C92.208 33.0434 91.6156 33.1689 90.9028 33.1689Z" fill="black"/>
<path d="M99.8623 33.199C99.2398 33.199 98.6324 33.1287 98.0401 32.9882C97.663 32.8906 97.309 32.7657 96.9782 32.6135C96.6698 32.4715 96.5466 32.1092 96.667 31.7918C96.819 31.3912 97.2927 31.222 97.6935 31.3732C97.8767 31.4423 98.0675 31.5037 98.266 31.5575C98.7579 31.688 99.2549 31.7533 99.7569 31.7533C100.199 31.7533 100.575 31.7081 100.886 31.6177C101.208 31.5173 101.449 31.3818 101.609 31.2111C101.78 31.0304 101.865 30.8196 101.865 30.5786C101.865 30.2473 101.72 29.9963 101.428 29.8257C101.137 29.6449 100.721 29.5546 100.179 29.5546H99.2599C98.9272 29.5546 98.6575 29.2849 98.6575 28.9522C98.6575 28.6195 98.9272 28.3498 99.2599 28.3498H100.043C100.384 28.3498 100.67 28.3147 100.901 28.2444C101.142 28.1641 101.323 28.0536 101.444 27.9131C101.574 27.7625 101.639 27.5868 101.639 27.386C101.639 27.1852 101.564 27.0095 101.413 26.8589C101.263 26.6983 101.047 26.5828 100.766 26.5126C100.485 26.4322 100.143 26.3921 99.7418 26.3921C99.3402 26.3921 98.9286 26.4423 98.5069 26.5427C98.3119 26.5891 98.1148 26.6452 97.9155 26.7109C97.5294 26.8383 97.0988 26.6515 96.9662 26.2672C96.8492 25.9278 97.0074 25.5518 97.3427 25.4234C97.641 25.3092 97.9337 25.2154 98.2208 25.1421C98.6927 25.0116 99.1696 24.9413 99.6515 24.9313C100.374 24.9012 101.017 24.9815 101.579 25.1723C102.151 25.353 102.598 25.614 102.919 25.9554C103.241 26.2867 103.401 26.6832 103.401 27.1451C103.401 27.5266 103.281 27.8679 103.04 28.1691C102.809 28.4703 102.488 28.7062 102.076 28.8769C101.732 29.0231 101.344 29.1067 100.911 29.1277C100.796 29.1333 100.707 29.0293 100.725 28.9149C100.74 28.8236 100.819 28.7561 100.911 28.7584C101.729 28.7784 102.378 28.9534 102.859 29.2835C103.371 29.6349 103.627 30.1168 103.627 30.7292C103.627 31.2111 103.467 31.6378 103.145 32.0093C102.824 32.3808 102.377 32.6719 101.805 32.8827C101.243 33.0936 100.595 33.199 99.8623 33.199Z" fill="black"/>
<path d="M106.672 33.0785C106.12 33.0785 105.672 32.6308 105.672 32.0785V26.0518C105.672 25.4995 106.12 25.0518 106.672 25.0518H109.528C110.481 25.0518 111.234 25.2325 111.787 25.5939C112.339 25.9554 112.615 26.4674 112.615 27.13C112.615 27.7826 112.354 28.2896 111.832 28.651C111.387 28.9587 110.826 29.1355 110.149 29.1812C109.981 29.1925 109.872 29.0164 109.947 28.8662C109.985 28.7897 110.064 28.7411 110.149 28.7427C111.043 28.7595 111.714 28.9398 112.163 29.2835C112.635 29.6349 112.871 30.157 112.871 30.8497C112.871 31.5525 112.605 32.0996 112.073 32.4912C111.551 32.8827 110.752 33.0785 109.678 33.0785H106.672ZM107.329 31.7834H109.528C110.07 31.7834 110.476 31.6981 110.747 31.5274C111.029 31.3567 111.169 31.0907 111.169 30.7292C111.169 30.3578 111.044 30.0817 110.793 29.901C110.542 29.7202 110.145 29.6299 109.603 29.6299H107.329V31.7834ZM107.329 28.4251H109.362C109.864 28.4251 110.245 28.3348 110.506 28.154C110.767 27.9733 110.898 27.7123 110.898 27.371C110.898 27.0296 110.767 26.7786 110.506 26.618C110.245 26.4473 109.864 26.362 109.362 26.362H107.329V28.4251Z" fill="black"/>
<path d="M115.982 33.0785C115.429 33.0785 114.982 32.6308 114.982 32.0785V25.9102C114.982 25.4361 115.366 25.0518 115.84 25.0518C116.314 25.0518 116.698 25.4361 116.698 25.9102V30.5335L120.992 25.4095C121.182 25.1828 121.462 25.0518 121.758 25.0518H121.858C122.41 25.0518 122.858 25.4995 122.858 26.0518V32.2201C122.858 32.6942 122.473 33.0785 121.999 33.0785C121.525 33.0785 121.141 32.6942 121.141 32.2201V27.5968L116.863 32.7195C116.673 32.947 116.392 33.0785 116.095 33.0785H115.982Z" fill="black"/>
<path d="M128.004 33.0785C127.526 33.0785 127.138 32.6908 127.138 32.2126V26.4214C127.138 26.3123 127.271 26.2587 127.346 26.3373C127.421 26.4143 127.366 26.5427 127.259 26.5427H125.022C124.61 26.5427 124.277 26.2089 124.277 25.7972C124.277 25.3855 124.61 25.0518 125.022 25.0518H130.986C131.397 25.0518 131.731 25.3855 131.731 25.7972C131.731 26.2089 131.397 26.5427 130.986 26.5427H128.749C128.642 26.5427 128.587 26.4143 128.661 26.3373C128.737 26.2587 128.87 26.3123 128.87 26.4214V32.2126C128.87 32.6908 128.482 33.0785 128.004 33.0785Z" fill="black"/>
<path d="M134.144 33.0785C133.592 33.0785 133.144 32.6308 133.144 32.0785V25.9102C133.144 25.4361 133.529 25.0518 134.003 25.0518C134.477 25.0518 134.861 25.4361 134.861 25.9102V30.5335L139.154 25.4095C139.344 25.1828 139.625 25.0518 139.921 25.0518H140.02C140.573 25.0518 141.02 25.4995 141.02 26.0518V32.2201C141.02 32.6942 140.636 33.0785 140.162 33.0785C139.688 33.0785 139.304 32.6942 139.304 32.2201V27.5968L135.025 32.7195C134.835 32.947 134.554 33.0785 134.258 33.0785H134.144Z" fill="black"/>
<path d="M149.489 33.0785C149.089 33.0785 148.764 32.7541 148.764 32.354V30.5411C148.764 30.4632 148.862 30.4285 148.911 30.4891C148.955 30.5432 148.916 30.6238 148.847 30.6238H146.566C145.471 30.6238 144.613 30.3929 143.99 29.9311C143.378 29.4692 143.072 28.7966 143.072 27.9131C143.072 26.9794 143.398 26.2716 144.051 25.7897C144.713 25.2978 145.597 25.0518 146.701 25.0518H149.315C149.868 25.0518 150.315 25.4995 150.315 26.0518V32.3029C150.315 32.7313 149.968 33.0785 149.54 33.0785H149.489ZM144.425 33.0785C143.82 33.0785 143.466 32.3948 143.817 31.9008L145.15 30.0214H146.912L145.041 32.754C144.902 32.9571 144.671 33.0785 144.425 33.0785ZM148.923 29.5417C148.874 29.6111 148.764 29.5763 148.764 29.4913V26.4334C148.764 26.3365 148.893 26.3026 148.941 26.3869C148.976 26.4497 148.931 26.5276 148.859 26.5276H146.746C146.134 26.5276 145.657 26.6431 145.316 26.874C144.984 27.0949 144.819 27.4613 144.819 27.9733C144.819 28.9271 145.441 29.404 146.686 29.404H148.852C148.922 29.404 148.964 29.4839 148.923 29.5417Z" fill="black"/>
<path d="M36.1151 17.4313C35.5628 17.4313 35.1151 16.9835 35.1151 16.4313V7.77809C35.1151 7.28738 35.5129 6.88958 36.0036 6.88958C36.4944 6.88958 36.8922 7.28738 36.8922 7.77809V14.585L42.4652 7.28288C42.6544 7.03502 42.9483 6.88958 43.2601 6.88958H43.4219C43.9742 6.88958 44.4219 7.3373 44.4219 7.88958V16.5503C44.4219 17.0368 44.0275 17.4313 43.5409 17.4313C43.0544 17.4313 42.66 17.0368 42.66 16.5503V9.75089L37.0869 17.0387C36.8977 17.2861 36.604 17.4313 36.2926 17.4313H36.1151Z" stroke="black" stroke-width="0.3" mask="url(#path-4-outside-1_5443_1617)"/>
<path d="M48.1603 17.4313C47.6863 17.4313 47.3019 17.0469 47.3019 16.5729V10.2629C47.3019 9.78884 47.6863 9.40452 48.1603 9.40452C48.6344 9.40452 49.0187 9.78884 49.0187 10.2629V12.7176H53.2505V10.2629C53.2505 9.78884 53.6348 9.40452 54.1089 9.40452C54.5829 9.40452 54.9672 9.78884 54.9672 10.2629V16.5729C54.9672 17.0469 54.5829 17.4313 54.1089 17.4313C53.6348 17.4313 53.2505 17.0469 53.2505 16.5729V14.1935H49.0187V16.5729C49.0187 17.0469 48.6344 17.4313 48.1603 17.4313Z" stroke="black" stroke-width="0.3" mask="url(#path-4-outside-1_5443_1617)"/>
<path d="M63.9438 16.618C63.4655 16.618 63.0779 16.2304 63.0779 15.7521V10.8954H59.8551L59.7949 12.2658C59.7748 12.7477 59.7447 13.2096 59.7045 13.6513C59.6644 14.0931 59.5991 14.4997 59.5088 14.8711C59.4184 15.2326 59.2829 15.5338 59.1021 15.7747C58.9315 16.0056 58.7006 16.1512 58.4094 16.2114L56.5129 16.5256C56.8141 16.5356 57.2548 15.855 57.4456 15.6542C57.6363 15.4434 57.7819 15.1623 57.8823 14.8109C57.9928 14.4495 58.0731 14.0378 58.1233 13.576C58.1735 13.1142 58.2136 12.6373 58.2437 12.1454L58.3122 10.3661C58.3328 9.82916 58.7741 9.40452 59.3114 9.40452H63.8097C64.362 9.40452 64.8097 9.85224 64.8097 10.4045V15.7521C64.8097 16.2304 64.422 16.618 63.9438 16.618ZM57.2122 19.2535C56.7672 19.2535 56.4065 18.8927 56.4065 18.4478V16.9404C56.4065 16.3881 56.8542 15.9404 57.4065 15.9404H64.9994C65.5517 15.9404 65.9994 16.3881 65.9994 16.9404V18.4478C65.9994 18.8927 65.6387 19.2535 65.1937 19.2535C64.7488 19.2535 64.388 18.8927 64.388 18.4478V17.4313H58.0179V18.4478C58.0179 18.8927 57.6571 19.2535 57.2122 19.2535Z" stroke="black" stroke-width="0.3" mask="url(#path-4-outside-1_5443_1617)"/>
<path d="M68.7735 17.4313C68.2212 17.4313 67.7735 16.9835 67.7735 16.4313V10.2629C67.7735 9.78884 68.1578 9.40452 68.6319 9.40452C69.106 9.40452 69.4903 9.78884 69.4903 10.2629V14.8862L73.7837 9.76227C73.9737 9.53551 74.2543 9.40452 74.5502 9.40452H74.6496C75.2019 9.40452 75.6496 9.85224 75.6496 10.4045V16.5729C75.6496 17.0469 75.2653 17.4313 74.7912 17.4313C74.3172 17.4313 73.9328 17.0469 73.9328 16.5729V11.9496L69.6546 17.0723C69.4646 17.2998 69.1834 17.4313 68.887 17.4313H68.7735Z" stroke="black" stroke-width="0.3" mask="url(#path-4-outside-1_5443_1617)"/>
<path d="M79.3034 17.4313C78.7511 17.4313 78.3034 16.9835 78.3034 16.4313V10.4045C78.3034 9.85224 78.7511 9.40452 79.3034 9.40452H82.1586C83.1124 9.40452 83.8654 9.58524 84.4176 9.94667C84.9698 10.3081 85.2458 10.8201 85.2458 11.4827C85.2458 12.1353 84.9848 12.6423 84.4627 13.0038C84.0183 13.3115 83.4573 13.4882 82.78 13.5339C82.6124 13.5452 82.503 13.3692 82.5781 13.219C82.6164 13.1424 82.6948 13.0938 82.7803 13.0954C83.674 13.1122 84.3453 13.2925 84.7941 13.6363C85.2659 13.9876 85.5019 14.5097 85.5019 15.2024C85.5019 15.9052 85.2358 16.4524 84.7037 16.8439C84.1816 17.2355 83.3835 17.4313 82.3092 17.4313H79.3034ZM79.9599 16.1361H82.1586C82.7008 16.1361 83.1074 16.0508 83.3785 15.8801C83.6596 15.7094 83.8001 15.4434 83.8001 15.082C83.8001 14.7105 83.6746 14.4344 83.4236 14.2537C83.1726 14.073 82.7761 13.9826 82.2339 13.9826H79.9599V16.1361ZM79.9599 12.7779H81.993C82.495 12.7779 82.8765 12.6875 83.1375 12.5068C83.3985 12.3261 83.5291 12.065 83.5291 11.7237C83.5291 11.3823 83.3985 11.1313 83.1375 10.9707C82.8765 10.8 82.495 10.7147 81.993 10.7147H79.9599V12.7779Z" stroke="black" stroke-width="0.3" mask="url(#path-4-outside-1_5443_1617)"/>
<path d="M88.6127 17.4313C88.0604 17.4313 87.6127 16.9835 87.6127 16.4313V10.2629C87.6127 9.78884 87.997 9.40452 88.4711 9.40452C88.9451 9.40452 89.3295 9.78884 89.3295 10.2629V14.8862L93.6229 9.76227C93.8129 9.53551 94.0935 9.40452 94.3893 9.40452H94.4888C95.0411 9.40452 95.4888 9.85224 95.4888 10.4045V16.5729C95.4888 17.0469 95.1045 17.4313 94.6304 17.4313C94.1563 17.4313 93.772 17.0469 93.772 16.5729V11.9496L89.4937 17.0723C89.3037 17.2998 89.0226 17.4313 88.7262 17.4313H88.6127Z" stroke="black" stroke-width="0.3" mask="url(#path-4-outside-1_5443_1617)"/>
<path d="M104.475 16.618C103.997 16.618 103.609 16.2304 103.609 15.7521V10.8954H100.386L100.326 12.2658C100.306 12.7477 100.276 13.2096 100.236 13.6513C100.196 14.0931 100.13 14.4997 100.04 14.8711C99.9497 15.2326 99.8142 15.5338 99.6335 15.7747C99.4628 16.0056 99.2319 16.1512 98.9407 16.2114L97.0979 16.5256C97.3991 16.5356 97.7862 15.855 97.9769 15.6542C98.1677 15.4434 98.3132 15.1623 98.4136 14.8109C98.5241 14.4495 98.6044 14.0378 98.6546 13.576C98.7048 13.1142 98.745 12.6373 98.7751 12.1454L98.8435 10.3661C98.8642 9.82916 99.3054 9.40452 99.8428 9.40452H104.341C104.893 9.40452 105.341 9.85224 105.341 10.4045V15.7521C105.341 16.2304 104.953 16.618 104.475 16.618ZM97.7435 19.2535C97.2985 19.2535 96.9378 18.8927 96.9378 18.4478V16.9404C96.9378 16.3881 97.3855 15.9404 97.9378 15.9404H105.531C106.083 15.9404 106.531 16.3881 106.531 16.9404V18.4478C106.531 18.8927 106.17 19.2535 105.725 19.2535C105.28 19.2535 104.919 18.8927 104.919 18.4478V17.4313H98.5492V18.4478C98.5492 18.8927 98.1885 19.2535 97.7435 19.2535Z" stroke="black" stroke-width="0.3" mask="url(#path-4-outside-1_5443_1617)"/>
<path d="M108.892 20.4432C108.501 20.4432 108.114 20.3779 107.733 20.2474C107.546 20.1885 107.374 20.1152 107.216 20.0275C106.933 19.8698 106.879 19.5055 107.036 19.2216L107.101 19.1052C107.291 18.7609 107.761 18.6955 108.124 18.8469C108.375 18.9472 108.626 18.9974 108.877 18.9974C109.218 18.9974 109.5 18.9071 109.72 18.7264C109.941 18.5557 110.147 18.2595 110.338 17.8379L110.77 16.8621C110.793 16.8099 110.821 16.7598 110.852 16.7123L110.905 16.6339C110.938 16.5833 110.967 16.5297 110.991 16.4738L113.829 9.86744C113.949 9.58657 114.226 9.40452 114.531 9.40452C115.082 9.40452 115.452 9.96981 115.232 10.4749L111.889 18.1391C111.648 18.7214 111.377 19.1832 111.076 19.5245C110.775 19.8659 110.443 20.1018 110.082 20.2323C109.72 20.3729 109.324 20.4432 108.892 20.4432ZM110.624 17.7023L107.505 10.5427C107.271 10.0055 107.665 9.40452 108.251 9.40452C108.576 9.40452 108.87 9.59798 108.998 9.89652L111.545 15.8165C111.699 16.1763 111.63 16.5934 111.367 16.8835L110.624 17.7023Z" stroke="black" stroke-width="0.3" mask="url(#path-4-outside-1_5443_1617)"/>
<path d="M122.52 17.4313C122.067 17.4313 121.699 17.0638 121.699 16.6105V15.9086C121.699 15.8197 121.687 15.7313 121.664 15.6455L121.644 15.5726C121.621 15.4868 121.609 15.3984 121.609 15.3095V12.5971C121.609 12.0249 121.438 11.5831 121.097 11.2719C120.755 10.9506 120.243 10.79 119.561 10.79C119.099 10.79 118.647 10.8653 118.205 11.0159C118.072 11.0583 117.945 11.1057 117.825 11.1582C117.417 11.3359 116.893 11.2375 116.681 10.8459C116.518 10.5439 116.593 10.1623 116.892 9.99274C117.197 9.81946 117.534 9.67861 117.904 9.57018C118.497 9.3995 119.114 9.31417 119.757 9.31417C120.891 9.31417 121.769 9.59026 122.392 10.1424C123.024 10.6946 123.341 11.543 123.341 12.6875V16.6105C123.341 17.0638 122.973 17.4313 122.52 17.4313ZM119.154 17.5216C118.552 17.5216 118.025 17.4212 117.573 17.2204C117.121 17.0196 116.77 16.7385 116.519 16.3771C116.278 16.0157 116.157 15.604 116.157 15.1422C116.157 14.6904 116.263 14.2888 116.474 13.9374C116.694 13.576 117.046 13.2899 117.528 13.079C118.01 12.8582 118.652 12.7477 119.455 12.7477H121.865V13.9676H119.546C118.883 13.9676 118.436 14.078 118.205 14.2989C117.974 14.5097 117.859 14.7657 117.859 15.0669C117.859 15.4283 118 15.7145 118.281 15.9253C118.572 16.1261 118.968 16.2265 119.47 16.2265C119.962 16.2265 120.399 16.1211 120.781 15.9102C121.172 15.6894 121.448 15.3681 121.609 14.9464L121.925 16.0759C121.734 16.5377 121.403 16.8941 120.931 17.1451C120.459 17.3961 119.867 17.5216 119.154 17.5216Z" stroke="black" stroke-width="0.3" mask="url(#path-4-outside-1_5443_1617)"/>
<path d="M125.039 17.5216C124.735 17.4647 124.526 17.1878 124.545 16.8797L124.59 16.1682C124.596 16.0616 124.692 15.983 124.798 16.0006C124.858 16.0106 124.913 16.0157 124.963 16.0157C125.285 16.0157 125.536 15.9153 125.716 15.7145C125.897 15.5036 126.028 15.2275 126.108 14.8862C126.188 14.5448 126.243 14.1633 126.274 13.7417C126.314 13.31 126.344 12.8833 126.364 12.4616L126.457 10.3602C126.481 9.8257 126.921 9.40452 127.456 9.40452H131.87C132.422 9.40452 132.87 9.85224 132.87 10.4045V16.5729C132.87 17.0469 132.485 17.4313 132.011 17.4313C131.537 17.4313 131.153 17.0469 131.153 16.5729V10.7664C131.153 10.6462 131.303 10.5913 131.38 10.6832C131.451 10.7671 131.392 10.8954 131.282 10.8954H127.868C127.77 10.8954 127.714 10.7831 127.773 10.7049C127.844 10.6118 127.992 10.6657 127.987 10.7824L127.9 12.552C127.87 13.2547 127.815 13.9123 127.734 14.5248C127.654 15.1372 127.529 15.6743 127.358 16.1361C127.187 16.5879 126.951 16.9393 126.65 17.1903C126.349 17.4413 125.967 17.5668 125.506 17.5668C125.355 17.5668 125.199 17.5517 125.039 17.5216Z" stroke="black" stroke-width="0.3" mask="url(#path-4-outside-1_5443_1617)"/>
<path d="M139.427 12.0701C140.451 12.0801 141.234 12.316 141.776 12.7779C142.319 13.2296 142.59 13.8722 142.59 14.7055C142.59 15.589 142.288 16.2717 141.686 16.7536C141.094 17.2254 140.255 17.4564 139.171 17.4463L136.523 17.4354C135.972 17.4331 135.527 16.9861 135.527 16.4354V10.2629C135.527 9.78884 135.911 9.40452 136.385 9.40452C136.859 9.40452 137.243 9.78884 137.243 10.2629V12.055L139.427 12.0701ZM139.021 16.1512C139.613 16.1612 140.06 16.0408 140.361 15.7898C140.672 15.5388 140.828 15.1723 140.828 14.6904C140.828 14.2085 140.677 13.8621 140.376 13.6513C140.075 13.4304 139.623 13.315 139.021 13.3049L137.243 13.2899V16.1361L139.021 16.1512Z" stroke="black" stroke-width="0.3" mask="url(#path-4-outside-1_5443_1617)"/>
<path d="M145.18 17.4313C144.706 17.4313 144.321 17.0469 144.321 16.5729V10.2629C144.321 9.78884 144.706 9.40452 145.18 9.40452C145.654 9.40452 146.038 9.78884 146.038 10.2629V12.7176H150.27V10.2629C150.27 9.78884 150.654 9.40452 151.128 9.40452C151.602 9.40452 151.987 9.78884 151.987 10.2629V16.5729C151.987 17.0469 151.602 17.4313 151.128 17.4313C150.654 17.4313 150.27 17.0469 150.27 16.5729V14.1935H146.038V16.5729C146.038 17.0469 145.654 17.4313 145.18 17.4313Z" stroke="black" stroke-width="0.3" mask="url(#path-4-outside-1_5443_1617)"/>
<path d="M163.516 17.4313C163.042 17.4313 162.657 17.0469 162.657 16.5729V10.2629C162.657 9.78884 163.042 9.40452 163.516 9.40452C163.99 9.40452 164.374 9.78884 164.374 10.2629V16.5729C164.374 17.0469 163.99 17.4313 163.516 17.4313ZM158.41 12.0701C159.435 12.0801 160.213 12.316 160.745 12.7779C161.287 13.2296 161.558 13.8722 161.558 14.7055C161.558 15.589 161.262 16.2717 160.669 16.7536C160.077 17.2254 159.239 17.4564 158.154 17.4463L155.626 17.4355C155.076 17.4332 154.631 16.9861 154.631 16.4355V10.2629C154.631 9.78884 155.015 9.40452 155.489 9.40452C155.963 9.40452 156.347 9.78884 156.347 10.2629V12.055L158.41 12.0701ZM158.004 16.1512C158.596 16.1612 159.043 16.0408 159.344 15.7898C159.655 15.5388 159.811 15.1723 159.811 14.6904C159.811 14.2085 159.66 13.8621 159.359 13.6513C159.058 13.4304 158.606 13.315 158.004 13.3049L156.347 13.2899V16.1361L158.004 16.1512Z" stroke="black" stroke-width="0.3" mask="url(#path-4-outside-1_5443_1617)"/>
<path d="M168.028 17.4313C167.476 17.4313 167.028 16.9835 167.028 16.4313V10.2629C167.028 9.78884 167.412 9.40452 167.887 9.40452C168.361 9.40452 168.745 9.78884 168.745 10.2629V14.8862L173.038 9.76227C173.228 9.53551 173.509 9.40452 173.805 9.40452H173.904C174.457 9.40452 174.904 9.85224 174.904 10.4045V16.5729C174.904 17.0469 174.52 17.4313 174.046 17.4313C173.572 17.4313 173.188 17.0469 173.188 16.5729V11.9496L168.909 17.0723C168.719 17.2998 168.438 17.4313 168.142 17.4313H168.028ZM170.853 8.42565C170.08 8.42565 169.478 8.24494 169.046 7.88351C168.747 7.62035 168.552 7.27153 168.46 6.83705C168.393 6.52283 168.661 6.25708 168.983 6.25708C169.295 6.25708 169.531 6.51681 169.656 6.80263C169.712 6.93212 169.79 7.04644 169.889 7.14559C170.12 7.35643 170.437 7.46184 170.838 7.46184C171.24 7.46184 171.556 7.35643 171.787 7.14559C171.886 7.05129 171.964 6.94327 172.022 6.82152C172.162 6.52906 172.407 6.25708 172.731 6.25708C173.065 6.25708 173.344 6.53375 173.271 6.85937C173.174 7.28349 172.976 7.62487 172.675 7.88351C172.244 8.24494 171.636 8.42565 170.853 8.42565Z" stroke="black" stroke-width="0.3" mask="url(#path-4-outside-1_5443_1617)"/>
<path d="M35.7627 33.0785C35.2886 33.0785 34.9043 32.6942 34.9043 32.2201V26.0518C34.9043 25.4995 35.352 25.0518 35.9043 25.0518H41.4943C42.0466 25.0518 42.4943 25.4995 42.4943 26.0518V32.2201C42.4943 32.6942 42.11 33.0785 41.6359 33.0785C41.1618 33.0785 40.7775 32.6942 40.7775 32.2201V26.4258C40.7775 26.3207 40.9056 26.2691 40.9785 26.3448C41.05 26.419 40.9974 26.5427 40.8944 26.5427H36.502C36.3959 26.5427 36.3428 26.4144 36.4178 26.3394C36.4928 26.2643 36.6211 26.3175 36.6211 26.4236V32.2201C36.6211 32.6942 36.2368 33.0785 35.7627 33.0785Z" stroke="black" stroke-width="0.3" mask="url(#path-4-outside-1_5443_1617)"/>
<path d="M44.4172 33.1689C44.1138 33.112 43.9044 32.835 43.9237 32.527L43.9681 31.8154C43.9748 31.7089 44.071 31.6303 44.1763 31.6479C44.2365 31.6579 44.2917 31.6629 44.3419 31.6629C44.6632 31.6629 44.9142 31.5625 45.0949 31.3617C45.2756 31.1509 45.4061 30.8748 45.4864 30.5335C45.5668 30.1921 45.622 29.8106 45.6521 29.3889C45.6923 28.9572 45.7224 28.5305 45.7425 28.1089L45.8356 26.0075C45.8593 25.473 46.2996 25.0518 46.8346 25.0518H51.2482C51.8005 25.0518 52.2482 25.4995 52.2482 26.0518V32.2201C52.2482 32.6942 51.8639 33.0785 51.3898 33.0785C50.9157 33.0785 50.5314 32.6942 50.5314 32.2201V26.4137C50.5314 26.2934 50.6814 26.2386 50.759 26.3305C50.8297 26.4144 50.7701 26.5427 50.6604 26.5427H47.2465C47.1483 26.5427 47.0925 26.4304 47.1518 26.3521C47.2224 26.259 47.3709 26.313 47.3651 26.4297L47.2785 28.1992C47.2484 28.902 47.1932 29.5596 47.1129 30.172C47.0326 30.7844 46.9071 31.3216 46.7364 31.7834C46.5657 32.2352 46.3298 32.5866 46.0286 32.8376C45.7274 33.0886 45.3459 33.2141 44.8841 33.2141C44.7335 33.2141 44.5779 33.199 44.4172 33.1689Z" stroke="black" stroke-width="0.3" mask="url(#path-4-outside-1_5443_1617)"/>
<path d="M60.6053 33.0785C60.152 33.0785 59.7845 32.7111 59.7845 32.2578V31.5559C59.7845 31.467 59.7727 31.3785 59.7493 31.2928L59.7294 31.2199C59.706 31.1341 59.6942 31.0456 59.6942 30.9567V28.2444C59.6942 27.6721 59.5235 27.2304 59.1821 26.9192C58.8408 26.5979 58.3288 26.4373 57.6461 26.4373C57.1843 26.4373 56.7325 26.5126 56.2907 26.6632C56.1575 26.7056 56.0306 26.753 55.9101 26.8054C55.5019 26.9832 54.9784 26.8847 54.7665 26.4931C54.603 26.1912 54.6784 25.8096 54.9769 25.64C55.282 25.4667 55.6196 25.3259 55.9895 25.2174C56.5819 25.0468 57.1993 24.9614 57.8419 24.9614C58.9763 24.9614 59.8548 25.2375 60.4773 25.7897C61.1098 26.3419 61.426 27.1902 61.426 28.3348V32.2578C61.426 32.7111 61.0586 33.0785 60.6053 33.0785ZM57.2395 33.1689C56.6371 33.1689 56.11 33.0685 55.6582 32.8677C55.2064 32.6669 54.855 32.3858 54.6041 32.0243C54.3631 31.6629 54.2426 31.2513 54.2426 30.7895C54.2426 30.3377 54.348 29.9361 54.5589 29.5847C54.7797 29.2233 55.1311 28.9371 55.613 28.7263C56.0949 28.5054 56.7375 28.395 57.5407 28.395H59.9502V29.6148H57.631C56.9684 29.6148 56.5216 29.7253 56.2907 29.9461C56.0598 30.157 55.9443 30.413 55.9443 30.7142C55.9443 31.0756 56.0849 31.3617 56.366 31.5726C56.6572 31.7734 57.0537 31.8738 57.5557 31.8738C58.0477 31.8738 58.4844 31.7683 58.8659 31.5575C59.2574 31.3366 59.5335 31.0154 59.6942 30.5937L60.0104 31.7232C59.8197 32.185 59.4884 32.5414 59.0165 32.7924C58.5446 33.0434 57.9523 33.1689 57.2395 33.1689Z" stroke="black" stroke-width="0.3" mask="url(#path-4-outside-1_5443_1617)"/>
<path d="M64.7052 33.0785C64.2312 33.0785 63.8468 32.6942 63.8468 32.2201V25.9102C63.8468 25.4361 64.2312 25.0518 64.7052 25.0518C65.1793 25.0518 65.5636 25.4361 65.5636 25.9102V28.3649H69.7954V25.9102C69.7954 25.4361 70.1797 25.0518 70.6537 25.0518C71.1278 25.0518 71.5121 25.4361 71.5121 25.9102V32.2201C71.5121 32.6942 71.1278 33.0785 70.6537 33.0785C70.1797 33.0785 69.7954 32.6942 69.7954 32.2201V29.8407H65.5636V32.2201C65.5636 32.6942 65.1793 33.0785 64.7052 33.0785Z" stroke="black" stroke-width="0.3" mask="url(#path-4-outside-1_5443_1617)"/>
<path d="M82.6262 33.1689C81.9636 33.1689 81.3612 33.0233 80.819 32.7321C80.2769 32.431 79.8452 31.9792 79.5239 31.3768C79.2027 30.7644 79.042 29.9963 79.042 29.0727C79.042 28.139 79.1976 27.371 79.5089 26.7686C79.8201 26.1561 80.2468 25.7044 80.7889 25.4132C81.3311 25.112 81.9435 24.9614 82.6262 24.9614C83.4093 24.9614 84.107 25.1321 84.7195 25.4734C85.3319 25.8148 85.8138 26.2967 86.1652 26.9192C86.5166 27.5316 86.6923 28.2494 86.6923 29.0727C86.6923 29.8959 86.5166 30.6138 86.1652 31.2262C85.8138 31.8386 85.3319 32.3155 84.7195 32.6568C84.107 32.9982 83.4093 33.1689 82.6262 33.1689ZM79.1324 36.0001C78.6583 36.0001 78.274 35.6157 78.274 35.1417V25.8725C78.274 25.4192 78.6414 25.0518 79.0947 25.0518C79.548 25.0518 79.9155 25.4192 79.9155 25.8725V27.0396L79.8402 29.0877L79.9908 31.1208V35.1417C79.9908 35.6157 79.6065 36.0001 79.1324 36.0001ZM82.4605 31.678C82.9324 31.678 83.3541 31.5726 83.7255 31.3617C84.107 31.1509 84.4082 30.8497 84.6291 30.4582C84.85 30.0566 84.9604 29.5947 84.9604 29.0727C84.9604 28.5305 84.85 28.0687 84.6291 27.6872C84.4082 27.2957 84.107 26.9945 83.7255 26.7836C83.3541 26.5628 82.9324 26.4523 82.4605 26.4523C81.9887 26.4523 81.562 26.5628 81.1805 26.7836C80.809 26.9945 80.5128 27.2957 80.292 27.6872C80.0711 28.0687 79.9607 28.5305 79.9607 29.0727C79.9607 29.5947 80.0711 30.0566 80.292 30.4582C80.5128 30.8497 80.809 31.1509 81.1805 31.3617C81.562 31.5726 81.9887 31.678 82.4605 31.678Z" stroke="black" stroke-width="0.3" mask="url(#path-4-outside-1_5443_1617)"/>
<path d="M94.2686 33.0785C93.8153 33.0785 93.4479 32.7111 93.4479 32.2578V31.5559C93.4479 31.467 93.436 31.3785 93.4126 31.2928L93.3928 31.2199C93.3694 31.1341 93.3575 31.0456 93.3575 30.9567V28.2444C93.3575 27.6721 93.1869 27.2304 92.8455 26.9192C92.5042 26.5979 91.9921 26.4373 91.3094 26.4373C90.8476 26.4373 90.3958 26.5126 89.9541 26.6632C89.8208 26.7056 89.6939 26.753 89.5735 26.8054C89.1652 26.9832 88.6417 26.8847 88.4298 26.4931C88.2664 26.1912 88.3417 25.8096 88.6403 25.64C88.9454 25.4667 89.2829 25.3259 89.6529 25.2174C90.2452 25.0468 90.8627 24.9614 91.5052 24.9614C92.6397 24.9614 93.5182 25.2375 94.1406 25.7897C94.7731 26.3419 95.0894 27.1902 95.0894 28.3348V32.2578C95.0894 32.7111 94.7219 33.0785 94.2686 33.0785ZM90.9028 33.1689C90.3004 33.1689 89.7734 33.0685 89.3216 32.8677C88.8698 32.6669 88.5184 32.3858 88.2674 32.0243C88.0264 31.6629 87.906 31.2513 87.906 30.7895C87.906 30.3377 88.0114 29.9361 88.2222 29.5847C88.4431 29.2233 88.7945 28.9371 89.2764 28.7263C89.7583 28.5054 90.4008 28.395 91.204 28.395H93.6135V29.6148H91.2944C90.6317 29.6148 90.185 29.7253 89.9541 29.9461C89.7232 30.157 89.6077 30.413 89.6077 30.7142C89.6077 31.0756 89.7483 31.3617 90.0294 31.5726C90.3205 31.7734 90.7171 31.8738 91.2191 31.8738C91.711 31.8738 92.1477 31.7683 92.5293 31.5575C92.9208 31.3366 93.1969 31.0154 93.3575 30.5937L93.6738 31.7232C93.483 32.185 93.1517 32.5414 92.6798 32.7924C92.208 33.0434 91.6156 33.1689 90.9028 33.1689Z" stroke="black" stroke-width="0.3" mask="url(#path-4-outside-1_5443_1617)"/>
<path d="M99.8623 33.199C99.2398 33.199 98.6324 33.1287 98.0401 32.9882C97.663 32.8906 97.309 32.7657 96.9782 32.6135C96.6698 32.4715 96.5466 32.1092 96.667 31.7918C96.819 31.3912 97.2927 31.222 97.6935 31.3732C97.8767 31.4423 98.0675 31.5037 98.266 31.5575C98.7579 31.688 99.2549 31.7533 99.7569 31.7533C100.199 31.7533 100.575 31.7081 100.886 31.6177C101.208 31.5173 101.449 31.3818 101.609 31.2111C101.78 31.0304 101.865 30.8196 101.865 30.5786C101.865 30.2473 101.72 29.9963 101.428 29.8257C101.137 29.6449 100.721 29.5546 100.179 29.5546H99.2599C98.9272 29.5546 98.6575 29.2849 98.6575 28.9522C98.6575 28.6195 98.9272 28.3498 99.2599 28.3498H100.043C100.384 28.3498 100.67 28.3147 100.901 28.2444C101.142 28.1641 101.323 28.0536 101.444 27.9131C101.574 27.7625 101.639 27.5868 101.639 27.386C101.639 27.1852 101.564 27.0095 101.413 26.8589C101.263 26.6983 101.047 26.5828 100.766 26.5126C100.485 26.4322 100.143 26.3921 99.7418 26.3921C99.3402 26.3921 98.9286 26.4423 98.5069 26.5427C98.3119 26.5891 98.1148 26.6452 97.9155 26.7109C97.5294 26.8383 97.0988 26.6515 96.9662 26.2672C96.8492 25.9278 97.0074 25.5518 97.3427 25.4234C97.641 25.3092 97.9337 25.2154 98.2208 25.1421C98.6927 25.0116 99.1696 24.9413 99.6515 24.9313C100.374 24.9012 101.017 24.9815 101.579 25.1723C102.151 25.353 102.598 25.614 102.919 25.9554C103.241 26.2867 103.401 26.6832 103.401 27.1451C103.401 27.5266 103.281 27.8679 103.04 28.1691C102.809 28.4703 102.488 28.7062 102.076 28.8769C101.732 29.0231 101.344 29.1067 100.911 29.1277C100.796 29.1333 100.707 29.0293 100.725 28.9149C100.74 28.8236 100.819 28.7561 100.911 28.7584C101.729 28.7784 102.378 28.9534 102.859 29.2835C103.371 29.6349 103.627 30.1168 103.627 30.7292C103.627 31.2111 103.467 31.6378 103.145 32.0093C102.824 32.3808 102.377 32.6719 101.805 32.8827C101.243 33.0936 100.595 33.199 99.8623 33.199Z" stroke="black" stroke-width="0.3" mask="url(#path-4-outside-1_5443_1617)"/>
<path d="M106.672 33.0785C106.12 33.0785 105.672 32.6308 105.672 32.0785V26.0518C105.672 25.4995 106.12 25.0518 106.672 25.0518H109.528C110.481 25.0518 111.234 25.2325 111.787 25.5939C112.339 25.9554 112.615 26.4674 112.615 27.13C112.615 27.7826 112.354 28.2896 111.832 28.651C111.387 28.9587 110.826 29.1355 110.149 29.1812C109.981 29.1925 109.872 29.0164 109.947 28.8662C109.985 28.7897 110.064 28.7411 110.149 28.7427C111.043 28.7595 111.714 28.9398 112.163 29.2835C112.635 29.6349 112.871 30.157 112.871 30.8497C112.871 31.5525 112.605 32.0996 112.073 32.4912C111.551 32.8827 110.752 33.0785 109.678 33.0785H106.672ZM107.329 31.7834H109.528C110.07 31.7834 110.476 31.6981 110.747 31.5274C111.029 31.3567 111.169 31.0907 111.169 30.7292C111.169 30.3578 111.044 30.0817 110.793 29.901C110.542 29.7202 110.145 29.6299 109.603 29.6299H107.329V31.7834ZM107.329 28.4251H109.362C109.864 28.4251 110.245 28.3348 110.506 28.154C110.767 27.9733 110.898 27.7123 110.898 27.371C110.898 27.0296 110.767 26.7786 110.506 26.618C110.245 26.4473 109.864 26.362 109.362 26.362H107.329V28.4251Z" stroke="black" stroke-width="0.3" mask="url(#path-4-outside-1_5443_1617)"/>
<path d="M115.982 33.0785C115.429 33.0785 114.982 32.6308 114.982 32.0785V25.9102C114.982 25.4361 115.366 25.0518 115.84 25.0518C116.314 25.0518 116.698 25.4361 116.698 25.9102V30.5335L120.992 25.4095C121.182 25.1828 121.462 25.0518 121.758 25.0518H121.858C122.41 25.0518 122.858 25.4995 122.858 26.0518V32.2201C122.858 32.6942 122.473 33.0785 121.999 33.0785C121.525 33.0785 121.141 32.6942 121.141 32.2201V27.5968L116.863 32.7195C116.673 32.947 116.392 33.0785 116.095 33.0785H115.982Z" stroke="black" stroke-width="0.3" mask="url(#path-4-outside-1_5443_1617)"/>
<path d="M128.004 33.0785C127.526 33.0785 127.138 32.6908 127.138 32.2126V26.4214C127.138 26.3123 127.271 26.2587 127.346 26.3373C127.421 26.4143 127.366 26.5427 127.259 26.5427H125.022C124.61 26.5427 124.277 26.2089 124.277 25.7972C124.277 25.3855 124.61 25.0518 125.022 25.0518H130.986C131.397 25.0518 131.731 25.3855 131.731 25.7972C131.731 26.2089 131.397 26.5427 130.986 26.5427H128.749C128.642 26.5427 128.587 26.4143 128.661 26.3373C128.737 26.2587 128.87 26.3123 128.87 26.4214V32.2126C128.87 32.6908 128.482 33.0785 128.004 33.0785Z" stroke="black" stroke-width="0.3" mask="url(#path-4-outside-1_5443_1617)"/>
<path d="M134.144 33.0785C133.592 33.0785 133.144 32.6308 133.144 32.0785V25.9102C133.144 25.4361 133.529 25.0518 134.003 25.0518C134.477 25.0518 134.861 25.4361 134.861 25.9102V30.5335L139.154 25.4095C139.344 25.1828 139.625 25.0518 139.921 25.0518H140.02C140.573 25.0518 141.02 25.4995 141.02 26.0518V32.2201C141.02 32.6942 140.636 33.0785 140.162 33.0785C139.688 33.0785 139.304 32.6942 139.304 32.2201V27.5968L135.025 32.7195C134.835 32.947 134.554 33.0785 134.258 33.0785H134.144Z" stroke="black" stroke-width="0.3" mask="url(#path-4-outside-1_5443_1617)"/>
<path d="M149.489 33.0785C149.089 33.0785 148.764 32.7541 148.764 32.354V30.5411C148.764 30.4632 148.862 30.4285 148.911 30.4891C148.955 30.5432 148.916 30.6238 148.847 30.6238H146.566C145.471 30.6238 144.613 30.3929 143.99 29.9311C143.378 29.4692 143.072 28.7966 143.072 27.9131C143.072 26.9794 143.398 26.2716 144.051 25.7897C144.713 25.2978 145.597 25.0518 146.701 25.0518H149.315C149.868 25.0518 150.315 25.4995 150.315 26.0518V32.3029C150.315 32.7313 149.968 33.0785 149.54 33.0785H149.489ZM144.425 33.0785C143.82 33.0785 143.466 32.3948 143.817 31.9008L145.15 30.0214H146.912L145.041 32.754C144.902 32.9571 144.671 33.0785 144.425 33.0785ZM148.923 29.5417C148.874 29.6111 148.764 29.5763 148.764 29.4913V26.4334C148.764 26.3365 148.893 26.3026 148.941 26.3869C148.976 26.4497 148.931 26.5276 148.859 26.5276H146.746C146.134 26.5276 145.657 26.6431 145.316 26.874C144.984 27.0949 144.819 27.4613 144.819 27.9733C144.819 28.9271 145.441 29.404 146.686 29.404H148.852C148.922 29.404 148.964 29.4839 148.923 29.5417Z" stroke="black" stroke-width="0.3" mask="url(#path-4-outside-1_5443_1617)"/>
</svg>
