<svg width="174" height="40" viewBox="0 0 174 40" fill="none" xmlns="http://www.w3.org/2000/svg">
<path fill-rule="evenodd" clip-rule="evenodd" d="M47.5731 7.15483C47.147 7.44194 47.1456 7.46033 47.1723 12.3011C47.1897 15.4455 47.22 16.7233 47.2816 16.9084C47.5012 17.5688 47.9889 17.9479 48.7022 18.0125C49.4714 18.0823 49.9476 17.7774 49.9476 17.2152C49.9476 16.8387 49.8114 16.6809 49.3974 16.5783C49.1135 16.508 49.0962 16.4887 49.0508 16.1892C49.0245 16.0159 49.0006 14.0179 48.9977 11.7493C48.9919 7.17237 49.0041 7.29329 48.5302 7.09525C48.1832 6.95028 47.8454 6.9713 47.5731 7.15483ZM92.9518 7.0983C92.526 7.28345 92.505 7.40288 92.505 9.64438C92.505 10.8716 92.4787 11.6644 92.4379 11.6644C92.401 11.6644 92.2878 11.5556 92.1864 11.4227C91.7431 10.8415 90.7558 10.3898 89.934 10.392C87.9845 10.3975 86.574 11.5582 86.2355 13.4351C85.8245 15.7151 86.9739 17.6388 89.0028 18.0666C90.3381 18.3482 91.4646 18.0144 92.2043 17.1177C92.4935 16.7671 92.505 16.7608 92.5055 16.9505C92.5061 17.2799 92.6371 17.6447 92.8144 17.8114C93.0198 18.0043 93.5781 18.032 93.9006 17.8652C94.316 17.6504 94.3092 17.7405 94.3092 12.4426C94.3092 8.56973 94.2905 7.56335 94.2162 7.4331C93.9949 7.04509 93.4226 6.89347 92.9518 7.0983ZM118.989 7.0983C118.563 7.28345 118.542 7.40288 118.542 9.64438C118.542 10.8716 118.515 11.6644 118.475 11.6644C118.438 11.6644 118.325 11.5556 118.223 11.4227C117.78 10.8415 116.793 10.3898 115.971 10.392C114.021 10.3975 112.611 11.5582 112.272 13.4351C111.861 15.7151 113.011 17.6388 115.04 18.0666C116.375 18.3482 117.501 18.0144 118.241 17.1177C118.53 16.7671 118.542 16.7608 118.542 16.9505C118.543 17.2799 118.674 17.6447 118.851 17.8114C119.057 18.0043 119.615 18.032 119.937 17.8652C120.353 17.6504 120.346 17.7405 120.346 12.4426C120.346 8.56973 120.327 7.56335 120.253 7.4331C120.032 7.04509 119.459 6.89347 118.989 7.0983ZM140.639 7.13268C140.211 7.39362 140.227 7.19367 140.227 12.0889C140.227 15.4769 140.249 16.6529 140.316 16.8716C140.524 17.5569 141.011 17.9463 141.741 18.0125C142.51 18.0823 142.987 17.7774 142.987 17.2152C142.987 16.8386 142.85 16.6809 142.436 16.5784C142.145 16.5063 142.136 16.4956 142.091 16.1539C142.065 15.9611 142.041 13.9631 142.038 11.7139C142.031 7.17634 142.043 7.29308 141.569 7.09525C141.237 6.95658 140.906 6.96988 140.639 7.13268ZM73.9998 7.58953C73.6326 7.7495 73.4019 8.08861 73.4022 8.46827C73.4027 9.08289 73.8021 9.49828 74.3925 9.49828C75.018 9.49828 75.4105 9.06506 75.3634 8.42688C75.3108 7.71533 74.647 7.30765 73.9998 7.58953ZM96.7792 7.62377C96.4161 7.84523 96.2549 8.1063 96.2552 8.47237C96.2557 9.08268 96.6568 9.49828 97.2454 9.49828C97.6349 9.49828 97.8946 9.35472 98.1017 9.02502C98.2998 8.70975 98.2575 8.12845 98.0178 7.87183C97.6498 7.47788 97.1746 7.38265 96.7792 7.62377ZM109.164 7.58953C108.796 7.7495 108.566 8.08861 108.566 8.46827C108.567 9.08289 108.966 9.49828 109.556 9.49828C110.182 9.49828 110.574 9.06506 110.527 8.42688C110.475 7.71533 109.811 7.30765 109.164 7.58953ZM37.4822 7.73202C37.3582 7.78763 37.199 7.9389 37.1284 8.06838C37.0081 8.2887 37 8.59138 37 12.8318C37 17.0737 37.0081 17.3748 37.1285 17.5954C37.4745 18.2294 38.6149 18.1395 38.8533 17.4594C38.9061 17.3087 38.9392 16.7371 38.9417 15.9342L38.9457 14.6501L40.7322 14.6167C42.1298 14.5906 42.6102 14.557 42.9394 14.4623C44.1681 14.1088 44.9827 13.3174 45.2757 12.1925C45.4148 11.6583 45.4148 10.6092 45.2757 10.0749C44.9829 8.9508 44.1733 8.16368 42.9394 7.80327C42.3527 7.63198 37.837 7.57304 37.4822 7.73202ZM42.279 9.39342C42.6927 9.52113 43.0865 9.85232 43.2663 10.2238C43.499 10.7044 43.4969 11.5526 43.2618 12.0437C43.0824 12.4183 42.695 12.7456 42.279 12.874C42.1384 12.9174 41.3309 12.9693 40.4845 12.9893L38.9457 13.0258V11.1337V9.24166L40.4845 9.2781C41.3309 9.29812 42.1384 9.34998 42.279 9.39342ZM53.8203 10.492C52.5143 10.7409 51.8933 11.0614 51.8933 11.4867C51.8933 11.7025 52.0086 11.9448 52.1702 12.0689C52.3396 12.199 52.8613 12.1766 53.4147 12.0155C54.0561 11.8288 55.2414 11.7542 55.6682 11.8737C56.0564 11.9824 56.3413 12.2666 56.4254 12.6293C56.5629 13.2216 56.6337 13.1848 55.3423 13.1913C54.0473 13.1978 53.4127 13.3048 52.7049 13.636C51.7646 14.0761 51.3064 14.745 51.3009 15.6863C51.2972 16.3319 51.3919 16.6889 51.6842 17.1301C52.1419 17.8213 52.909 18.1384 54.122 18.1378C54.8257 18.1375 54.941 18.1185 55.3248 17.9394C55.7766 17.7287 56.1427 17.4234 56.3591 17.0769L56.4917 16.8646L56.4922 17.1476C56.493 17.564 56.7057 17.8664 57.0663 17.9635C57.6321 18.1158 58.1213 17.8895 58.2654 17.4086C58.3186 17.2309 58.3348 16.4059 58.3157 14.8476C58.2896 12.7181 58.2761 12.5144 58.1331 12.0816C57.8723 11.2923 57.33 10.7978 56.4568 10.5531C55.9388 10.4079 54.4432 10.3733 53.8203 10.492ZM63.4462 10.4935C62.9672 10.6431 62.528 10.9367 62.2623 11.2847L62.015 11.6086L61.9657 11.3008C61.8914 10.836 61.6237 10.6031 61.1638 10.6031C60.7276 10.6031 60.4468 10.735 60.3089 11.0046C60.1631 11.2897 60.1204 16.9185 60.2605 17.3944C60.4226 17.9454 60.9695 18.1735 61.5486 17.9315C61.9715 17.7548 61.991 17.6513 62.0291 15.3788C62.0656 13.1975 62.1062 12.9049 62.4382 12.4387C62.5304 12.3092 62.7644 12.1367 62.9846 12.0359C63.3233 11.8809 63.4413 11.8634 63.9649 11.8909C64.4814 11.918 64.5993 11.9496 64.8559 12.13C65.2124 12.3805 65.4551 12.8247 65.549 13.3988C65.5872 13.6318 65.6187 14.6342 65.6191 15.6265C65.6197 17.28 65.6311 17.4493 65.7555 17.6533C66.0264 18.0976 66.8323 18.1564 67.1884 17.7579C67.4539 17.4609 67.4781 17.1925 67.4423 14.941C67.4147 13.2014 67.3943 12.9223 67.2663 12.5336C66.8773 11.3528 66.1184 10.6904 64.8867 10.4568C64.4096 10.3663 63.8036 10.3818 63.4462 10.4935ZM80.5682 10.4935C80.0892 10.6431 79.65 10.9367 79.3843 11.2847L79.137 11.6086L79.0877 11.3008C79.0134 10.836 78.7457 10.6031 78.2858 10.6031C77.8283 10.6031 77.5528 10.7439 77.4271 11.0419C77.2869 11.3744 77.2819 17.3486 77.4217 17.5937C77.6434 17.9824 78.1929 18.1311 78.6706 17.9315C79.0958 17.7538 79.1141 17.6554 79.1497 15.3435C79.176 13.6423 79.2033 13.1998 79.2975 12.9509C79.4812 12.4651 79.6934 12.2251 80.1066 12.0359C80.4453 11.8809 80.5634 11.8634 81.0869 11.8909C81.6034 11.918 81.7213 11.9496 81.9779 12.13C82.3344 12.3805 82.5771 12.8247 82.6711 13.3988C82.7092 13.6318 82.7407 14.6342 82.7411 15.6265C82.7417 17.28 82.7531 17.4493 82.8775 17.6533C83.0405 17.9207 83.4183 18.0642 83.8177 18.0107C84.16 17.9648 84.4156 17.7394 84.5098 17.4005C84.62 17.0037 84.5944 13.6431 84.476 12.979C84.2251 11.5706 83.3922 10.7192 82.0087 10.4568C81.5316 10.3663 80.9256 10.3818 80.5682 10.4935ZM134.178 10.4397C132.7 10.6872 131.556 11.7544 131.199 13.2209C131.077 13.7229 131.077 14.8452 131.2 15.3435C131.527 16.6696 132.411 17.6314 133.647 18.0074C134.26 18.1936 135.775 18.1765 136.524 17.9749C137.176 17.7993 137.736 17.526 137.888 17.3101C138.058 17.0668 138.029 16.6706 137.825 16.4505C137.592 16.1986 137.297 16.2063 136.486 16.4854C135.941 16.6729 135.731 16.7086 135.133 16.7146C134.555 16.7204 134.367 16.6948 134.107 16.5744C133.484 16.2861 133.121 15.8485 133.009 15.2517L132.959 14.9897H135.411C138.064 14.9897 138.223 14.9698 138.459 14.6092C138.641 14.3318 138.663 13.9309 138.532 13.2826C138.234 11.8116 137.254 10.7975 135.84 10.4979C135.377 10.4 134.582 10.3721 134.178 10.4397ZM73.8888 10.7094C73.4828 10.9301 73.4727 11.0163 73.4727 14.2774C73.4727 17.4411 73.4833 17.5514 73.8138 17.8458C74.0265 18.0352 74.5268 18.0757 74.8369 17.9285C75.3113 17.7034 75.3123 17.6957 75.3123 14.3223C75.3123 11.0082 75.3025 10.9237 74.8968 10.7139C74.6323 10.5771 74.1364 10.5749 73.8888 10.7094ZM96.7417 10.7094C96.3357 10.9301 96.3256 11.0163 96.3256 14.2774C96.3256 17.4411 96.3362 17.5514 96.6667 17.8458C96.8794 18.0352 97.3797 18.0757 97.6898 17.9285C98.1642 17.7034 98.1652 17.6957 98.1652 14.3223C98.1652 11.0082 98.1554 10.9237 97.7498 10.7139C97.4853 10.5771 96.9893 10.5749 96.7417 10.7094ZM100.252 10.6699C99.9512 10.7933 99.8276 11.021 99.8334 11.442C99.8382 11.794 99.9744 12.1592 100.984 14.5274C101.614 16.0049 102.206 17.3303 102.3 17.4728C102.675 18.0391 103.565 18.1991 104.158 17.8067C104.517 17.5693 104.618 17.3694 105.888 14.3883C106.871 12.0804 106.973 11.8025 106.973 11.4286C106.974 11.0517 106.954 10.9981 106.743 10.8095C106.552 10.6388 106.449 10.6031 106.152 10.6031C105.546 10.6031 105.467 10.7269 104.483 13.2209C104.015 14.4078 103.589 15.4982 103.538 15.6441C103.486 15.79 103.42 15.8855 103.392 15.8563C103.345 15.8077 103.036 15.0376 102.018 12.4305C101.547 11.2229 101.402 10.9379 101.165 10.7513C100.968 10.5967 100.527 10.5574 100.252 10.6699ZM109.078 10.6968C108.667 10.9251 108.674 10.8704 108.65 14.1407C108.636 16.0889 108.654 17.2363 108.702 17.3995C108.859 17.9363 109.465 18.1829 110.001 17.9285C110.475 17.7034 110.476 17.6957 110.476 14.3223C110.476 11.0082 110.466 10.9237 110.061 10.7139C109.805 10.5818 109.301 10.573 109.078 10.6968ZM122.668 10.741C122.26 10.9895 122.256 11.0136 122.256 13.2917C122.256 14.8285 122.282 15.4814 122.354 15.768C122.725 17.2501 123.643 18.0149 125.211 18.1476C126.179 18.2294 126.973 17.9096 127.455 17.2446C127.587 17.0624 127.677 16.9894 127.695 17.0503C127.711 17.1038 127.76 17.2828 127.805 17.4479C127.905 17.817 128.146 17.9613 128.663 17.9613C128.975 17.9613 129.055 17.9315 129.223 17.7516C129.331 17.6362 129.439 17.4412 129.464 17.3182C129.538 16.9473 129.514 11.5117 129.437 11.2346C129.297 10.7281 128.767 10.4864 128.205 10.6719C127.717 10.833 127.708 10.8748 127.669 13.2529L127.633 15.3788L127.421 15.8034C127.107 16.4327 126.782 16.6332 126.015 16.6735C125.491 16.701 125.373 16.6835 125.034 16.5284C124.814 16.4277 124.58 16.2552 124.488 16.1257C124.152 15.6542 124.112 15.3672 124.078 13.2209C124.042 10.986 124.022 10.8808 123.598 10.7036C123.266 10.5649 122.935 10.5782 122.668 10.741ZM135.743 11.9991C136.3 12.2451 136.703 12.7753 136.821 13.4155L136.863 13.6454H134.914H132.964L133.01 13.4155C133.093 13.0055 133.405 12.446 133.659 12.2523C134.246 11.8046 135.076 11.7038 135.743 11.9991ZM91.2717 12.0706C91.5899 12.2359 92.01 12.667 92.1876 13.0105C92.5057 13.6255 92.5279 14.7745 92.2346 15.4376C92.0585 15.8357 91.6346 16.3059 91.2962 16.4785C90.4418 16.9145 89.2279 16.7078 88.6448 16.0271C88.179 15.4831 88.0878 15.1976 88.0878 14.2822C88.0878 13.5757 88.1096 13.4227 88.2532 13.1205C88.471 12.6624 89.0025 12.1387 89.3958 11.9948C89.8528 11.8276 90.884 11.8693 91.2717 12.0706ZM117.308 12.0706C117.627 12.2359 118.047 12.667 118.224 13.0105C118.542 13.6255 118.565 14.7745 118.271 15.4376C118.095 15.8357 117.671 16.3059 117.333 16.4785C116.479 16.9145 115.265 16.7078 114.682 16.0271C114.216 15.4831 114.125 15.1976 114.125 14.2822C114.125 13.5757 114.146 13.4227 114.29 13.1205C114.508 12.6624 115.039 12.1387 115.433 11.9948C115.89 11.8276 116.921 11.8693 117.308 12.0706ZM56.4922 14.8039C56.4922 15.9805 55.8342 16.6718 54.6465 16.7432C53.6721 16.8016 53.1676 16.4228 53.1671 15.6321C53.1669 15.2714 53.1853 15.2308 53.4756 14.9527C53.7129 14.7252 53.8887 14.6302 54.2361 14.5412C54.8522 14.3835 54.9374 14.3736 55.767 14.3626L56.4922 14.3529V14.8039Z" fill="black"/>
<path d="M95.1227 26.9116C95.1227 22.0164 95.106 22.2164 95.534 21.9555C95.801 21.7927 96.1325 21.7794 96.4646 21.918C96.938 22.1159 96.9261 21.9991 96.9331 26.5367C96.9365 28.7859 96.9603 30.7839 96.9861 30.9767C97.0318 31.3184 97.0405 31.3291 97.3318 31.4012C97.7402 31.5023 97.8668 31.6491 97.8751 32.0311C97.8874 32.5982 97.4138 32.9058 96.6365 32.8353C95.9061 32.7691 95.4196 32.3797 95.211 31.6944C95.1444 31.4757 95.1227 30.2997 95.1227 26.9116Z" fill="black"/>
<path d="M72.5884 23.955C72.5891 23.6135 73.6563 22.4361 74.1093 22.277C74.4781 22.1473 74.8674 22.1461 75.1728 22.2738C75.3898 22.3644 75.4182 22.4064 75.4182 22.6367C75.4182 22.8687 75.3539 22.9613 74.827 23.4882C74.1633 24.1519 73.7883 24.3607 73.2559 24.363C72.8718 24.3647 72.5878 24.1911 72.5884 23.955Z" fill="black"/>
<path d="M169.815 24.7006C169.853 23.8588 169.951 23.6003 170.297 23.4272C170.621 23.2653 170.985 23.2706 171.265 23.4413C171.595 23.6427 171.655 23.8117 171.695 24.6542L171.731 25.4145L172.577 25.4378C173.403 25.4607 173.426 25.4658 173.593 25.6598C173.869 25.9812 173.8 26.5529 173.458 26.7691C173.36 26.8311 173.012 26.8782 172.504 26.8982L171.704 26.9298L171.726 28.9194C171.745 30.7468 171.759 30.9278 171.886 31.138C172.079 31.4575 172.383 31.5813 172.974 31.5813C173.391 31.5813 173.503 31.6077 173.66 31.7425C173.897 31.9462 173.928 32.3507 173.725 32.5758C173.439 32.8915 173.205 32.96 172.419 32.9574C171.538 32.9546 171.093 32.8277 170.658 32.4557C170.006 31.8971 169.879 31.3501 169.823 28.8485L169.781 26.9293L169.323 26.8926C168.584 26.8333 168.279 26.4877 168.453 25.9072C168.555 25.5665 168.832 25.4258 169.401 25.4258H169.783L169.815 24.7006Z" fill="black"/>
<path d="M139.436 26.033C139.641 25.7326 140.052 25.4435 140.452 25.3186C141.409 25.0199 142.761 25.4094 143.349 26.1535C143.497 26.3397 143.636 26.4926 143.66 26.4934C143.684 26.4941 143.796 26.378 143.91 26.2353C144.657 25.2955 145.975 24.968 147.178 25.4234C147.73 25.6324 148.3 26.1632 148.578 26.7283C148.92 27.4239 148.995 28.0391 148.998 30.1862C149.001 32.1915 148.974 32.3886 148.659 32.6686C148.457 32.8485 147.961 32.8956 147.648 32.7648C147.192 32.574 147.161 32.417 147.161 30.2828C147.161 27.8687 147.061 27.3786 146.477 26.9334C146.241 26.7532 146.163 26.7348 145.64 26.7348C145.112 26.7348 145.04 26.7524 144.794 26.9394C144.632 27.0633 144.452 27.3008 144.34 27.5408C144.155 27.9363 144.154 27.9448 144.119 30.1309C144.08 32.5327 144.078 32.5451 143.649 32.7487C143.205 32.9591 142.741 32.8534 142.463 32.4784C142.322 32.2892 142.312 32.1668 142.273 30.1082C142.228 27.7521 142.2 27.5633 141.834 27.1468C141.546 26.819 141.254 26.6993 140.742 26.6997C140.287 26.7002 139.928 26.8708 139.658 27.216C139.335 27.6304 139.291 27.9501 139.255 30.1662C139.217 32.4775 139.198 32.577 138.774 32.7543C138.427 32.8993 138.09 32.8782 137.817 32.6947C137.407 32.4184 137.39 32.2631 137.413 28.9635C137.434 25.7518 137.441 25.699 137.855 25.5104C138.083 25.4066 138.632 25.4 138.816 25.4987C138.977 25.585 139.166 25.9253 139.166 26.1298C139.166 26.3381 139.248 26.3086 139.436 26.033Z" fill="black"/>
<path d="M161.775 26.1075C162.041 25.7594 162.48 25.4659 162.959 25.3163C163.316 25.2045 163.922 25.1891 164.399 25.2796C165.657 25.518 166.429 26.2121 166.806 27.4423C166.92 27.8154 166.936 28.1322 166.936 30.0601C166.936 32.4534 166.934 32.4674 166.525 32.7169C166.258 32.8797 165.926 32.893 165.594 32.7543C165.159 32.5723 165.132 32.4379 165.131 30.4351C165.131 28.4537 165.068 27.8716 164.805 27.423C164.521 26.9367 164.17 26.75 163.471 26.7133C162.955 26.6862 162.835 26.7041 162.497 26.8587C162.277 26.9595 162.043 27.132 161.951 27.2614C161.614 27.7349 161.574 28.017 161.541 30.2016C161.505 32.4752 161.486 32.5766 161.061 32.7543C160.729 32.893 160.398 32.8797 160.131 32.7169C159.715 32.4634 159.721 32.5125 159.698 29.3027C159.676 26.2421 159.701 25.9043 159.966 25.639C160.285 25.3203 160.999 25.3326 161.283 25.6617C161.365 25.7566 161.454 25.9686 161.48 26.1328L161.528 26.4314L161.775 26.1075Z" fill="black"/>
<path d="M77.9362 26.2631C77.9288 25.7904 78.0992 25.5503 78.521 25.4392C78.8068 25.3639 78.9814 25.3897 79.2245 25.5432C79.525 25.7328 79.566 25.8241 80.9709 29.4233C81.4042 30.5337 81.5736 30.8871 81.5736 30.6813C81.5736 30.6377 81.9931 29.5409 82.5057 28.2439C83.5778 25.5314 83.6434 25.4258 84.254 25.4258C84.5515 25.4258 84.6537 25.4616 84.8448 25.6323C85.056 25.821 85.0758 25.8743 85.075 26.2514C85.0743 26.6239 84.972 26.9049 84.0231 29.1403C82.7586 32.1193 82.6218 32.3901 82.2625 32.6279C81.6655 33.023 80.7778 32.863 80.4001 32.2922C80.3046 32.1479 79.7125 30.8225 79.0844 29.3469C78.0788 26.9842 77.9417 26.6162 77.9362 26.2631Z" fill="black"/>
<path fill-rule="evenodd" clip-rule="evenodd" d="M43.885 21.9211C43.4592 22.1062 43.4383 22.2257 43.4383 24.4672C43.4383 25.5782 43.4176 26.4871 43.3923 26.4871C43.367 26.4871 43.1989 26.3334 43.0188 26.1455C42.2244 25.317 41.2231 25.049 39.936 25.3205C38.4167 25.6409 37.4357 26.7053 37.1602 28.3325C36.8954 29.8964 37.4332 31.4731 38.4991 32.2577C39.026 32.6456 39.5635 32.847 40.3332 32.945C41.4954 33.0928 42.4788 32.7433 43.1302 31.9509L43.4235 31.594L43.4716 31.9791C43.5294 32.4412 43.7271 32.7005 44.075 32.7706C44.6741 32.8912 45.0638 32.6794 45.2046 32.1564C45.3253 31.708 45.2739 22.4741 45.1495 22.2559C44.9282 21.8679 44.3558 21.7162 43.885 21.9211ZM43.1336 27.887C42.8961 27.4034 42.422 26.9644 41.9713 26.8108C41.5582 26.6701 40.743 26.6755 40.329 26.8216C39.9365 26.9602 39.4068 27.4799 39.1858 27.9433C39.0409 28.2473 39.0202 28.3942 39.0225 29.105C39.0255 30.0697 39.1479 30.4108 39.6834 30.9463C40.13 31.3928 40.5688 31.5383 41.3416 31.4958C42.0223 31.4585 42.3666 31.3066 42.7612 30.8699C43.23 30.3509 43.3321 30.0354 43.3321 29.105C43.3321 28.3567 43.3162 28.2588 43.1336 27.887Z" fill="black"/>
<path fill-rule="evenodd" clip-rule="evenodd" d="M49.6858 25.324C48.4305 25.5992 47.4709 26.4796 47.0781 27.7165C46.7378 28.788 46.8046 29.9893 47.2601 30.994C47.6892 31.9404 48.6315 32.6618 49.7507 32.9007C51.0149 33.1707 53.2359 32.734 53.657 32.1329C53.8274 31.8896 53.7986 31.4934 53.5946 31.2732C53.361 31.0213 53.0656 31.0291 52.2553 31.3085C51.7064 31.4979 51.5045 31.5318 50.9026 31.5358C50.3324 31.5396 50.1332 31.5123 49.8767 31.3952C49.2559 31.1119 48.8902 30.6723 48.7781 30.0745L48.7289 29.8125L51.1954 29.8123C53.4019 29.8123 53.688 29.7993 53.9096 29.6885C54.2912 29.4979 54.4225 29.1768 54.3712 28.56C54.2325 26.8944 53.1708 25.6485 51.6101 25.3202C51.0079 25.1936 50.274 25.195 49.6858 25.324ZM52.5585 28.1508C52.4451 27.5438 52.0715 27.069 51.5128 26.8219C50.8452 26.5265 50.0151 26.6274 49.4281 27.0751C49.1741 27.2688 48.8623 27.8282 48.7797 28.2382L48.7334 28.4682H50.6756H52.6178L52.5585 28.1508Z" fill="black"/>
<path fill-rule="evenodd" clip-rule="evenodd" d="M66.5257 21.9211C66.0999 22.1062 66.0789 22.2257 66.0789 24.4672C66.0789 25.5782 66.0583 26.4871 66.0329 26.4871C66.0077 26.4871 65.8396 26.3334 65.6594 26.1455C64.8651 25.317 63.8638 25.049 62.5767 25.3205C61.0574 25.6409 60.0764 26.7053 59.8009 28.3325C59.536 29.8964 60.0738 31.4731 61.1398 32.2577C61.6667 32.6456 62.2042 32.847 62.9738 32.945C64.1361 33.0928 65.1195 32.7433 65.7709 31.9509L66.0642 31.594L66.1123 31.9791C66.1701 32.4412 66.3677 32.7005 66.7157 32.7706C67.3148 32.8912 67.7045 32.6794 67.8453 32.1564C67.966 31.708 67.9146 22.4741 67.7901 22.2559C67.5688 21.8679 66.9965 21.7162 66.5257 21.9211ZM65.7743 27.887C65.5368 27.4034 65.0627 26.9644 64.6119 26.8108C64.1989 26.6701 63.3837 26.6755 62.9696 26.8216C62.5772 26.9602 62.0475 27.4799 61.8265 27.9433C61.6815 28.2473 61.6609 28.3942 61.6631 29.105C61.6662 30.0697 61.7886 30.4108 62.3241 30.9463C62.7706 31.3928 63.2095 31.5383 63.9823 31.4958C64.663 31.4585 65.0073 31.3066 65.4019 30.8699C65.8707 30.3509 65.9728 30.0354 65.9728 29.105C65.9728 28.3567 65.9569 28.2588 65.7743 27.887Z" fill="black"/>
<path fill-rule="evenodd" clip-rule="evenodd" d="M72.3265 25.324C71.0712 25.5992 70.1116 26.4796 69.7188 27.7165C69.3785 28.788 69.4452 29.9893 69.9007 30.994C70.3299 31.9404 71.2722 32.6618 72.3914 32.9007C73.6555 33.1707 75.8766 32.734 76.2977 32.1329C76.468 31.8896 76.4393 31.4934 76.2353 31.2732C76.0017 31.0213 75.7062 31.0291 74.896 31.3085C74.3471 31.4979 74.1452 31.5318 73.5433 31.5358C72.9731 31.5396 72.7739 31.5123 72.5174 31.3952C71.8966 31.1119 71.5309 30.6723 71.4187 30.0745L71.3696 29.8125L73.8361 29.8123C76.0426 29.8123 76.3287 29.7993 76.5502 29.6885C76.9319 29.4979 77.0632 29.1768 77.0119 28.56C76.8732 26.8944 75.8114 25.6485 74.2508 25.3202C73.6486 25.1936 72.9146 25.195 72.3265 25.324ZM75.1992 28.1508C75.0857 27.5438 74.7122 27.069 74.1535 26.8219C73.4859 26.5265 72.6557 26.6274 72.0688 27.0751C71.8148 27.2688 71.503 27.8282 71.4204 28.2382L71.3741 28.4682H73.3162H75.2584L75.1992 28.1508Z" fill="black"/>
<path fill-rule="evenodd" clip-rule="evenodd" d="M88.8965 25.2959C88.7019 25.3325 88.2848 25.4868 87.9694 25.6387C86.4108 26.3901 85.6401 28.29 86.1112 30.22C86.4209 31.489 87.3263 32.4608 88.5427 32.8298C89.1612 33.0175 90.6758 33.0013 91.4191 32.7991C92.0729 32.6213 92.6322 32.3481 92.7829 32.1329C92.9533 31.8896 92.9245 31.4934 92.7205 31.2732C92.4867 31.021 92.1906 31.0291 91.3812 31.3098C90.8319 31.5003 90.6309 31.5344 90.0285 31.539C89.2491 31.5449 88.908 31.4391 88.4442 31.047C88.1892 30.8316 87.8724 30.2369 87.8713 29.9717L87.8706 29.8125L90.3292 29.8123C93.088 29.8123 93.1657 29.7997 93.4068 29.3172C93.5569 29.0168 93.561 28.7299 93.4243 28.0791C93.1198 26.6287 92.1333 25.617 90.7348 25.3207C90.1866 25.2046 89.4362 25.1945 88.8965 25.2959ZM91.7161 28.2382C91.5982 27.5981 91.1949 27.0679 90.6387 26.8219C89.8218 26.4605 88.7651 26.6986 88.293 27.3503C88.1145 27.5967 87.8706 28.2087 87.8706 28.4103C87.8706 28.4422 88.7454 28.4682 89.8145 28.4682H91.7584L91.7161 28.2382Z" fill="black"/>
<path fill-rule="evenodd" clip-rule="evenodd" d="M102.358 25.2868C100.311 25.6312 99.0962 27.0513 99.0907 29.105C99.0858 30.9159 100.002 32.2035 101.692 32.7598C102.204 32.9284 102.38 32.9503 103.259 32.9534C104.166 32.9566 104.297 32.9402 104.813 32.7598C106.51 32.1663 107.398 30.9099 107.398 29.105C107.398 28.0929 107.18 27.4108 106.616 26.6542C106.327 26.2674 105.603 25.7461 105.063 25.5363C104.332 25.2518 103.19 25.1465 102.358 25.2868ZM105.138 30.5852C105.993 29.253 105.493 27.3431 104.159 26.8403C103.697 26.6666 102.845 26.6575 102.354 26.8211C101.896 26.9739 101.434 27.3983 101.194 27.887C101.011 28.2588 100.995 28.3566 100.995 29.105C100.995 29.8533 101.011 29.9511 101.194 30.3229C101.582 31.1128 102.273 31.5105 103.258 31.5105C104.116 31.5105 104.742 31.2023 105.138 30.5852Z" fill="black"/>
<path fill-rule="evenodd" clip-rule="evenodd" d="M112.468 25.3873C111.937 25.5749 111.502 25.8801 111.128 26.3277L110.884 26.6197L110.842 26.2724C110.77 25.6637 110.53 25.4166 110.001 25.4086C109.602 25.4025 109.281 25.5763 109.159 25.8647C109.018 26.1999 109.013 36.0604 109.154 36.3078C109.377 36.6996 110.011 36.8623 110.443 36.6389C110.851 36.4279 110.865 36.3353 110.865 33.8843C110.865 32.6565 110.88 31.652 110.898 31.652C110.915 31.652 111.083 31.8155 111.269 32.0154C112.081 32.8863 113.065 33.1639 114.367 32.8894C116.03 32.5387 117.06 31.2848 117.199 29.4405C117.291 28.2196 116.881 26.9877 116.136 26.2421C115.243 25.3494 113.637 24.975 112.468 25.3873ZM115.115 27.9433C114.887 27.4591 114.371 26.9624 113.945 26.8173C113.523 26.6736 112.705 26.6702 112.322 26.8107C111.425 27.1394 110.904 28.0275 110.925 29.1906C110.938 29.8735 111.123 30.3919 111.513 30.8341C111.86 31.2287 112.202 31.4145 112.734 31.4979C113.784 31.6626 114.675 31.1938 115.128 30.237C115.255 29.9693 115.279 29.789 115.279 29.105C115.279 28.4014 115.257 28.2442 115.115 27.9433Z" fill="black"/>
<path fill-rule="evenodd" clip-rule="evenodd" d="M122.232 25.3873C121.697 25.5763 121.265 25.8804 120.882 26.3389L120.629 26.642V26.3854C120.629 26.0496 120.473 25.6854 120.267 25.5412C120.061 25.3968 119.489 25.3898 119.22 25.5287C119.168 25.5555 119.123 25.5775 119.084 25.6073C118.82 25.8077 118.825 26.3609 118.825 31.1214C118.825 35.1404 118.843 36.1774 118.918 36.3078C119.139 36.6965 119.689 36.8452 120.167 36.6457C120.615 36.4584 120.629 36.3731 120.629 33.8843C120.629 32.6565 120.642 31.652 120.659 31.652C120.676 31.652 120.867 31.8378 121.083 32.0649C121.79 32.8056 122.631 33.0853 123.73 32.9455C124.886 32.7984 125.736 32.3211 126.273 31.5182C126.667 30.928 126.843 30.4218 126.939 29.6063C127.14 27.8947 126.399 26.318 125.084 25.6551C124.177 25.1982 123.064 25.0937 122.232 25.3873ZM124.936 28.1398C124.721 27.5278 124.225 26.9924 123.712 26.8179C123.284 26.6724 122.473 26.6712 122.067 26.8153C121.641 26.966 121.164 27.4178 120.935 27.8861C120.767 28.228 120.733 28.3976 120.712 28.9979C120.681 29.8526 120.825 30.3215 121.277 30.8341C121.688 31.3014 122.03 31.4576 122.725 31.4958C123.498 31.5383 123.937 31.3928 124.384 30.9463C124.853 30.4771 125.023 30.0611 125.068 29.2688C125.1 28.7057 125.083 28.555 124.936 28.1398Z" fill="black"/>
<path fill-rule="evenodd" clip-rule="evenodd" d="M131.211 25.296C130.672 25.399 129.871 25.8029 129.479 26.1694C128.702 26.8966 128.326 27.821 128.314 29.0342C128.302 30.2715 128.613 31.1456 129.33 31.8929C130.047 32.6392 130.969 32.9935 132.197 32.9941C133.279 32.9948 134.746 32.5692 135.066 32.1617C135.263 31.911 135.247 31.5071 135.03 31.2732C134.796 31.021 134.5 31.0291 133.691 31.3098C133.142 31.5003 132.941 31.5344 132.338 31.539C131.763 31.5434 131.571 31.5169 131.312 31.3972C130.689 31.1089 130.326 30.6713 130.214 30.0745L130.165 29.8125L132.631 29.8123C135.399 29.8123 135.475 29.8 135.717 29.3172C135.867 29.0168 135.871 28.7299 135.734 28.0791C135.43 26.6287 134.443 25.617 133.045 25.3207C132.496 25.2045 131.743 25.1944 131.211 25.296ZM133.994 28.1508C133.881 27.5438 133.507 27.069 132.949 26.8219C132.281 26.5265 131.451 26.6274 130.864 27.0751C130.61 27.2688 130.298 27.8282 130.215 28.2382L130.169 28.4682H132.111H134.053L133.994 28.1508Z" fill="black"/>
<path fill-rule="evenodd" clip-rule="evenodd" d="M153.67 25.2625C152.192 25.51 151.048 26.5772 150.691 28.0437C150.569 28.5457 150.569 29.668 150.692 30.1662C151.019 31.4923 151.903 32.4542 153.139 32.8301C153.752 33.0163 155.267 32.9992 156.016 32.7977C156.668 32.622 157.228 32.3488 157.38 32.1329C157.55 31.8896 157.521 31.4934 157.317 31.2732C157.084 31.0214 156.789 31.0291 155.978 31.3082C155.433 31.4957 155.223 31.5314 154.625 31.5374C154.047 31.5432 153.859 31.5175 153.599 31.3972C152.976 31.1089 152.613 30.6713 152.501 30.0745L152.451 29.8125H154.903C157.556 29.8125 157.715 29.7926 157.951 29.432C158.133 29.1546 158.155 28.7537 158.024 28.1054C157.726 26.6344 156.746 25.6203 155.332 25.3207C154.869 25.2228 154.074 25.1949 153.67 25.2625ZM156.313 28.2382C156.195 27.5981 155.792 27.0679 155.235 26.8219C154.568 26.5265 153.738 26.6274 153.151 27.0751C152.897 27.2688 152.585 27.8282 152.502 28.2382L152.456 28.4682H154.406H156.355L156.313 28.2382Z" fill="black"/>
<path d="M2.80188 23.1026C1.73482 19.1068 2.76866 14.6668 5.90339 11.532C10.5807 6.85472 18.1641 6.85472 22.8415 11.532C27.5188 16.2094 27.5188 23.7928 22.8415 28.4701C19.7067 31.6048 15.2667 32.6387 11.2709 31.5716" stroke="black" stroke-width="2.5" stroke-linecap="round" stroke-linejoin="round"/>
<path d="M17.9658 23.5935V16.4073M17.9658 16.4073H10.7795M17.9658 16.4073L5.98851 28.3842" stroke="#00A8A5" stroke-width="2.4" stroke-linecap="round" stroke-linejoin="round"/>
</svg>
