<svg width="180" height="40" viewBox="0 0 180 40" fill="none" xmlns="http://www.w3.org/2000/svg">
<path fill-rule="evenodd" clip-rule="evenodd" d="M59.0053 7.10504C58.5502 7.30291 58.5279 7.43054 58.5279 9.82591C58.5279 11.1374 58.4997 11.9846 58.4561 11.9846C58.4166 11.9846 58.2957 11.8683 58.1874 11.7263C57.7136 11.1052 56.6585 10.6225 55.7803 10.6249C53.697 10.6308 52.1896 11.8711 51.828 13.8769C51.3887 16.3133 52.617 18.3691 54.7852 18.8263C56.2122 19.1273 57.416 18.7705 58.2065 17.8123C58.5155 17.4376 58.5279 17.4308 58.5283 17.6335C58.529 17.9856 58.6689 18.3754 58.8585 18.5535C59.078 18.7597 59.6746 18.7893 60.0192 18.6111C60.4631 18.3815 60.4559 18.4779 60.4559 12.8162C60.4559 8.67749 60.4359 7.60202 60.3565 7.46283C60.12 7.04819 59.5084 6.88616 59.0053 7.10504ZM86.8295 7.10504C86.3744 7.30291 86.352 7.43054 86.352 9.82591C86.352 11.1374 86.3239 11.9846 86.2802 11.9846C86.2408 11.9846 86.1198 11.8683 86.0115 11.7263C85.5378 11.1052 84.4826 10.6225 83.6044 10.6249C81.5212 10.6308 80.0138 11.8711 79.6521 13.8769C79.2128 16.3133 80.4411 18.3691 82.6093 18.8263C84.0363 19.1273 85.2401 18.7705 86.0307 17.8123C86.3397 17.4376 86.352 17.4308 86.3524 17.6335C86.3531 17.9856 86.4931 18.3754 86.6826 18.5535C86.9021 18.7597 87.4988 18.7893 87.8434 18.6111C88.2873 18.3815 88.28 18.4779 88.28 12.8162C88.28 8.67749 88.2601 7.60202 88.1807 7.46283C87.9442 7.04819 87.3326 6.88616 86.8295 7.10504ZM109.71 7.16546C109.255 7.47228 109.254 7.49194 109.282 12.665C109.301 16.0252 109.333 17.3908 109.399 17.5885C109.634 18.2944 110.155 18.6994 110.917 18.7685C111.739 18.843 112.248 18.5172 112.248 17.9165C112.248 17.5141 112.102 17.3455 111.66 17.2358C111.357 17.1607 111.338 17.14 111.29 16.82C111.262 16.6348 111.236 14.4997 111.233 12.0753C111.227 7.18421 111.24 7.31342 110.733 7.10179C110.363 6.94687 110.002 6.96933 109.71 7.16546ZM63.0955 7.66659C62.7075 7.90325 62.5351 8.18225 62.5354 8.57345C62.536 9.22565 62.9646 9.66978 63.5937 9.66978C64.0099 9.66978 64.2874 9.51637 64.5088 9.16403C64.7205 8.82712 64.6753 8.20591 64.4191 7.93168C64.0258 7.51069 63.518 7.40892 63.0955 7.66659ZM76.33 7.63C75.9376 7.80095 75.691 8.16334 75.6914 8.56906C75.6919 9.22588 76.1187 9.66978 76.7496 9.66978C77.4181 9.66978 77.8376 9.20682 77.7872 8.52483C77.731 7.76443 77.0216 7.32877 76.33 7.63ZM38.5153 7.78553C38.3828 7.84314 38.2127 8.00336 38.1372 8.14172C38.0087 8.37717 38 8.70062 38 13.2321C38 17.7652 38.0087 18.087 38.1373 18.3228C38.507 19.0003 39.7258 18.9042 39.9805 18.1774C40.0465 17.989 40.0718 16.6519 40.0749 13.1943C40.0787 8.84163 40.0686 8.44786 39.9468 8.2041C39.7138 7.73767 39.0628 7.54736 38.5153 7.78553ZM45.7716 10.7333C45.2598 10.8932 44.7904 11.2069 44.5064 11.5788L44.2421 11.925L44.1895 11.5961C44.11 11.0993 43.824 10.8504 43.3325 10.8504C42.8436 10.8504 42.5492 11.0009 42.4149 11.3194C42.265 11.6747 42.2597 18.059 42.4091 18.3209C42.646 18.7363 43.2333 18.8952 43.7437 18.6819C44.1981 18.492 44.2176 18.3869 44.2557 15.9162C44.2838 14.0983 44.313 13.6254 44.4136 13.3594C44.61 12.8402 44.8367 12.5838 45.2783 12.3816C45.6402 12.2159 45.7664 12.1972 46.3259 12.2266C46.8779 12.2556 47.0038 12.2894 47.2781 12.4821C47.6591 12.7499 47.9184 13.2245 48.0188 13.8381C48.0596 14.087 48.0933 15.1582 48.0937 16.2187C48.0943 17.9857 48.1065 18.1666 48.2394 18.3846C48.4136 18.6704 48.8174 18.8238 49.2442 18.7665C49.61 18.7175 49.8831 18.4766 49.9837 18.1145C50.1015 17.6904 50.0742 14.0992 49.9477 13.3894C49.6795 11.8844 48.7894 10.9745 47.311 10.6941C46.8011 10.5974 46.1535 10.6139 45.7716 10.7333ZM102.474 10.7317C101.079 10.9977 100.415 11.3402 100.415 11.7947C100.415 12.0253 100.538 12.2843 100.711 12.4169C100.892 12.5559 101.45 12.532 102.041 12.3598C102.726 12.1603 103.993 12.0806 104.449 12.2083C104.864 12.3244 105.169 12.6281 105.258 13.0157C105.405 13.6487 105.481 13.6094 104.101 13.6163C102.717 13.6232 102.039 13.7376 101.283 14.0915C100.278 14.5618 99.7881 15.2766 99.7822 16.2825C99.7782 16.9725 99.8794 17.354 100.192 17.8255C100.681 18.5641 101.501 18.903 102.797 18.9024C103.549 18.9021 103.672 18.8818 104.082 18.6904C104.565 18.4652 104.956 18.1389 105.188 17.7686L105.329 17.5418L105.33 17.8443C105.331 18.2892 105.558 18.6124 105.943 18.7161C106.548 18.8789 107.071 18.637 107.225 18.1231C107.282 17.9332 107.299 17.0516 107.279 15.3864C107.251 13.1107 107.236 12.8929 107.083 12.4304C106.805 11.5869 106.225 11.0585 105.292 10.797C104.738 10.6419 103.14 10.6048 102.474 10.7317ZM63.0554 10.9641C62.6215 11.1999 62.6107 11.292 62.6107 14.777C62.6107 18.1579 62.622 18.2757 62.9753 18.5904C63.2025 18.7928 63.7372 18.836 64.0686 18.6787C64.5755 18.4382 64.5766 18.4299 64.5766 14.825C64.5766 11.2834 64.5661 11.1931 64.1326 10.9688C63.85 10.8227 63.32 10.8203 63.0554 10.9641ZM66.807 10.9219C66.4852 11.0537 66.3531 11.297 66.3593 11.7469C66.3644 12.1231 66.51 12.5134 67.5887 15.0441C68.2616 16.623 68.8947 18.0394 68.9955 18.1917C69.396 18.7969 70.3473 18.9679 70.9809 18.5486C71.3643 18.2948 71.4724 18.0812 72.8295 14.8955C73.8801 12.4292 73.989 12.1321 73.9895 11.7326C73.9898 11.3299 73.9685 11.2725 73.743 11.071C73.5388 10.8886 73.4296 10.8504 73.1116 10.8504C72.4636 10.8504 72.3792 10.9827 71.3281 13.6479C70.8279 14.9163 70.3732 16.0816 70.3177 16.2375C70.2623 16.3934 70.1923 16.4955 70.1622 16.4643C70.112 16.4123 69.782 15.5894 68.6941 12.8032C68.1902 11.5127 68.0355 11.2082 67.7819 11.0088C67.5719 10.8436 67.1008 10.8016 66.807 10.9219ZM76.2386 10.9506C75.7993 11.1946 75.8066 11.1361 75.7809 14.6309C75.7657 16.7128 75.7852 17.939 75.8364 18.1134C76.0047 18.6871 76.6517 18.9506 77.2245 18.6787C77.7315 18.4382 77.7326 18.4299 77.7326 14.825C77.7326 11.2834 77.7221 11.1931 77.2886 10.9688C77.0156 10.8277 76.4768 10.8183 76.2386 10.9506ZM90.7611 10.9979C90.3256 11.2634 90.3215 11.2892 90.3215 13.7236C90.3215 15.3659 90.3489 16.0637 90.4256 16.3699C90.8221 17.9537 91.8035 18.771 93.4791 18.9128C94.5129 19.0003 95.3624 18.6585 95.8771 17.9478C96.0182 17.7531 96.1144 17.6752 96.1335 17.7402C96.1502 17.7974 96.2031 17.9887 96.251 18.1651C96.3582 18.5596 96.6158 18.7138 97.1678 18.7138C97.5018 18.7138 97.5868 18.6819 97.7665 18.4897C97.8816 18.3663 97.9973 18.158 98.0236 18.0265C98.1028 17.6301 98.0777 11.8215 97.9955 11.5253C97.8451 10.984 97.2795 10.7257 96.6787 10.924C96.1571 11.0961 96.1478 11.1408 96.1056 13.6821L96.0678 15.954L95.8409 16.4077C95.5047 17.0802 95.1582 17.2945 94.3377 17.3375C93.7782 17.3669 93.652 17.3483 93.29 17.1825C93.0547 17.0749 92.8047 16.8905 92.7062 16.7522C92.3474 16.2483 92.3041 15.9415 92.2678 13.6479C92.23 11.2596 92.2086 11.1472 91.7555 10.9579C91.4006 10.8097 91.0464 10.8239 90.7611 10.9979ZM57.2098 12.4187C57.5499 12.5953 57.9988 13.056 58.1887 13.4231C58.5285 14.0804 58.5523 15.3082 58.2389 16.0168C58.0507 16.4422 57.5977 16.9447 57.2361 17.1292C56.3229 17.5951 55.0257 17.3742 54.4026 16.6468C53.9048 16.0655 53.8074 15.7604 53.8074 14.7821C53.8074 14.0271 53.8306 13.8636 53.9841 13.5407C54.2169 13.0511 54.7848 12.4914 55.2051 12.3377C55.6936 12.159 56.7955 12.2035 57.2098 12.4187ZM85.034 12.4187C85.374 12.5953 85.823 13.056 86.0128 13.4231C86.3527 14.0804 86.3764 15.3082 86.063 16.0168C85.8748 16.4422 85.4218 16.9447 85.0602 17.1292C84.1471 17.5951 82.8499 17.3742 82.2268 16.6468C81.7289 16.0655 81.6315 15.7604 81.6315 14.7821C81.6315 14.0271 81.6548 13.8636 81.8083 13.5407C82.041 13.0511 82.609 12.4914 83.0293 12.3377C83.5177 12.159 84.6196 12.2035 85.034 12.4187ZM105.33 15.3396C105.33 16.597 104.627 17.3358 103.357 17.412C102.316 17.4744 101.777 17.0696 101.777 16.2246C101.776 15.8393 101.796 15.7958 102.106 15.4986C102.36 15.2555 102.548 15.154 102.919 15.0589C103.577 14.8904 103.668 14.8798 104.555 14.868L105.33 14.8577V15.3396Z" fill="black"/>
<path d="M76.6191 27.5953C76.5906 22.4222 76.5921 22.4026 77.0474 22.0958C77.3384 21.8996 77.6994 21.8772 78.0702 22.0321C78.5766 22.2437 78.5636 22.1145 78.5698 27.0056C78.5729 29.43 78.5984 31.5651 78.6266 31.7503C78.6751 32.0703 78.6936 32.091 78.997 32.1661C79.4394 32.2758 79.585 32.4444 79.585 32.8468C79.585 33.4475 79.076 33.7733 78.254 33.6988C77.4918 33.6297 76.9706 33.2247 76.7359 32.5188C76.6701 32.3211 76.6377 30.9555 76.6191 27.5953Z" fill="black"/>
<path d="M157.916 27.3685C157.916 22.1373 157.898 22.3509 158.356 22.0721C158.641 21.8981 158.995 21.8839 159.35 22.0321C159.856 22.2435 159.843 22.1187 159.851 26.9678C159.854 29.3714 159.88 31.5066 159.907 31.7126C159.956 32.0777 159.965 32.0892 160.277 32.1663C160.719 32.2758 160.865 32.4443 160.865 32.8468C160.865 33.4475 160.356 33.7733 159.534 33.6988C158.753 33.628 158.233 33.2119 158.01 32.4796C157.939 32.2459 157.916 30.9891 157.916 27.3685Z" fill="black"/>
<path d="M136.562 25.1569C136.571 24.2785 136.685 23.8982 137.002 23.6849C137.296 23.4876 137.657 23.4647 138.027 23.6195C138.444 23.7937 138.535 24.0127 138.58 24.9436L138.619 25.7685L139.522 25.7935C140.405 25.8179 140.43 25.8234 140.608 26.0307C140.903 26.3742 140.829 26.9852 140.464 27.2162C140.359 27.2825 139.987 27.3327 139.444 27.3541L138.589 27.3879L138.613 29.5141C138.633 31.4313 138.65 31.6633 138.777 31.8734C138.988 32.2225 139.171 32.3006 139.899 32.3521C140.433 32.3899 140.593 32.43 140.721 32.5583C140.931 32.7683 140.945 33.2045 140.749 33.4215C140.447 33.7546 140.192 33.8296 139.354 33.8314C138.416 33.8334 137.946 33.699 137.472 33.2932C136.774 32.6962 136.639 32.1117 136.58 29.4383L136.534 27.3874L136.045 27.3482C135.255 27.2848 134.93 26.9155 135.115 26.2952C135.225 25.9294 135.521 25.7807 136.138 25.7807H136.556L136.562 25.1569Z" fill="black"/>
<path d="M104.106 26.4296C104.325 26.1085 104.764 25.7995 105.192 25.6661C106.215 25.3469 107.659 25.7631 108.288 26.5584C108.446 26.7573 108.595 26.9207 108.621 26.9215C108.646 26.9223 108.766 26.7982 108.887 26.6458C109.617 25.7278 110.814 25.3559 112.024 25.6712C112.882 25.8947 113.487 26.3878 113.881 27.1856C114.241 27.914 114.322 28.5804 114.325 30.8678C114.327 33.0074 114.298 33.2218 113.966 33.5182C113.614 33.8316 112.797 33.7393 112.538 33.3567C112.413 33.173 112.396 32.9183 112.362 30.8087C112.324 28.4725 112.323 28.4635 112.125 28.0409C112.005 27.7844 111.813 27.5306 111.639 27.3982C111.377 27.1983 111.299 27.1795 110.736 27.1795C110.172 27.1795 110.095 27.1983 109.832 27.3982C109.659 27.5306 109.467 27.7844 109.347 28.0409C109.149 28.4635 109.148 28.4725 109.11 30.8087C109.069 33.3754 109.067 33.3887 108.608 33.6062C108.134 33.8311 107.639 33.7182 107.341 33.3174C107.19 33.1152 107.18 32.9844 107.138 30.7845C107.09 28.2667 107.06 28.0649 106.669 27.6198C106.361 27.2695 106.049 27.1416 105.502 27.1421C104.799 27.1427 104.301 27.5295 104.063 28.2608C103.974 28.5349 103.939 29.1254 103.912 30.8465C103.873 33.317 103.854 33.4224 103.399 33.6122C103.044 33.7604 102.69 33.7462 102.405 33.5722C101.957 33.2989 101.965 33.3731 101.965 29.788C101.965 26.1741 101.973 26.1051 102.411 25.8789C102.679 25.7402 103.197 25.7263 103.431 25.8516C103.614 25.9498 103.818 26.3081 103.818 26.533C103.818 26.7556 103.906 26.724 104.106 26.4296Z" fill="black"/>
<path d="M127.979 26.5091C128.263 26.1372 128.732 25.8235 129.244 25.6636C129.626 25.5442 130.274 25.5277 130.783 25.6244C132.262 25.9048 133.152 26.8147 133.42 28.3197C133.547 29.0295 133.574 32.6207 133.456 33.0448C133.355 33.4069 133.082 33.6478 132.717 33.6968C132.29 33.7541 131.886 33.6007 131.712 33.3149C131.579 33.0969 131.567 32.916 131.566 31.149C131.566 30.0885 131.532 29.0173 131.491 28.7684C131.391 28.1548 131.131 27.6802 130.75 27.4124C130.476 27.2197 130.35 27.1859 129.798 27.1569C129.239 27.1275 129.113 27.1462 128.751 27.3119C128.309 27.514 128.082 27.7705 127.886 28.2897C127.785 28.5557 127.756 29.0286 127.728 30.8465C127.69 33.3172 127.671 33.4223 127.216 33.6122C126.706 33.8255 126.118 33.6666 125.881 33.2512C125.732 32.9893 125.737 26.605 125.887 26.2497C126.022 25.9312 126.316 25.7807 126.805 25.7807C127.296 25.7807 127.582 26.0296 127.662 26.5264L127.715 26.8553L127.979 26.5091Z" fill="black"/>
<path d="M174.025 26.5091C174.309 26.1372 174.778 25.8235 175.29 25.6636C175.672 25.5442 176.319 25.5277 176.829 25.6244C178.173 25.8792 178.998 26.621 179.401 27.9356C179.523 28.3343 179.54 28.6728 179.54 30.7331C179.54 33.2907 179.538 33.3056 179.101 33.5722C178.815 33.7462 178.461 33.7604 178.106 33.6122C177.641 33.4178 177.612 33.2741 177.611 31.1338C177.611 29.0164 177.544 28.3944 177.263 27.915C176.96 27.3953 176.584 27.1957 175.837 27.1566C175.285 27.1276 175.157 27.1467 174.797 27.3119C174.561 27.4196 174.311 27.6039 174.213 27.7423C173.852 28.2483 173.81 28.5497 173.774 30.8843C173.737 33.314 173.716 33.4224 173.262 33.6122C172.907 33.7604 172.553 33.7462 172.268 33.5722C171.823 33.3013 171.83 33.3538 171.805 29.9237C171.782 26.653 171.808 26.2921 172.092 26.0084C172.432 25.6679 173.196 25.6811 173.499 26.0328C173.587 26.1342 173.681 26.3607 173.709 26.5362L173.76 26.8553L174.025 26.5091Z" fill="black"/>
<path d="M62.9986 29.1715C64.2597 25.9538 64.2752 25.9242 64.7746 25.7899C65.0737 25.7096 65.512 25.8339 65.7237 26.0591C65.8657 26.2103 65.8995 26.3294 65.8985 26.6752C65.8975 27.0569 65.7745 27.3938 64.7753 29.7502C63.4304 32.9221 63.279 33.2219 62.8932 33.4772C62.2538 33.9004 61.3067 33.7285 60.9012 33.1158C60.7982 32.96 60.1652 31.5436 59.4946 29.9682C58.4137 27.4288 58.2747 27.0548 58.2694 26.671C58.2641 26.2978 58.2912 26.2102 58.4662 26.035C58.7541 25.7468 59.3814 25.6936 59.683 25.9316C59.9738 26.1612 60.0781 26.3871 61.1048 29.0102C61.6019 30.2801 62.029 31.352 62.054 31.3924C62.0789 31.4329 62.5041 30.4334 62.9986 29.1715Z" fill="black"/>
<path fill-rule="evenodd" clip-rule="evenodd" d="M147.544 22.7119C147.411 22.7717 147.241 22.9337 147.165 23.072C147.037 23.3075 147.028 23.6309 147.028 28.1624C147.028 32.6955 147.037 33.0173 147.166 33.2531C147.535 33.9306 148.754 33.8345 149.009 33.1077C149.065 32.9467 149.101 32.3359 149.103 31.4785L149.108 30.1069L151.054 30.0702C152.719 30.0388 153.067 30.0119 153.455 29.8849C154.122 29.6665 154.527 29.4387 154.946 29.0464C155.683 28.3573 155.988 27.5677 155.988 26.3478C155.988 24.5114 155.177 23.3781 153.455 22.8094C153.046 22.6743 152.744 22.6568 150.393 22.6314C148.243 22.6082 147.742 22.6224 147.544 22.7119ZM153.563 25.0927C153.325 24.7586 152.831 24.5084 152.242 24.4232C151.953 24.3813 151.129 24.3465 150.412 24.3457L149.108 24.3441V26.3569V28.3697L150.752 28.3308C151.657 28.3094 152.519 28.254 152.67 28.2075C153.63 27.9111 154.123 26.8879 153.839 25.7797C153.773 25.5221 153.649 25.213 153.563 25.0927Z" fill="black"/>
<path fill-rule="evenodd" clip-rule="evenodd" d="M165.003 25.6618C163.291 25.9886 162.681 26.4309 163.032 27.09C163.244 27.4874 163.672 27.5408 164.607 27.2862C165.342 27.0865 166.528 27.0127 166.979 27.1389C167.388 27.2534 167.665 27.5308 167.775 27.9356C167.845 28.1911 167.897 28.3388 167.845 28.4246C167.768 28.5531 167.459 28.5425 166.63 28.5466C165.246 28.5535 164.568 28.6679 163.811 29.0218C162.809 29.491 162.323 30.1984 162.31 31.2096C162.301 31.8934 162.402 32.2755 162.72 32.7558C163.21 33.4944 164.029 33.8333 165.326 33.8327C166.078 33.8324 166.201 33.8121 166.611 33.6207C167.094 33.3955 167.485 33.0692 167.716 32.6989L167.858 32.4721L167.859 32.7745C167.859 33.2195 168.087 33.5427 168.472 33.6464C169.076 33.8091 169.6 33.5672 169.753 33.054C169.809 32.866 169.827 31.9703 169.808 30.3173C169.781 28.0329 169.767 27.8248 169.613 27.3607C169.338 26.5339 168.791 26.0234 167.868 25.7334C167.361 25.5744 165.681 25.5323 165.003 25.6618ZM165.886 32.3423C167.155 32.2661 167.859 31.5273 167.859 30.2699V29.788L167.084 29.8001C166.046 29.8163 165.861 29.8406 165.301 30.0333C164.967 30.1484 164.745 30.2843 164.564 30.4847C164.338 30.7345 164.305 30.8223 164.305 31.1681C164.306 31.999 164.852 32.4044 165.886 32.3423Z" fill="black"/>
<path fill-rule="evenodd" clip-rule="evenodd" d="M119.129 25.6418C118.921 25.6809 118.475 25.8458 118.138 26.0082C116.472 26.8111 115.649 28.8414 116.152 30.904C116.483 32.2601 117.451 33.2986 118.75 33.693C119.411 33.8935 121.03 33.8762 121.824 33.6602C122.523 33.4701 123.121 33.1782 123.282 32.9481C123.464 32.6882 123.433 32.2648 123.215 32.0295C122.965 31.76 122.649 31.7686 121.784 32.0686C121.197 32.2721 120.982 32.3086 120.338 32.3135C119.505 32.3198 119.141 32.2067 118.645 31.7878C118.373 31.5575 118.034 30.9221 118.033 30.6386L118.032 30.4685L120.66 30.4683C123.608 30.4682 123.691 30.4549 123.948 29.9392C124.109 29.6182 124.113 29.3116 123.967 28.6161C123.642 27.0661 122.588 25.9849 121.093 25.6684C120.507 25.5443 119.705 25.5335 119.129 25.6418ZM122.142 28.7862C122.016 28.1021 121.585 27.5354 120.99 27.2726C120.117 26.8864 118.988 27.1408 118.484 27.8373C118.293 28.1006 118.032 28.7546 118.032 28.9701C118.032 29.0041 118.967 29.0319 120.11 29.0319H122.187L122.142 28.7862Z" fill="black"/>
<path fill-rule="evenodd" clip-rule="evenodd" d="M95.1728 25.7395C94.6002 25.9415 94.1393 26.2664 93.7299 26.7564L93.4592 27.0804V26.8061C93.4592 26.4473 93.2924 26.0581 93.0724 25.904C92.852 25.7496 92.2407 25.7422 91.9539 25.8906C91.8984 25.9193 91.8501 25.9428 91.8082 25.9747C91.5265 26.1888 91.5312 26.78 91.5312 31.8672C91.5312 36.1621 91.5511 37.2703 91.6306 37.4097C91.8675 37.8251 92.4548 37.984 92.9652 37.7707C93.444 37.5707 93.4592 37.4795 93.4592 34.8198C93.4592 33.5077 93.4738 32.4343 93.4917 32.4343C93.5095 32.4343 93.7135 32.6329 93.9449 32.8755C94.7 33.667 95.5984 33.966 96.7733 33.8165C98.0089 33.6593 98.9175 33.1493 99.4904 32.2913C99.9116 31.6606 100.1 31.1196 100.202 30.2481C100.417 28.4191 99.6261 26.7341 98.2203 26.0257C97.2515 25.5374 96.0619 25.4257 95.1728 25.7395ZM98.0626 28.681C97.8324 28.0269 97.3023 27.4548 96.7537 27.2683C96.2964 27.1129 95.4305 27.1115 94.9959 27.2655C94.5414 27.4266 94.0309 27.9094 93.7861 28.4099C93.6073 28.7752 93.571 28.9564 93.548 29.598C93.5153 30.5113 93.6694 31.0125 94.1514 31.5602C94.591 32.0596 94.9566 32.2265 95.6998 32.2674C96.5256 32.3127 96.9946 32.1573 97.4718 31.6801C97.9733 31.1787 98.1546 30.7342 98.203 29.8874C98.2374 29.2857 98.2187 29.1247 98.0626 28.681Z" fill="black"/>
<path fill-rule="evenodd" clip-rule="evenodd" d="M84.3678 25.6321C82.3176 25.9771 81.033 27.355 80.8703 29.383C80.6531 32.091 82.7088 34.0143 85.6428 33.8482C87.3618 33.7508 88.7009 32.9543 89.3621 31.6359C89.8805 30.602 89.8833 28.8275 89.3682 27.8009C88.9461 26.9598 88.1564 26.2475 87.2593 25.8987C86.4773 25.5947 85.2576 25.4822 84.3678 25.6321ZM87.7668 29.9869C87.8633 28.7106 87.2936 27.6694 86.2924 27.2923C86.0118 27.1865 85.7077 27.1417 85.2717 27.1418C84.7464 27.1418 84.5808 27.1749 84.1964 27.3567C83.6885 27.597 83.3163 27.9753 83.0765 28.4949C82.8423 29.002 82.8391 30.4248 83.071 30.926C83.2957 31.4116 83.6667 31.8067 84.1147 32.0371C84.6661 32.3209 85.6767 32.3667 86.2895 32.1357C87.1438 31.8139 87.6885 31.0214 87.7668 29.9869Z" fill="black"/>
<path fill-rule="evenodd" clip-rule="evenodd" d="M69.9878 25.642C69.4119 25.752 68.556 26.1836 68.1373 26.5753C67.3064 27.3524 66.9046 28.3403 66.8919 29.6368C66.8788 30.959 67.2109 31.8931 67.9778 32.6918C68.7435 33.4892 69.7293 33.8679 71.0412 33.8685C72.1974 33.8692 73.7649 33.4144 74.1074 32.979C74.3182 32.711 74.3008 32.2795 74.0691 32.0295C73.8193 31.76 73.5029 31.7686 72.6379 32.0686C72.0509 32.2721 71.8361 32.3086 71.1924 32.3135C70.5774 32.3182 70.3728 32.2899 70.096 32.162C69.4302 31.8539 69.0417 31.3862 68.922 30.7485L68.8694 30.4685L71.5053 30.4683C74.4629 30.4682 74.5449 30.4551 74.8026 29.9392C74.963 29.6182 74.9673 29.3116 74.8213 28.6161C74.4959 27.0661 73.4417 25.9849 71.9472 25.6684C71.3612 25.5442 70.5565 25.5334 69.9878 25.642ZM72.9619 28.6927C72.8407 28.0441 72.4415 27.5367 71.8445 27.2726C71.1311 26.957 70.2439 27.0647 69.6167 27.5432C69.3453 27.7502 69.012 28.348 68.9238 28.7862L68.8743 29.0319H70.9497H73.0253L72.9619 28.6927Z" fill="black"/>
<path fill-rule="evenodd" clip-rule="evenodd" d="M52.5547 25.6061C50.9747 25.8706 49.7531 27.0111 49.3712 28.5782C49.2405 29.1147 49.2411 30.3141 49.3724 30.8465C49.7218 32.2637 50.6661 33.2915 51.9877 33.6933C52.6423 33.8923 54.2616 33.874 55.0615 33.6586C55.7582 33.4709 56.3573 33.1789 56.5189 32.9481C56.701 32.6882 56.6703 32.2648 56.4522 32.0295C56.2028 31.7603 55.8873 31.7686 55.021 32.0668C54.4389 32.2672 54.2138 32.3054 53.5755 32.3118C52.9579 32.318 52.757 32.2906 52.4791 32.162C51.8132 31.8539 51.4248 31.3862 51.3051 30.7485L51.2525 30.4685H53.8719C56.7073 30.4685 56.8775 30.4472 57.13 30.0618C57.3242 29.7654 57.3477 29.337 57.2074 28.6442C56.8893 27.0722 55.8415 25.9885 54.3303 25.6684C53.8364 25.5637 52.986 25.5339 52.5547 25.6061ZM55.3789 28.7862C55.2529 28.1021 54.822 27.5354 54.2276 27.2726C53.5142 26.957 52.627 27.0647 51.9998 27.5432C51.7283 27.7502 51.3951 28.348 51.3069 28.7862L51.2574 29.0319H53.3408H55.4241L55.3789 28.7862Z" fill="black"/>
<path fill-rule="evenodd" clip-rule="evenodd" d="M38.5153 22.712C38.3828 22.7717 38.2127 22.9337 38.1372 23.072C38.0087 23.3075 38 23.6309 38 28.1624C38 32.6955 38.0087 33.0173 38.1373 33.2531C38.3892 33.7146 38.5451 33.7382 41.096 33.7009C43.1267 33.6713 43.4321 33.6503 43.9687 33.504C46.1823 32.9007 47.404 31.3777 47.6352 28.9331C47.8262 26.9147 47.3026 25.1256 46.2038 24.0419C45.6216 23.4678 44.9042 23.0758 43.9687 22.8206C43.4273 22.673 43.1415 22.6542 41.0622 22.6301C39.177 22.6082 38.7122 22.6232 38.5153 22.712ZM45.5517 28.1246C45.5495 26.1557 44.8694 25.0248 43.409 24.5616C43.01 24.435 42.641 24.3969 41.4969 24.3639L40.0793 24.323V28.1617V32.0005L41.4969 31.9616C42.6517 31.9298 43.0062 31.8933 43.409 31.7646C44.8865 31.2919 45.5539 30.1582 45.5517 28.1246Z" fill="black"/>
<path d="M2.80188 23.1026C1.73482 19.1068 2.76866 14.6668 5.90339 11.532C10.5807 6.85472 18.1641 6.85472 22.8415 11.532C27.5188 16.2094 27.5188 23.7928 22.8415 28.4701C19.7067 31.6048 15.2667 32.6387 11.2709 31.5716" stroke="black" stroke-width="2.5" stroke-linecap="round" stroke-linejoin="round"/>
<path d="M17.9658 23.5935V16.4073M17.9658 16.4073H10.7795M17.9658 16.4073L5.98851 28.3842" stroke="#00A8A5" stroke-width="2.4" stroke-linecap="round" stroke-linejoin="round"/>
</svg>
