<svg width="20" height="21" viewBox="0 0 20 21" fill="none" xmlns="http://www.w3.org/2000/svg">
<g id="3-dots-horizontal">
<g id="Vector">
<path fill-rule="evenodd" clip-rule="evenodd" d="M8.33333 10.4997C8.33333 9.5792 9.07952 8.83301 10 8.83301C10.9205 8.83301 11.6667 9.5792 11.6667 10.4997C11.6667 11.4201 10.9205 12.1663 10 12.1663C9.07952 12.1663 8.33333 11.4201 8.33333 10.4997Z" fill="#6B7280"/>
<path fill-rule="evenodd" clip-rule="evenodd" d="M14.1667 10.4997C14.1667 9.5792 14.9129 8.83301 15.8333 8.83301C16.7538 8.83301 17.5 9.5792 17.5 10.4997C17.5 11.4201 16.7538 12.1663 15.8333 12.1663C14.9129 12.1663 14.1667 11.4201 14.1667 10.4997Z" fill="#6B7280"/>
<path fill-rule="evenodd" clip-rule="evenodd" d="M2.5 10.4997C2.5 9.5792 3.24619 8.83301 4.16667 8.83301C5.08714 8.83301 5.83333 9.5792 5.83333 10.4997C5.83333 11.4201 5.08714 12.1663 4.16667 12.1663C3.24619 12.1663 2.5 11.4201 2.5 10.4997Z" fill="#6B7280"/>
</g>
</g>
</svg>
