<svg width="20" height="20" viewBox="0 0 20 20" fill="none" xmlns="http://www.w3.org/2000/svg">
<g id="6-dots-vertical-solid">
<g id="Vector">
<path fill-rule="evenodd" clip-rule="evenodd" d="M5.41602 10C5.41602 9.07952 6.16221 8.33333 7.08268 8.33333C8.00316 8.33333 8.74935 9.07952 8.74935 10C8.74935 10.9205 8.00316 11.6667 7.08268 11.6667C6.16221 11.6667 5.41602 10.9205 5.41602 10Z" fill="#6B7280"/>
<path fill-rule="evenodd" clip-rule="evenodd" d="M5.41602 4.16667C5.41602 3.24619 6.16221 2.5 7.08268 2.5C8.00316 2.5 8.74935 3.24619 8.74935 4.16667C8.74935 5.08714 8.00316 5.83333 7.08268 5.83333C6.16221 5.83333 5.41602 5.08714 5.41602 4.16667Z" fill="#6B7280"/>
<path fill-rule="evenodd" clip-rule="evenodd" d="M5.41602 15.8333C5.41602 14.9129 6.16221 14.1667 7.08268 14.1667C8.00316 14.1667 8.74935 14.9129 8.74935 15.8333C8.74935 16.7538 8.00316 17.5 7.08268 17.5C6.16221 17.5 5.41602 16.7538 5.41602 15.8333Z" fill="#6B7280"/>
</g>
<g id="Vector_2">
<path fill-rule="evenodd" clip-rule="evenodd" d="M11.25 10C11.25 9.07952 11.9962 8.33333 12.9167 8.33333C13.8371 8.33333 14.5833 9.07952 14.5833 10C14.5833 10.9205 13.8371 11.6667 12.9167 11.6667C11.9962 11.6667 11.25 10.9205 11.25 10Z" fill="#6B7280"/>
<path fill-rule="evenodd" clip-rule="evenodd" d="M11.25 4.16667C11.25 3.24619 11.9962 2.5 12.9167 2.5C13.8371 2.5 14.5833 3.24619 14.5833 4.16667C14.5833 5.08714 13.8371 5.83333 12.9167 5.83333C11.9962 5.83333 11.25 5.08714 11.25 4.16667Z" fill="#6B7280"/>
<path fill-rule="evenodd" clip-rule="evenodd" d="M11.25 15.8333C11.25 14.9129 11.9962 14.1667 12.9167 14.1667C13.8371 14.1667 14.5833 14.9129 14.5833 15.8333C14.5833 16.7538 13.8371 17.5 12.9167 17.5C11.9962 17.5 11.25 16.7538 11.25 15.8333Z" fill="#6B7280"/>
</g>
</g>
</svg>
