<svg width="14" height="14" viewBox="0 0 14 14" fill="none" xmlns="http://www.w3.org/2000/svg">
<g id="alarm-clock-outline">
<path id="Vector" fill-rule="evenodd" clip-rule="evenodd" d="M3.3298 1.33785C3.5576 1.56565 3.5576 1.935 3.3298 2.1628L1.5798 3.9128C1.35199 4.14061 0.982645 4.14061 0.754839 3.9128C0.527033 3.685 0.527033 3.31565 0.754839 3.08785L2.50484 1.33785C2.73264 1.11004 3.10199 1.11004 3.3298 1.33785ZM10.6715 1.33785C10.8993 1.11004 11.2687 1.11004 11.4965 1.33785L13.2465 3.08785C13.4743 3.31565 13.4743 3.685 13.2465 3.9128C13.0187 4.14061 12.6493 4.14061 12.4215 3.9128L10.6715 2.1628C10.4437 1.935 10.4437 1.56565 10.6715 1.33785ZM3.28834 3.87135C4.27291 2.88678 5.60826 2.33366 7.00065 2.33366C8.39304 2.33366 9.7284 2.88678 10.713 3.87135C11.6975 4.85591 12.2507 6.19127 12.2507 7.58366C12.2507 8.7802 11.8422 9.93463 11.1025 10.8605L12.0798 11.8378C12.3076 12.0657 12.3076 12.435 12.0798 12.6628C11.852 12.8906 11.4826 12.8906 11.2548 12.6628L10.2775 11.6855C9.35162 12.4252 8.19719 12.8337 7.00065 12.8337C5.80411 12.8337 4.64968 12.4252 3.72379 11.6855L2.74646 12.6628C2.51866 12.8906 2.14931 12.8906 1.92151 12.6628C1.6937 12.435 1.6937 12.0657 1.92151 11.8378L2.89884 10.8605C2.15912 9.93463 1.75065 8.7802 1.75065 7.58366C1.75065 6.19127 2.30377 4.85591 3.28834 3.87135ZM7.00065 3.50033C5.91768 3.50033 4.87907 3.93053 4.1133 4.69631C3.34753 5.46208 2.91732 6.50069 2.91732 7.58366C2.91732 8.66663 3.34753 9.70524 4.1133 10.471C4.87907 11.2368 5.91768 11.667 7.00065 11.667C8.08362 11.667 9.12223 11.2368 9.888 10.471C10.6538 9.70524 11.084 8.66663 11.084 7.58366C11.084 6.50069 10.6538 5.46208 9.888 4.69631C9.12223 3.93053 8.08362 3.50033 7.00065 3.50033ZM7.00065 4.66699C7.32282 4.66699 7.58398 4.92816 7.58398 5.25033V7.34203L8.5798 8.33785C8.8076 8.56565 8.8076 8.935 8.5798 9.1628C8.35199 9.39061 7.98265 9.39061 7.75484 9.1628L6.58817 7.99614C6.47878 7.88674 6.41732 7.73837 6.41732 7.58366V5.25033C6.41732 4.92816 6.67848 4.66699 7.00065 4.66699Z"/>
</g>
</svg>
