<svg width="16" height="17" viewBox="0 0 16 17" fill="none" xmlns="http://www.w3.org/2000/svg">
<g id="alert-triangle-solid">
<path id="Vector" fill-rule="evenodd" clip-rule="evenodd" d="M8.54285 1.61306C8.19798 1.45971 7.80426 1.45971 7.45939 1.61306C7.19304 1.73149 7.02001 1.94011 6.89961 2.11009C6.78124 2.27722 6.6545 2.49617 6.51512 2.73696L1.00368 12.2567C0.863739 12.4984 0.73657 12.718 0.650343 12.9044C0.56271 13.0938 0.46764 13.3484 0.49794 13.6391C0.537147 14.0151 0.734174 14.3569 1.03998 14.5792C1.27631 14.751 1.54431 14.7964 1.75215 14.8154C1.95665 14.8342 2.21042 14.8342 2.48968 14.8341H13.5125C13.7918 14.8342 14.0456 14.8342 14.2501 14.8154C14.4579 14.7964 14.7259 14.751 14.9623 14.5792C15.2681 14.3569 15.4651 14.0151 15.5043 13.6391C15.5346 13.3484 15.4395 13.0938 15.3519 12.9044C15.2657 12.718 15.1385 12.4984 14.9986 12.2568L9.48711 2.73694C9.34774 2.49616 9.221 2.27721 9.10263 2.11009C8.98223 1.94011 8.80921 1.73149 8.54285 1.61306ZM8.66781 6.50081C8.66781 6.13262 8.36933 5.83415 8.00114 5.83415C7.63295 5.83415 7.33447 6.13262 7.33447 6.50081V9.16748C7.33447 9.53567 7.63295 9.83415 8.00114 9.83415C8.36933 9.83415 8.66781 9.53567 8.66781 9.16748V6.50081ZM8.00114 11.1675C7.63295 11.1675 7.33447 11.466 7.33447 11.8341C7.33447 12.2023 7.63295 12.5008 8.00114 12.5008H8.00781C8.376 12.5008 8.67447 12.2023 8.67447 11.8341C8.67447 11.466 8.376 11.1675 8.00781 11.1675H8.00114Z" fill="#F59F0A"/>
</g>
</svg>
