<svg width="16" height="17" viewBox="0 0 16 17" fill="none" xmlns="http://www.w3.org/2000/svg">
<g id="alert-circle-solid">
<path id="Vector" fill-rule="evenodd" clip-rule="evenodd" d="M8.0013 1.16699C3.95121 1.16699 0.667969 4.45024 0.667969 8.50033C0.667969 12.5504 3.95121 15.8337 8.0013 15.8337C12.0514 15.8337 15.3346 12.5504 15.3346 8.50033C15.3346 4.45024 12.0514 1.16699 8.0013 1.16699ZM8.66797 5.83366C8.66797 5.46547 8.36949 5.16699 8.0013 5.16699C7.63311 5.16699 7.33463 5.46547 7.33463 5.83366V8.50033C7.33463 8.86851 7.63311 9.16699 8.0013 9.16699C8.36949 9.16699 8.66797 8.86851 8.66797 8.50033V5.83366ZM8.0013 10.5003C7.63311 10.5003 7.33463 10.7988 7.33463 11.167C7.33463 11.5352 7.63311 11.8337 8.0013 11.8337H8.00797C8.37616 11.8337 8.67463 11.5352 8.67463 11.167C8.67463 10.7988 8.37616 10.5003 8.00797 10.5003H8.0013Z" fill="#EF4343"/>
</g>
</svg>
