<svg width="16" height="16" viewBox="0 0 16 16" fill="none" xmlns="http://www.w3.org/2000/svg">
<g id="alert-triangle-solid">
<path id="Vector" fill-rule="evenodd" clip-rule="evenodd" d="M8.54188 1.11208C8.197 0.958733 7.80329 0.958733 7.45841 1.11208C7.19206 1.23052 7.01904 1.43913 6.89864 1.60911C6.78026 1.77624 6.65352 1.99519 6.51414 2.23599L1.0027 11.7557C0.862763 11.9974 0.735594 12.217 0.649367 12.4034C0.561734 12.5928 0.466664 12.8475 0.496963 13.1381C0.53617 13.5142 0.733198 13.8559 1.03901 14.0782C1.27534 14.2501 1.54334 14.2954 1.75117 14.3144C1.95567 14.3332 2.20945 14.3332 2.4887 14.3332H13.5116C13.7908 14.3332 14.0446 14.3332 14.2491 14.3144C14.457 14.2954 14.725 14.2501 14.9613 14.0782C15.2671 13.8559 15.4641 13.5142 15.5033 13.1381C15.5336 12.8475 15.4386 12.5928 15.3509 12.4034C15.2647 12.217 15.1375 11.9974 14.9976 11.7558L9.48614 2.23596C9.34676 1.99518 9.22002 1.77623 9.10165 1.60911C8.98125 1.43913 8.80823 1.23052 8.54188 1.11208ZM8.66683 5.99984C8.66683 5.63165 8.36835 5.33317 8.00016 5.33317C7.63197 5.33317 7.3335 5.63165 7.3335 5.99984V8.6665C7.3335 9.03469 7.63197 9.33317 8.00016 9.33317C8.36835 9.33317 8.66683 9.03469 8.66683 8.6665V5.99984ZM8.00016 10.6665C7.63197 10.6665 7.3335 10.965 7.3335 11.3332C7.3335 11.7014 7.63197 11.9998 8.00016 11.9998H8.00683C8.37502 11.9998 8.6735 11.7014 8.6735 11.3332C8.6735 10.965 8.37502 10.6665 8.00683 10.6665H8.00016Z" fill="#EF4343"/>
</g>
</svg>
