<svg width="16" height="16" viewBox="0 0 16 16" fill="none" xmlns="http://www.w3.org/2000/svg">
<g id="arrow-circle-broken-up-right-outline" clip-path="url(#clip0_13107_12098)">
<path id="Vector" fill-rule="evenodd" clip-rule="evenodd" d="M12.2419 3.75769C9.89875 1.41454 6.09976 1.41454 3.75662 3.75768C2.18684 5.32747 1.66787 7.55104 2.20294 9.55469C2.29794 9.91041 2.08658 10.2758 1.73085 10.3708C1.37513 10.4658 1.00975 10.2544 0.914752 9.8987C0.261925 7.45412 0.893868 4.73482 2.81381 2.81488C5.67765 -0.0489689 10.3209 -0.0489691 13.1847 2.81488C16.0486 5.67872 16.0486 10.3219 13.1847 13.1858C11.2648 15.1057 8.54547 15.7377 6.10089 15.0848C5.74516 14.9898 5.5338 14.6245 5.6288 14.2687C5.72379 13.913 6.08917 13.7016 6.4449 13.7966C8.44854 14.3317 10.6721 13.8127 12.2419 12.243C14.585 9.89982 14.585 6.10083 12.2419 3.75769ZM5.33268 6.00039C5.33268 5.6322 5.63116 5.33373 5.99935 5.33373H9.99935C10.3675 5.33373 10.666 5.6322 10.666 6.00039V10.0004C10.666 10.3686 10.3675 10.6671 9.99935 10.6671C9.63116 10.6671 9.33268 10.3686 9.33268 10.0004V7.60984L3.80396 13.1384C3.54361 13.3988 3.1215 13.3988 2.86115 13.1384C2.6008 12.8781 2.60081 12.456 2.86116 12.1956L8.38985 6.66706H5.99935C5.63116 6.66706 5.33268 6.36858 5.33268 6.00039Z" fill="#00A8A5"/>
</g>
<defs>
<clipPath id="clip0_13107_12098">
<rect width="16" height="16" fill="white"/>
</clipPath>
</defs>
</svg>
