<svg width="17" height="16" viewBox="0 0 17 16" fill="none" xmlns="http://www.w3.org/2000/svg">
<g id="arrow-circle-up-solid">
<path id="Vector" fill-rule="evenodd" clip-rule="evenodd" d="M8.73372 15.3337C12.7838 15.3337 16.0671 12.0504 16.0671 8.00033C16.0671 3.95024 12.7838 0.666993 8.73372 0.666992C4.68364 0.666992 1.40039 3.95024 1.40039 8.00033C1.40039 12.0504 4.68364 15.3337 8.73372 15.3337ZM8.73372 11.3337C8.36553 11.3337 8.06706 11.0352 8.06706 10.667V6.94313L6.53846 8.47173C6.27811 8.73208 5.856 8.73208 5.59565 8.47173C5.3353 8.21138 5.3353 7.78927 5.59565 7.52892L8.26232 4.86225C8.52267 4.6019 8.94478 4.6019 9.20513 4.86225L11.8718 7.52892C12.1321 7.78927 12.1321 8.21138 11.8718 8.47173C11.6114 8.73208 11.1893 8.73208 10.929 8.47173L9.40039 6.94313V10.667C9.40039 11.0352 9.10191 11.3337 8.73372 11.3337Z" />
</g>
</svg>
