<svg width="20" height="20" viewBox="0 0 20 20" fill="none" xmlns="http://www.w3.org/2000/svg">
<g id="arrow-circle-broken-up-right-outline" clip-path="url(#clip0_6497_18372)">
<path id="Vector" fill-rule="evenodd" clip-rule="evenodd" d="M15.3033 4.69637C12.3744 1.76744 7.62564 1.76744 4.69671 4.69637C2.73448 6.6586 2.08577 9.43807 2.75461 11.9426C2.87335 12.3873 2.60915 12.844 2.1645 12.9628C1.71984 13.0815 1.26312 12.8173 1.14437 12.3726C0.328337 9.31691 1.11827 5.91779 3.51819 3.51786C7.098 -0.0619436 12.902 -0.0619438 16.4818 3.51786C20.0616 7.09767 20.0616 12.9017 16.4818 16.4815C14.0819 18.8814 10.6828 19.6713 7.62704 18.8553C7.18238 18.7366 6.91818 18.2798 7.03693 17.8352C7.15567 17.3905 7.6124 17.1263 8.05705 17.2451C10.5616 17.9139 13.3411 17.2652 15.3033 15.303C18.2322 12.374 18.2322 7.62531 15.3033 4.69637ZM6.66679 7.49976C6.66679 7.03952 7.03988 6.66643 7.50012 6.66643H12.5001C12.9604 6.66643 13.3335 7.03952 13.3335 7.49976V12.4998C13.3335 12.96 12.9604 13.3331 12.5001 13.3331C12.0399 13.3331 11.6668 12.96 11.6668 12.4998V9.51157L4.75588 16.4223C4.43044 16.7477 3.9028 16.7477 3.57737 16.4223C3.25194 16.0969 3.25194 15.5692 3.57738 15.2438L10.4882 8.33309H7.50012C7.03988 8.33309 6.66679 7.96 6.66679 7.49976Z" />
</g>
<defs>
<clipPath id="clip0_6497_18372">
<rect width="20" height="20" fill="white"/>
</clipPath>
</defs>
</svg>
