<svg width="16" height="17" viewBox="0 0 16 17" fill="none" xmlns="http://www.w3.org/2000/svg">
<g id="bell-02-outline">
<path id="Vector" fill-rule="evenodd" clip-rule="evenodd" d="M4.70064 2.53358C5.57581 1.65841 6.7628 1.16675 8.00048 1.16675C9.23815 1.16675 10.4251 1.65841 11.3003 2.53358C12.1755 3.40875 12.6671 4.59574 12.6671 5.83342C12.6671 7.7752 13.1551 9.06265 13.6667 9.88481L13.6746 9.89743C13.9128 10.2803 14.1011 10.5829 14.2281 10.8032C14.2917 10.9136 14.3496 11.0199 14.3926 11.1144C14.414 11.1616 14.4379 11.2194 14.4567 11.2823C14.4722 11.3344 14.5018 11.4459 14.4907 11.5816C14.4832 11.6728 14.4647 11.8286 14.3752 11.9896C14.2858 12.1506 14.1633 12.2487 14.0898 12.3032C13.9229 12.427 13.7313 12.4553 13.6674 12.4648L13.6644 12.4652C13.5661 12.4798 13.4546 12.487 13.3421 12.4914C13.1186 12.5001 12.8092 12.5001 12.4244 12.5001H3.57657C3.19176 12.5001 2.88233 12.5001 2.65883 12.4914C2.54632 12.487 2.43481 12.4798 2.33653 12.4652L2.33358 12.4648C2.26962 12.4553 2.07801 12.427 1.91115 12.3032C1.83765 12.2487 1.71517 12.1506 1.62573 11.9896C1.5363 11.8286 1.5177 11.6728 1.51024 11.5816C1.49915 11.4459 1.52875 11.3344 1.54428 11.2823C1.56301 11.2194 1.58697 11.1616 1.60839 11.1144C1.6513 11.0199 1.70926 10.9136 1.77287 10.8032C1.89982 10.5829 2.08813 10.2803 2.32633 9.89749L2.33422 9.88481C2.84581 9.06265 3.33381 7.7752 3.33381 5.83342C3.33381 4.59574 3.82547 3.40875 4.70064 2.53358ZM8.00048 2.50008C7.11642 2.50008 6.26857 2.85127 5.64345 3.47639C5.01833 4.10151 4.66714 4.94936 4.66714 5.83342C4.66714 8.01188 4.11577 9.54545 3.46628 10.5892C3.32439 10.8173 3.20596 11.0077 3.1092 11.166C3.24691 11.1667 3.40713 11.1667 3.59305 11.1667H12.4079C12.5938 11.1667 12.754 11.1667 12.8918 11.166C12.795 11.0077 12.6766 10.8173 12.5347 10.5892C11.8852 9.54545 11.3338 8.01188 11.3338 5.83342C11.3338 4.94936 10.9826 4.10151 10.3575 3.47639C9.73238 2.85127 8.88453 2.50008 8.00048 2.50008ZM6.00048 14.5001C6.00048 14.1319 6.29895 13.8334 6.66714 13.8334H9.33381C9.702 13.8334 10.0005 14.1319 10.0005 14.5001C10.0005 14.8683 9.702 15.1667 9.33381 15.1667H6.66714C6.29895 15.1667 6.00048 14.8683 6.00048 14.5001Z" />
</g>
</svg>
