<svg width="16" height="16" viewBox="0 0 16 16" fill="none" xmlns="http://www.w3.org/2000/svg">
<g id="briefcase-02-solid">
<path id="Vector" fill-rule="evenodd" clip-rule="evenodd" d="M7.90769 1.33304H8.09113C8.62139 1.33275 9.01517 1.33254 9.35627 1.42394C10.2765 1.67052 10.9953 2.38931 11.2419 3.30955C11.2968 3.51452 11.3186 3.7385 11.3273 3.99968H12.5584C12.9098 3.99966 13.213 3.99965 13.4627 4.02006C13.7263 4.04159 13.9884 4.08913 14.2407 4.21766C14.617 4.40941 14.9229 4.71537 15.1147 5.09169C15.2432 5.34395 15.2908 5.60609 15.3123 5.86966C15.3327 6.11937 15.3327 6.42254 15.3327 6.77396V11.8921C15.3327 12.2435 15.3327 12.5466 15.3123 12.7964C15.2908 13.0599 15.2432 13.3221 15.1147 13.5743C14.9229 13.9506 14.617 14.2566 14.2407 14.4484C13.9884 14.5769 13.7263 14.6244 13.4627 14.646C13.213 14.6664 12.9099 14.6664 12.5585 14.6663H3.44034C3.08894 14.6664 2.78569 14.6664 2.536 14.646C2.27244 14.6244 2.01029 14.5769 1.75804 14.4484C1.38171 14.2566 1.07575 13.9506 0.884005 13.5743C0.755475 13.3221 0.707931 13.0599 0.686397 12.7964C0.665996 12.5467 0.666005 12.2435 0.666016 11.8921V6.77398C0.666005 6.42257 0.665996 6.11936 0.686397 5.86966C0.707931 5.60609 0.755475 5.34395 0.884005 5.09169C1.07575 4.71537 1.38171 4.40941 1.75804 4.21766C2.01029 4.08913 2.27244 4.04159 2.536 4.02006C2.78571 3.99965 3.08889 3.99966 3.44031 3.99968H4.67156C4.68018 3.7385 4.70203 3.51452 4.75695 3.30955C5.00352 2.38931 5.72232 1.67052 6.64256 1.42394C6.98366 1.33254 7.37744 1.33275 7.90769 1.33304ZM6.00599 3.99968C6.01212 3.828 6.02363 3.73383 6.04485 3.65465C6.16814 3.19452 6.52753 2.83513 6.98766 2.71184C7.13584 2.67213 7.33651 2.66641 7.99941 2.66641C8.66232 2.66641 8.86299 2.67213 9.01117 2.71184C9.4713 2.83513 9.83069 3.19452 9.95398 3.65465C9.9752 3.73383 9.98671 3.828 9.99284 3.99968H6.00599ZM5.33268 5.99967C5.70087 5.99967 5.99935 6.29815 5.99935 6.66634V11.9997C5.99935 12.3679 5.70087 12.6663 5.33268 12.6663C4.96449 12.6663 4.66602 12.3679 4.66602 11.9997V6.66634C4.66602 6.29815 4.96449 5.99967 5.33268 5.99967ZM11.3327 6.66634C11.3327 6.29815 11.0342 5.99967 10.666 5.99967C10.2978 5.99967 9.99935 6.29815 9.99935 6.66634V11.9997C9.99935 12.3679 10.2978 12.6663 10.666 12.6663C11.0342 12.6663 11.3327 12.3679 11.3327 11.9997V6.66634Z" fill="#9CA3B0"/>
</g>
</svg>
