<svg width="16" height="16" viewBox="0 0 16 16" fill="none" xmlns="http://www.w3.org/2000/svg">
<g id="check-done-01-outline" clip-path="url(#clip0_9694_3495)">
<path id="Vector" fill-rule="evenodd" clip-rule="evenodd" d="M7.44032 0.666016H12.5584C12.9098 0.666004 13.213 0.665994 13.4627 0.686396C13.7263 0.70793 13.9884 0.755474 14.2407 0.884004C14.617 1.07575 14.923 1.38171 15.1147 1.75804C15.2432 2.01029 15.2908 2.27243 15.3123 2.536C15.3327 2.78571 15.3327 3.08888 15.3327 3.44031V8.55839C15.3327 8.90982 15.3327 9.21299 15.3123 9.4627C15.2908 9.72627 15.2432 9.98841 15.1147 10.2407C14.923 10.617 14.617 10.9229 14.2407 11.1147C13.9884 11.2432 13.7263 11.2908 13.4627 11.3123C13.213 11.3327 12.9098 11.3327 12.5584 11.3327H11.3327V12.5584C11.3327 12.9098 11.3327 13.213 11.3123 13.4627C11.2908 13.7263 11.2432 13.9884 11.1147 14.2407C10.9229 14.617 10.617 14.923 10.2407 15.1147C9.98841 15.2432 9.72627 15.2908 9.4627 15.3123C9.21299 15.3327 8.90982 15.3327 8.55839 15.3327H3.44031C3.08888 15.3327 2.78571 15.3327 2.536 15.3123C2.27243 15.2908 2.01029 15.2432 1.75804 15.1147C1.38171 14.923 1.07575 14.617 0.884004 14.2407C0.755474 13.9884 0.70793 13.7263 0.686396 13.4627C0.665994 13.213 0.666004 12.9098 0.666016 12.5584V7.44032C0.666004 7.08889 0.665994 6.78571 0.686396 6.536C0.70793 6.27243 0.755474 6.01029 0.884004 5.75804C1.07575 5.38171 1.38171 5.07575 1.75804 4.884C2.01029 4.75547 2.27243 4.70793 2.536 4.6864C2.78571 4.66599 3.08889 4.666 3.44032 4.66602L4.66602 4.66602L4.66602 3.44032C4.666 3.08889 4.66599 2.78571 4.6864 2.536C4.70793 2.27243 4.75547 2.01029 4.884 1.75804C5.07575 1.38171 5.38171 1.07575 5.75804 0.884004C6.01029 0.755474 6.27243 0.70793 6.536 0.686396C6.78571 0.665994 7.08889 0.666004 7.44032 0.666016ZM3.46602 5.99935C3.08165 5.99935 2.83347 5.99987 2.64457 6.0153C2.46347 6.0301 2.39632 6.05522 2.36336 6.07201C2.23792 6.13593 2.13593 6.23792 2.07201 6.36336C2.05522 6.39632 2.0301 6.46347 2.0153 6.64457C1.99987 6.83347 1.99935 7.08165 1.99935 7.46602V12.5327C1.99935 12.9171 1.99987 13.1652 2.0153 13.3541C2.0301 13.5352 2.05522 13.6024 2.07201 13.6353C2.13593 13.7608 2.23791 13.8628 2.36336 13.9267C2.39632 13.9435 2.46347 13.9686 2.64457 13.9834C2.83347 13.9988 3.08165 13.9994 3.46602 13.9994H8.53268C8.91705 13.9994 9.16524 13.9988 9.35413 13.9834C9.53524 13.9686 9.60238 13.9435 9.63534 13.9267C9.76079 13.8628 9.86277 13.7608 9.92669 13.6353C9.94348 13.6024 9.9686 13.5352 9.9834 13.3541C9.99883 13.1652 9.99935 12.9171 9.99935 12.5327V7.46602C9.99935 7.08165 9.99883 6.83347 9.9834 6.64457C9.9686 6.46347 9.94348 6.39632 9.92669 6.36336C9.86277 6.23792 9.76079 6.13593 9.63534 6.07201C9.60238 6.05522 9.53524 6.0301 9.35413 6.0153C9.16524 5.99987 8.91705 5.99935 8.53268 5.99935H3.46602ZM11.3327 9.99935V7.44034C11.3327 7.0889 11.3327 6.78572 11.3123 6.536C11.2908 6.27244 11.2432 6.01029 11.1147 5.75804C10.9229 5.38171 10.617 5.07575 10.2407 4.884C9.98841 4.75548 9.72627 4.70793 9.4627 4.6864C9.21299 4.66599 8.90981 4.666 8.55838 4.66602L5.99935 4.66602V3.46602C5.99935 3.08165 5.99987 2.83347 6.0153 2.64457C6.0301 2.46347 6.05522 2.39632 6.07201 2.36336C6.13593 2.23792 6.23792 2.13593 6.36336 2.07201C6.39632 2.05522 6.46347 2.0301 6.64457 2.0153C6.83347 1.99987 7.08165 1.99935 7.46602 1.99935H12.5327C12.9171 1.99935 13.1652 1.99987 13.3541 2.0153C13.5352 2.0301 13.6024 2.05522 13.6353 2.07201C13.7608 2.13593 13.8628 2.23791 13.9267 2.36336C13.9435 2.39632 13.9686 2.46347 13.9834 2.64457C13.9988 2.83347 13.9994 3.08165 13.9994 3.46602V8.53268C13.9994 8.91705 13.9988 9.16524 13.9834 9.35413C13.9686 9.53524 13.9435 9.60238 13.9267 9.63534C13.8628 9.76079 13.7608 9.86277 13.6353 9.92669C13.6024 9.94348 13.5352 9.9686 13.3541 9.9834C13.1652 9.99883 12.9171 9.99935 12.5327 9.99935H11.3327ZM8.80409 7.86128C9.06444 8.12163 9.06444 8.54374 8.80409 8.80409L5.80409 11.8041C5.54374 12.0644 5.12163 12.0644 4.86128 11.8041L3.52795 10.4708C3.2676 10.2104 3.2676 9.7883 3.52795 9.52795C3.7883 9.2676 4.21041 9.2676 4.47075 9.52795L5.33268 10.3899L7.86128 7.86128C8.12163 7.60093 8.54374 7.60093 8.80409 7.86128Z" fill="#008F8C"/>
</g>
<defs>
<clipPath id="clip0_9694_3495">
<rect width="16" height="16" fill="white"/>
</clipPath>
</defs>
</svg>
