<svg width="16" height="16" viewBox="0 0 16 16" fill="none" xmlns="http://www.w3.org/2000/svg">
<g id="check-circle-solid">
<path id="Vector" fill-rule="evenodd" clip-rule="evenodd" d="M7.99984 0.666504C3.94975 0.666504 0.666504 3.94975 0.666504 7.99984C0.666504 12.0499 3.94975 15.3332 7.99984 15.3332C12.0499 15.3332 15.3332 12.0499 15.3332 7.99984C15.3332 3.94975 12.0499 0.666504 7.99984 0.666504ZM11.4712 6.47124C11.7316 6.21089 11.7316 5.78878 11.4712 5.52843C11.2109 5.26808 10.7888 5.26808 10.5284 5.52843L6.99984 9.05703L5.47124 7.52843C5.21089 7.26808 4.78878 7.26808 4.52843 7.52843C4.26808 7.78878 4.26808 8.21089 4.52843 8.47124L6.52843 10.4712C6.78878 10.7316 7.21089 10.7316 7.47124 10.4712L11.4712 6.47124Z" fill="#21C45D"/>
</g>
</svg>
