<svg width="20" height="20" viewBox="0 0 20 20" fill="none" xmlns="http://www.w3.org/2000/svg">
<g id="clock-fast-forward-outline">
<path id="Vector" fill-rule="evenodd" clip-rule="evenodd" d="M10.0013 3.33366C6.3194 3.33366 3.33464 6.31843 3.33464 10.0003C3.33464 13.6822 6.3194 16.667 10.0013 16.667C12.0952 16.667 13.9633 15.7026 15.1868 14.1906C15.4763 13.8328 16.0011 13.7775 16.3588 14.067C16.7166 14.3565 16.772 14.8812 16.4824 15.239C14.9561 17.1253 12.6195 18.3337 10.0013 18.3337C5.39893 18.3337 1.66797 14.6027 1.66797 10.0003C1.66797 5.39795 5.39893 1.66699 10.0013 1.66699C14.2799 1.66699 17.8053 4.89144 18.2802 9.04286L18.3286 8.99449C18.654 8.66901 19.1816 8.66893 19.5071 8.99432C19.8326 9.3197 19.8327 9.84734 19.5073 10.1728L17.8411 11.8395C17.6848 11.9958 17.4729 12.0836 17.2519 12.0837C17.0309 12.0837 16.8189 11.9959 16.6626 11.8397L14.9954 10.173C14.6699 9.84761 14.6699 9.31998 14.9953 8.99449C15.3206 8.66901 15.8483 8.66893 16.1738 8.99432L16.647 9.46739C16.3755 6.03467 13.5038 3.33366 10.0013 3.33366ZM10.0013 5.00033C10.4615 5.00033 10.8346 5.37342 10.8346 5.83366V9.55434L12.9636 10.9736C13.3465 11.2289 13.45 11.7463 13.1947 12.1292C12.9394 12.5122 12.422 12.6157 12.0391 12.3604L9.53905 10.6937C9.30722 10.5391 9.16797 10.279 9.16797 10.0003V5.83366C9.16797 5.37342 9.54106 5.00033 10.0013 5.00033Z" fill="#4B5563"/>
</g>
</svg>
