<svg width="16" height="16" viewBox="0 0 16 16" fill="none" xmlns="http://www.w3.org/2000/svg">
<g id="clock-rewind-outline">
<path id="Vector" fill-rule="evenodd" clip-rule="evenodd" d="M8.00065 2.66732C5.05513 2.66732 2.66732 5.05513 2.66732 8.00065C2.66732 10.9462 5.05513 13.334 8.00065 13.334C10.5281 13.334 12.6449 11.5759 13.1949 9.21591L12.9386 9.47213C12.6782 9.73244 12.2561 9.73237 11.9958 9.47199C11.7355 9.2116 11.7356 8.78949 11.996 8.52918L13.3297 7.19584C13.4547 7.07084 13.6243 7.00063 13.8011 7.00065C13.9779 7.00068 14.1475 7.07094 14.2725 7.19598L15.6054 8.52932C15.8657 8.7897 15.8657 9.21181 15.6053 9.47213C15.3449 9.73244 14.9228 9.73237 14.6625 9.47199L14.5324 9.34183C13.9116 12.3809 11.2232 14.6673 8.00065 14.6673C4.31875 14.6673 1.33398 11.6826 1.33398 8.00065C1.33398 4.31875 4.31875 1.33398 8.00065 1.33398C10.4473 1.33398 12.5854 2.65238 13.7443 4.6143C13.9316 4.93131 13.8264 5.34011 13.5094 5.52738C13.1924 5.71464 12.7836 5.60946 12.5963 5.29245C11.6673 3.71977 9.95653 2.66732 8.00065 2.66732ZM8.00065 4.00065C8.36884 4.00065 8.66732 4.29913 8.66732 4.66732V7.64386L10.3705 8.77928C10.6768 8.98352 10.7596 9.39743 10.5554 9.70378C10.3511 10.0101 9.9372 10.0929 9.63085 9.88869L7.63085 8.55535C7.44538 8.43171 7.33398 8.22355 7.33398 8.00065V4.66732C7.33398 4.29913 7.63246 4.00065 8.00065 4.00065Z" />
</g>
</svg>
