<svg width="16" height="16" viewBox="0 0 16 16" fill="none" xmlns="http://www.w3.org/2000/svg">
<g id="clock-solid">
<path id="Vector" fill-rule="evenodd" clip-rule="evenodd" d="M0.666992 8.00033C0.666992 3.95024 3.95024 0.666992 8.00033 0.666992C12.0504 0.666992 15.3337 3.95024 15.3337 8.00033C15.3337 12.0504 12.0504 15.3337 8.00033 15.3337C3.95024 15.3337 0.666992 12.0504 0.666992 8.00033ZM8.66699 4.00033C8.66699 3.63214 8.36852 3.33366 8.00033 3.33366C7.63213 3.33366 7.33366 3.63214 7.33366 4.00033V8.00033C7.33366 8.25284 7.47633 8.48368 7.70218 8.59661L10.3688 9.92994C10.6982 10.0946 11.0986 9.96112 11.2633 9.6318C11.4279 9.30248 11.2945 8.90203 10.9651 8.73737L8.66699 7.5883V4.00033Z" />
</g>
</svg>
