<svg width="14" height="14" viewBox="0 0 14 14" fill="none" xmlns="http://www.w3.org/2000/svg">
<g id="coins-stacked-02-outline">
<path id="Vector" d="M4.37565 1.16699C6.45473 1.16699 8.16732 1.78975 8.16732 2.91699L8.16748 4.78001L8.22796 4.77022C8.66138 4.70193 9.13324 4.66699 9.62565 4.66699C11.7047 4.66699 13.4173 5.28975 13.4173 6.41699V11.0837C13.4173 12.2109 11.7048 12.8337 9.62565 12.8337C7.84042 12.8337 6.32544 12.3745 5.93283 11.5311C5.45382 11.62 4.92354 11.667 4.37565 11.667C2.29655 11.667 0.583984 11.0442 0.583984 9.91699V2.91699C0.583984 1.78975 2.29657 1.16699 4.37565 1.16699ZM9.62565 10.5003C8.61137 10.5003 7.68432 10.3521 7.00079 10.0694L7.00065 11.0837C7.00065 11.0766 7.16535 11.2182 7.55636 11.3604C8.08577 11.5529 8.82745 11.667 9.62565 11.667C10.4239 11.667 11.1655 11.5529 11.6949 11.3604C12.086 11.2182 12.2507 11.0766 12.2507 11.0837L12.2515 10.069C11.5679 10.352 10.6404 10.5003 9.62565 10.5003ZM1.75035 8.90258L1.75065 9.91699C1.75065 9.90996 1.91536 10.0516 2.30636 10.1937C2.83578 10.3863 3.57745 10.5003 4.37565 10.5003C4.84307 10.5003 5.29188 10.4613 5.69131 10.3896L5.83398 10.3615L5.83457 9.21408L5.68921 9.23868C5.27657 9.301 4.83223 9.33366 4.37565 9.33366C3.36116 9.33366 2.43393 9.18539 1.75035 8.90258ZM12.2515 7.73567C11.5679 8.01864 10.6404 8.16699 9.62565 8.16699C8.61115 8.16699 7.68392 8.01872 7.00035 7.73591L7.00061 8.74328C7.00064 8.74562 7.00065 8.74797 7.00065 8.75033C7.00065 8.74329 7.16535 8.88489 7.55636 9.02708C8.08577 9.21959 8.82745 9.33366 9.62565 9.33366C10.4239 9.33366 11.1655 9.21959 11.6949 9.02708C12.086 8.88489 12.2507 8.74329 12.2507 8.75033L12.2512 8.74216L12.2515 7.73567ZM1.75036 6.56924L1.75061 7.57659C1.75064 7.57894 1.75065 7.5813 1.75065 7.58366C1.75065 7.57662 1.91536 7.71823 2.30636 7.86041C2.83578 8.05292 3.57745 8.16699 4.37565 8.16699C4.90028 8.16699 5.40145 8.11782 5.83569 8.02847L5.83528 6.88207C5.38163 6.95949 4.8863 7.00033 4.37565 7.00033C3.36116 7.00033 2.43394 6.85205 1.75036 6.56924ZM9.62565 5.83366L9.42737 5.83601C8.78123 5.85141 8.18187 5.94156 7.71522 6.0868C7.69165 6.09418 7.669 6.10146 7.64679 6.10883L7.59448 6.12708L7.52963 6.15009C7.51745 6.15464 7.5055 6.15919 7.49377 6.16372C7.32013 6.23118 7.18114 6.30429 7.08494 6.37692C7.05067 6.4028 7.03008 6.4201 7.01784 6.4281C7.06869 6.46193 7.23708 6.57764 7.55636 6.69374C8.08577 6.88625 8.82745 7.00033 9.62565 7.00033C10.4239 7.00033 11.1655 6.88625 11.6949 6.69374C12.086 6.55156 12.2507 6.40996 12.2507 6.41699C12.2507 6.42403 12.0859 6.28243 11.6949 6.14025C11.1655 5.94773 10.4239 5.83366 9.62565 5.83366ZM7.00153 4.23566C6.31789 4.51863 5.39043 4.66699 4.37565 4.66699C3.36116 4.66699 2.43394 4.51872 1.75036 4.23591L1.75065 5.25033C1.75065 5.24328 1.91536 5.38489 2.30637 5.52707C2.83578 5.71959 3.57746 5.83366 4.37565 5.83366C5.04857 5.83366 5.68282 5.75278 6.1867 5.60997C6.263 5.53093 6.35288 5.45767 6.45358 5.38927C6.46721 5.38019 6.48074 5.37103 6.49445 5.36195C6.50063 5.35815 6.50654 5.35436 6.51249 5.35058C6.65578 5.2571 6.81954 5.17288 7.00035 5.09808L7.00153 4.23566ZM4.37565 2.33366L4.17737 2.33601C3.45532 2.35322 2.79166 2.46378 2.30637 2.64025C2.09582 2.71681 1.95089 2.7932 1.86196 2.84631L1.75065 2.91699C1.75065 2.90995 1.91536 3.05155 2.30637 3.19374C2.83578 3.38625 3.57746 3.50033 4.37565 3.50033C5.17385 3.50033 5.91552 3.38625 6.44494 3.19374C6.83594 3.05155 7.00065 2.90995 7.00065 2.91699C7.00065 2.92404 6.83594 2.78243 6.44494 2.64025C5.91552 2.44773 5.17385 2.33366 4.37565 2.33366Z" fill="#F59F0A"/>
</g>
</svg>
