<svg width="17" height="17" viewBox="0 0 17 17" fill="none" xmlns="http://www.w3.org/2000/svg">
<g id="coins-stacked-01-solid">
<g id="Vector">
<path d="M7.69795 14.5544C8.03811 14.4714 8.36519 14.3646 8.65642 14.2305C9.38752 15.184 10.5383 15.7988 11.8327 15.7988C14.0418 15.7988 15.8327 14.008 15.8327 11.7988C15.8327 9.58969 14.0418 7.79883 11.8327 7.79883C11.1041 7.79883 10.421 7.99362 9.83268 8.33396V7.59709C9.83268 7.52441 9.77376 7.4655 9.70108 7.4655C9.65644 7.4655 9.61518 7.48838 9.58913 7.52463C9.50661 7.63946 9.41041 7.73916 9.31249 7.82335C9.04384 8.05431 8.69411 8.23209 8.3199 8.36817C7.56601 8.64231 6.56871 8.79883 5.49935 8.79883C4.42999 8.79883 3.43268 8.64231 2.6788 8.36817C2.30459 8.23209 1.95486 8.05431 1.68621 7.82335C1.58829 7.73916 1.49209 7.63946 1.40957 7.52463C1.38352 7.48838 1.34226 7.4655 1.29761 7.4655C1.22493 7.4655 1.16602 7.52441 1.16602 7.59709V9.13216C1.16602 9.58366 1.41973 9.92758 1.68621 10.1567C1.95486 10.3876 2.30459 10.5654 2.6788 10.7015C3.43268 10.9756 4.42999 11.1322 5.49935 11.1322C6.56871 11.1322 7.56601 10.9756 8.3199 10.7015C8.69411 10.5654 9.04384 10.3876 9.31249 10.1567C9.41041 10.0725 9.50661 9.9728 9.58913 9.85796C9.61518 9.82171 9.65644 9.79883 9.70108 9.79883C9.77376 9.79883 9.83268 9.85775 9.83268 9.93043V10.4655C9.83268 10.917 9.57897 11.2609 9.31249 11.49C9.04384 11.721 8.69411 11.8988 8.3199 12.0348C7.56601 12.309 6.56871 12.4655 5.49935 12.4655C4.42999 12.4655 3.43268 12.309 2.6788 12.0348C2.30459 11.8988 1.95486 11.721 1.68621 11.49C1.58531 11.4033 1.48486 11.2932 1.4063 11.1881C1.38051 11.1536 1.34047 11.1322 1.29739 11.1322C1.22442 11.1322 1.16567 11.192 1.16663 11.265C1.17334 11.7761 1.16602 12.2877 1.16602 12.7988C1.16602 13.2503 1.41973 13.5942 1.68621 13.8233C1.95486 14.0543 2.30459 14.2321 2.6788 14.3682C3.43268 14.6423 4.42999 14.7988 5.49935 14.7988C6.30079 14.7988 7.05642 14.711 7.69795 14.5544Z"/>
<path fill-rule="evenodd" clip-rule="evenodd" d="M1.16602 5.46549V3.79883C1.16602 3.34733 1.41973 3.00341 1.68621 2.77431C1.93807 2.55778 2.26119 2.38799 2.60893 2.2555C2.63212 2.24666 2.65541 2.23799 2.6788 2.22949C3.43268 1.95535 4.42999 1.79883 5.49935 1.79883C6.56871 1.79883 7.56601 1.95535 8.3199 2.22949C8.69411 2.36556 9.04384 2.54335 9.31249 2.77431C9.57897 3.00341 9.83268 3.34733 9.83268 3.79883V5.46549C9.83268 5.91699 9.57897 6.26091 9.31249 6.49001C9.04384 6.72098 8.69411 6.89876 8.3199 7.03483C7.56601 7.30897 6.56871 7.4655 5.49935 7.4655C4.42999 7.4655 3.43268 7.30897 2.6788 7.03483C2.30459 6.89876 1.95486 6.72098 1.68621 6.49001C1.41973 6.26091 1.16602 5.91699 1.16602 5.46549Z"/>
</g>
</g>
</svg>
