<svg width="18" height="19" viewBox="0 0 18 19" fill="none" xmlns="http://www.w3.org/2000/svg">
<g id="copy-01-solid">
<g id="Vector">
<path fill-rule="evenodd" clip-rule="evenodd" d="M9.12109 6.5H14.1289C14.5243 6.49999 14.8653 6.49997 15.1463 6.52293C15.4428 6.54715 15.7377 6.60064 16.0215 6.74524C16.4448 6.96095 16.789 7.30516 17.0048 7.72852C17.1494 8.01231 17.2028 8.30722 17.2271 8.60373C17.25 8.88466 17.25 9.22574 17.25 9.62111V14.6289C17.25 15.0243 17.25 15.3653 17.2271 15.6463C17.2028 15.9428 17.1494 16.2377 17.0048 16.5215C16.789 16.9448 16.4448 17.289 16.0215 17.5048C15.7377 17.6494 15.4428 17.7028 15.1463 17.7271C14.8653 17.75 14.5243 17.75 14.1289 17.75H9.12111C8.72574 17.75 8.38466 17.75 8.10373 17.7271C7.80722 17.7028 7.51231 17.6494 7.22852 17.5048C6.80516 17.289 6.46095 16.9448 6.24523 16.5215C6.10064 16.2377 6.04715 15.9428 6.02293 15.6463C5.99997 15.3653 5.99999 15.0243 6 14.6289V9.62109C5.99999 9.22573 5.99997 8.88466 6.02293 8.60373C6.04715 8.30722 6.10064 8.01231 6.24523 7.72852C6.46095 7.30516 6.80516 6.96095 7.22852 6.74524C7.51231 6.60064 7.80722 6.54715 8.10373 6.52293C8.38466 6.49997 8.72573 6.49999 9.12109 6.5Z" fill="#21C45D" />
<path d="M8.87891 1.25H3.87109C3.47575 1.24999 3.13465 1.24998 2.85373 1.27293C2.55722 1.29715 2.26231 1.35064 1.97852 1.49524C1.55516 1.71095 1.21095 2.05516 0.995237 2.47852C0.850642 2.76231 0.797155 3.05722 0.772929 3.35373C0.749977 3.63465 0.749988 3.9757 0.750001 4.37105V9.37891C0.749988 9.77425 0.749977 10.1154 0.772929 10.3963C0.797155 10.6928 0.850642 10.9877 0.995237 11.2715C1.21095 11.6948 1.55516 12.0391 1.97852 12.2548C2.26231 12.3994 2.55722 12.4528 2.85373 12.4771C3.13466 12.5 3.47573 12.5 3.87109 12.5H4.5L4.49999 9.58937C4.4999 9.22289 4.49981 8.82553 4.52791 8.4816C4.55971 8.09233 4.63843 7.57804 4.90872 7.04756C5.26825 6.34195 5.84192 5.76827 6.54753 5.40875C7.07802 5.13845 7.59231 5.05973 7.98158 5.02793C8.32551 4.99983 8.72285 4.99992 9.08933 5.00001L12 5.00002V4.37111C12 3.97575 12 3.63466 11.9771 3.35373C11.9528 3.05722 11.8994 2.76231 11.7548 2.47852C11.5391 2.05516 11.1948 1.71095 10.7715 1.49524C10.4877 1.35064 10.1928 1.29715 9.89627 1.27293C9.61535 1.24998 9.27425 1.24999 8.87891 1.25Z" fill="#21C45D" />
</g>
</g>
</svg>
