<svg width="16" height="16" viewBox="0 0 16 16" fill="none" xmlns="http://www.w3.org/2000/svg">
<g id="copy-01-outline" clip-path="url(#clip0_12773_74519)">
<path id="Vector" fill-rule="evenodd" clip-rule="evenodd" d="M3.44032 0.666993L8.02067 0.666993C8.31311 0.666985 8.56543 0.666978 8.77427 0.681227C8.99416 0.696229 9.2141 0.729232 9.43138 0.819234C9.92144 1.02222 10.3108 1.41157 10.5138 1.90163C10.6038 2.11891 10.6368 2.33885 10.6518 2.55874C10.666 2.76758 10.666 3.0199 10.666 3.31233V3.33366C10.666 3.70185 10.3675 4.00033 9.99935 4.00033C9.63116 4.00033 9.33268 3.70185 9.33268 3.33366C9.33268 3.01391 9.33232 2.80749 9.32154 2.6495C9.31117 2.4975 9.29343 2.43961 9.28194 2.41187C9.21427 2.24852 9.08449 2.11874 8.92114 2.05107C8.8934 2.03958 8.83551 2.02184 8.68351 2.01147C8.52552 2.00069 8.3191 2.00033 7.99935 2.00033H3.46602C3.08165 2.00033 2.83347 2.00085 2.64457 2.01628C2.46347 2.03108 2.39632 2.05619 2.36336 2.07299C2.23792 2.1369 2.13593 2.23889 2.07201 2.36433C2.05522 2.3973 2.0301 2.46444 2.0153 2.64555C1.99987 2.83444 1.99935 3.08262 1.99935 3.46699V8.00033C1.99935 8.32008 1.99971 8.5265 2.01049 8.68449C2.02086 8.83649 2.03861 8.89437 2.0501 8.92212C2.11776 9.08547 2.24754 9.21525 2.41089 9.28291C2.43864 9.2944 2.49652 9.31215 2.64852 9.32252C2.80651 9.3333 3.01293 9.33366 3.33268 9.33366C3.70087 9.33366 3.99935 9.63214 3.99935 10.0003C3.99935 10.3685 3.70087 10.667 3.33268 10.667H3.31136C3.01893 10.667 2.7666 10.667 2.55776 10.6528C2.33788 10.6378 2.11794 10.6048 1.90065 10.5148C1.41059 10.3118 1.02125 9.92242 0.818258 9.43236C0.728255 9.21507 0.695253 8.99513 0.68025 8.77525C0.666001 8.56641 0.666008 8.31408 0.666016 8.02165L0.666016 3.4413C0.666004 3.08986 0.665994 2.78669 0.686396 2.53697C0.70793 2.27341 0.755474 2.01127 0.884004 1.75901C1.07575 1.38269 1.38171 1.07673 1.75804 0.88498C2.01029 0.756451 2.27243 0.708907 2.536 0.687373C2.78571 0.666971 3.08889 0.666981 3.44032 0.666993ZM8.10699 5.33366H12.5584C12.9098 5.33365 13.213 5.33364 13.4627 5.35404C13.7263 5.37557 13.9884 5.42312 14.2407 5.55165C14.617 5.74339 14.923 6.04936 15.1147 6.42568C15.2432 6.67793 15.2908 6.94008 15.3123 7.20364C15.3327 7.45335 15.3327 7.75652 15.3327 8.10795V12.5594C15.3327 12.9108 15.3327 13.214 15.3123 13.4637C15.2908 13.7272 15.2432 13.9894 15.1147 14.2416C14.9229 14.618 14.617 14.9239 14.2407 15.1157C13.9884 15.2442 13.7263 15.2917 13.4627 15.3133C13.213 15.3337 12.9098 15.3337 12.5584 15.3337H8.10697C7.75555 15.3337 7.45238 15.3337 7.20266 15.3133C6.9391 15.2917 6.67696 15.2442 6.4247 15.1157C6.04838 14.9239 5.74242 14.618 5.55067 14.2416C5.42214 13.9894 5.3746 13.7272 5.35306 13.4637C5.33266 13.214 5.33267 12.9108 5.33268 12.5594V8.10796C5.33267 7.75653 5.33266 7.45336 5.35306 7.20364C5.3746 6.94008 5.42214 6.67793 5.55067 6.42568C5.74242 6.04935 6.04838 5.74339 6.4247 5.55165C6.67696 5.42312 6.9391 5.37557 7.20266 5.35404C7.45238 5.33364 7.75556 5.33365 8.10699 5.33366ZM7.31124 6.68295C7.13013 6.69774 7.06299 6.72286 7.03002 6.73966C6.90458 6.80357 6.8026 6.90556 6.73868 7.031C6.72188 7.06396 6.69677 7.13111 6.68197 7.31222C6.66654 7.50111 6.66602 7.74929 6.66602 8.13366V12.5337C6.66602 12.918 6.66654 13.1662 6.68197 13.3551C6.69677 13.5362 6.72188 13.6034 6.73868 13.6363C6.80259 13.7618 6.90458 13.8637 7.03002 13.9277C7.06299 13.9445 7.13013 13.9696 7.31124 13.9844C7.50013 13.9998 7.74831 14.0003 8.13268 14.0003H12.5327C12.9171 14.0003 13.1652 13.9998 13.3541 13.9844C13.5352 13.9696 13.6024 13.9445 13.6353 13.9277C13.7608 13.8637 13.8628 13.7618 13.9267 13.6363C13.9435 13.6034 13.9686 13.5362 13.9834 13.3551C13.9988 13.1662 13.9994 12.918 13.9994 12.5337V8.13366C13.9994 7.74929 13.9988 7.50111 13.9834 7.31222C13.9686 7.13111 13.9435 7.06396 13.9267 7.031C13.8628 6.90556 13.7608 6.80357 13.6353 6.73966C13.6024 6.72286 13.5352 6.69774 13.3541 6.68295C13.1652 6.66751 12.9171 6.66699 12.5327 6.66699H8.13268C7.74831 6.66699 7.50013 6.66751 7.31124 6.68295Z" fill="#6B7280"/>
</g>
<defs>
<clipPath id="clip0_12773_74519">
<rect width="16" height="16" fill="white"/>
</clipPath>
</defs>
</svg>
