<svg width="16" height="16" viewBox="0 0 16 16" fill="none" xmlns="http://www.w3.org/2000/svg">
<g id="dataflow-01-outline">
<path id="Vector" fill-rule="evenodd" clip-rule="evenodd" d="M13.9987 12.6663C13.9987 12.2982 13.7002 11.9997 13.332 11.9997C12.9638 11.9997 12.6654 12.2982 12.6654 12.6663C12.6654 13.0345 12.9638 13.333 13.332 13.333C13.7002 13.333 13.9987 13.0345 13.9987 12.6663ZM13.9982 10.78C14.7753 11.0544 15.332 11.7953 15.332 12.6663C15.332 13.7709 14.4366 14.6663 13.332 14.6663C12.2275 14.6663 11.332 13.7709 11.332 12.6663C11.332 11.7957 11.8883 11.0551 12.6648 10.7803C12.6634 10.428 12.6583 10.1605 12.6403 9.94037C12.6165 9.64809 12.5732 9.49862 12.52 9.39435C12.3922 9.14347 12.1882 8.9395 11.9374 8.81167C11.8331 8.75854 11.6836 8.71526 11.3913 8.69138C11.0913 8.66686 10.7031 8.66634 10.132 8.66634H8.66537V10.7801C9.44216 11.0547 9.9987 11.7955 9.9987 12.6663C9.9987 13.7709 9.10327 14.6663 7.9987 14.6663C6.89413 14.6663 5.9987 13.7709 5.9987 12.6663C5.9987 11.7955 6.55524 11.0547 7.33203 10.7801V8.66634H5.86537C5.29431 8.66634 4.90612 8.66686 4.60606 8.69138C4.31378 8.71526 4.16431 8.75854 4.06004 8.81167C3.80916 8.9395 3.60519 9.14347 3.47736 9.39435C3.42423 9.49862 3.38095 9.64809 3.35707 9.94037C3.33908 10.1605 3.33401 10.428 3.33259 10.7803C4.10909 11.0551 4.66537 11.7957 4.66537 12.6663C4.66537 13.7709 3.76993 14.6663 2.66537 14.6663C1.5608 14.6663 0.665365 13.7709 0.665365 12.6663C0.665365 11.7953 1.22213 11.0544 1.99918 10.78C2.0006 10.4151 2.00619 10.1007 2.02816 9.83179C2.05878 9.45706 2.12449 9.11259 2.28935 8.78903C2.54501 8.28727 2.95296 7.87932 3.45472 7.62366C3.77828 7.4588 4.12275 7.39309 4.49748 7.36247C4.85828 7.33299 5.30118 7.333 5.83783 7.33301H7.33203V5.2192C6.55524 4.94465 5.9987 4.20382 5.9987 3.33301C5.9987 2.22844 6.89413 1.33301 7.9987 1.33301C9.10327 1.33301 9.9987 2.22844 9.9987 3.33301C9.9987 4.20382 9.44216 4.94465 8.66537 5.2192V7.33301H10.1596C10.6962 7.333 11.1391 7.33299 11.4999 7.36247C11.8746 7.39309 12.2191 7.4588 12.5427 7.62366C13.0444 7.87932 13.4524 8.28727 13.708 8.78903C13.8729 9.11259 13.9386 9.45706 13.9692 9.83179C13.9912 10.1007 13.9968 10.4151 13.9982 10.78ZM8.66537 3.33301C8.66537 2.96482 8.36689 2.66634 7.9987 2.66634C7.63051 2.66634 7.33203 2.96482 7.33203 3.33301C7.33203 3.7012 7.63051 3.99967 7.9987 3.99967C8.36689 3.99967 8.66537 3.7012 8.66537 3.33301ZM8.66537 12.6663C8.66537 12.2982 8.36689 11.9997 7.9987 11.9997C7.63051 11.9997 7.33203 12.2982 7.33203 12.6663C7.33203 13.0345 7.63051 13.333 7.9987 13.333C8.36689 13.333 8.66537 13.0345 8.66537 12.6663ZM3.33203 12.6663C3.33203 12.2982 3.03356 11.9997 2.66537 11.9997C2.29718 11.9997 1.9987 12.2982 1.9987 12.6663C1.9987 13.0345 2.29718 13.333 2.66537 13.333C3.03356 13.333 3.33203 13.0345 3.33203 12.6663Z" />
</g>
</svg>
