<svg width="20" height="21" viewBox="0 0 20 21" fill="none" xmlns="http://www.w3.org/2000/svg">
<g id="edit-03-duocolor">
<path id="Accent " opacity="0.4" fill-rule="evenodd" clip-rule="evenodd" d="M9.16699 17.1673C9.16699 16.7071 9.54009 16.334 10.0003 16.334H17.5003C17.9606 16.334 18.3337 16.7071 18.3337 17.1673C18.3337 17.6276 17.9606 18.0007 17.5003 18.0007H10.0003C9.54009 18.0007 9.16699 17.6276 9.16699 17.1673Z" fill="#111827"/>
<path id="Vector " fill-rule="evenodd" clip-rule="evenodd" d="M13.1612 2.82825C14.177 1.81246 15.8239 1.81246 16.8397 2.82825C17.8555 3.84404 17.8555 5.49097 16.8397 6.50676L6.37074 16.9757C6.35424 16.9922 6.33789 17.0086 6.32167 17.0248C6.08213 17.2648 5.87094 17.4764 5.61632 17.6324C5.39264 17.7695 5.14878 17.8705 4.89369 17.9318C4.60332 18.0015 4.30437 18.0012 3.96529 18.0009C3.94234 18.0009 3.9192 18.0008 3.89586 18.0008H2.50041C2.04017 18.0008 1.66708 17.6277 1.66708 17.1675V15.7721C1.66708 15.7487 1.66706 15.7256 1.66703 15.7027C1.66672 15.3636 1.66644 15.0646 1.73615 14.7743C1.79739 14.5192 1.8984 14.2753 2.03548 14.0516C2.19151 13.797 2.4031 13.5858 2.64308 13.3463C2.65933 13.33 2.67571 13.3137 2.69221 13.2972L13.1612 2.82825ZM15.6612 4.00676C15.2963 3.64184 14.7046 3.64184 14.3397 4.00676L3.87072 14.4757C3.55441 14.792 3.49609 14.8579 3.45654 14.9224C3.41085 14.997 3.37718 15.0783 3.35677 15.1633C3.3391 15.2369 3.33374 15.3248 3.33374 15.7721V16.3342H3.89586C4.34318 16.3342 4.43102 16.3288 4.50461 16.3111C4.58964 16.2907 4.67093 16.2571 4.74549 16.2114C4.81003 16.1718 4.87592 16.1135 5.19223 15.7972L15.6612 5.32825C16.0261 4.96333 16.0261 4.37168 15.6612 4.00676Z" fill="#111827"/>
</g>
</svg>
