<svg width="20" height="20" viewBox="0 0 20 20" fill="none" xmlns="http://www.w3.org/2000/svg">
<g id="eye-duotone">
<path id="Vector" fill-rule="evenodd" clip-rule="evenodd" d="M5.29861 6.86908C4.04337 7.91672 3.16495 9.14781 2.72107 9.85066C2.69162 9.89729 2.67101 9.92996 2.6538 9.95831C2.64244 9.97702 2.63494 9.98996 2.62993 9.99898C2.62992 9.99932 2.62992 9.99966 2.62992 9.99999C2.62992 10.0003 2.62992 10.0007 2.62993 10.001C2.63494 10.01 2.64244 10.023 2.6538 10.0417C2.67101 10.07 2.69162 10.1027 2.72107 10.1493C3.16495 10.8522 4.04337 12.0833 5.29861 13.1309C6.5519 14.1769 8.13061 15 10.0001 15C11.8695 15 13.4482 14.1769 14.7015 13.1309C15.9567 12.0833 16.8352 10.8522 17.279 10.1493C17.3085 10.1027 17.3291 10.07 17.3463 10.0417C17.3577 10.023 17.3652 10.01 17.3702 10.001C17.3702 10.0007 17.3702 10.0003 17.3702 9.99999C17.3702 9.99966 17.3702 9.99932 17.3702 9.99899C17.3652 9.98997 17.3577 9.97702 17.3463 9.95831C17.3291 9.92996 17.3085 9.89729 17.279 9.85066C16.8352 9.14781 15.9567 7.91672 14.7015 6.86908C13.4482 5.82308 11.8695 4.99999 10.0001 4.99999C8.13061 4.99999 6.5519 5.82308 5.29861 6.86908ZM4.23067 5.58952C5.67117 4.38726 7.61532 3.33333 10.0001 3.33333C12.3848 3.33333 14.3289 4.38726 15.7694 5.58952C17.208 6.79014 18.1942 8.17857 18.6882 8.9607C18.6947 8.97104 18.7014 8.98159 18.7083 8.99236C18.8063 9.14664 18.9336 9.34696 18.9979 9.62764C19.0498 9.85426 19.0498 10.1457 18.9979 10.3724C18.9336 10.653 18.8063 10.8534 18.7083 11.0076C18.7014 11.0184 18.6947 11.029 18.6882 11.0393C18.1942 11.8214 17.208 13.2098 15.7694 14.4105C14.3289 15.6127 12.3848 16.6667 10.0001 16.6667C7.61532 16.6667 5.67117 15.6127 4.23067 14.4105C2.79213 13.2098 1.80586 11.8214 1.3119 11.0393C1.30537 11.029 1.29867 11.0184 1.29183 11.0076C1.19381 10.8534 1.06655 10.653 1.00222 10.3724C0.95027 10.1457 0.95027 9.85426 1.00222 9.62764C1.06655 9.34696 1.19381 9.14664 1.29183 8.99235C1.29867 8.98158 1.30537 8.97104 1.3119 8.9607C1.80585 8.17857 2.79213 6.79014 4.23067 5.58952ZM10.0001 8.33333C9.07958 8.33333 8.33339 9.07952 8.33339 9.99999C8.33339 10.9205 9.07958 11.6667 10.0001 11.6667C10.9205 11.6667 11.6667 10.9205 11.6667 9.99999C11.6667 9.07952 10.9205 8.33333 10.0001 8.33333ZM6.66672 9.99999C6.66672 8.15905 8.1591 6.66666 10.0001 6.66666C11.841 6.66666 13.3334 8.15905 13.3334 9.99999C13.3334 11.8409 11.841 13.3333 10.0001 13.3333C8.1591 13.3333 6.66672 11.8409 6.66672 9.99999Z" fill="#111827"/>
</g>
</svg>
