<svg width="20" height="20" viewBox="0 0 20 20" fill="none" xmlns="http://www.w3.org/2000/svg">
<g id="eye-off-outline">
<path id="Vector" fill-rule="evenodd" clip-rule="evenodd" d="M1.91105 1.91075C2.23649 1.58531 2.76412 1.58531 3.08956 1.91075L6.12184 4.94302C6.17041 4.98161 6.21527 5.02616 6.25526 5.07645L14.9145 13.7356C14.9709 13.779 15.0226 13.8302 15.0677 13.8889L18.0896 16.9107C18.415 17.2362 18.415 17.7638 18.0896 18.0893C17.7641 18.4147 17.2365 18.4147 16.911 18.0893L14.2829 15.4611C13.0789 16.1657 11.6433 16.6667 10.0003 16.6667C7.61558 16.6667 5.67143 15.6127 4.23093 14.4105C2.79239 13.2099 1.80611 11.8214 1.31215 11.0393C1.30563 11.029 1.29893 11.0184 1.29208 11.0076C1.19405 10.8533 1.06678 10.653 1.00244 10.3723C0.950504 10.1456 0.950521 9.85413 1.00249 9.62749C1.06686 9.34675 1.1945 9.14591 1.29278 8.99125C1.29968 8.98039 1.30644 8.96976 1.31301 8.95935C1.81499 8.16472 2.83439 6.72938 4.32976 5.50797L1.91105 3.08926C1.58561 2.76382 1.58561 2.23619 1.91105 1.91075ZM5.5152 6.69341C4.14922 7.77183 3.19501 9.10082 2.72208 9.84947C2.6925 9.89629 2.67177 9.92916 2.65443 9.95769C2.64287 9.97673 2.63525 9.98988 2.63017 9.99903C2.63017 9.99935 2.63017 9.99967 2.63017 9.99999C2.63017 10.0003 2.63017 10.0007 2.63017 10.001C2.63519 10.01 2.64269 10.023 2.65404 10.0417C2.67126 10.07 2.69187 10.1027 2.72132 10.1493C3.16521 10.8522 4.04363 12.0833 5.29887 13.1309C6.55215 14.1769 8.13086 15 10.0003 15C11.1278 15 12.1481 14.7012 13.0561 14.2344L11.6935 12.8717C11.1973 13.1648 10.6181 13.3333 10.0003 13.3333C8.15936 13.3333 6.66697 11.841 6.66697 10C6.66697 9.38218 6.83555 8.80302 7.12861 8.30682L5.5152 6.69341ZM8.38996 9.56817C8.3532 9.70583 8.33364 9.85055 8.33364 10C8.33364 10.9205 9.07983 11.6667 10.0003 11.6667C10.1498 11.6667 10.2945 11.6471 10.4321 11.6104L8.38996 9.56817ZM10.0003 5.00001C9.68209 5.00001 9.37345 5.02375 9.0743 5.06798C8.61901 5.13529 8.19536 4.82077 8.12804 4.36549C8.06073 3.9102 8.37524 3.48655 8.83053 3.41923C9.20873 3.36332 9.59884 3.33334 10.0003 3.33334C12.385 3.33334 14.3292 4.38727 15.7697 5.58953C17.2082 6.79015 18.1945 8.17858 18.6885 8.96071C18.695 8.97105 18.7017 8.98159 18.7085 8.99236C18.8066 9.14668 18.9338 9.34703 18.9982 9.62776C19.0501 9.85441 19.0501 10.146 18.9981 10.3726C18.9337 10.6534 18.8059 10.8545 18.7074 11.0094C18.7005 11.0203 18.6937 11.031 18.6871 11.0414C18.4218 11.4613 18.0193 12.0484 17.486 12.6854C17.1905 13.0382 16.6649 13.0848 16.3121 12.7893C15.9592 12.4939 15.9126 11.9683 16.2081 11.6154C16.6842 11.0468 17.0437 10.5223 17.2781 10.1512C17.3078 10.1043 17.3286 10.0713 17.346 10.0427C17.3576 10.0234 17.3653 10.0102 17.3704 10.001C17.3704 10.0007 17.3704 10.0003 17.3704 10C17.3704 9.9997 17.3704 9.99936 17.3704 9.99902C17.3654 9.99 17.3579 9.97705 17.3466 9.95834C17.3294 9.92999 17.3087 9.89731 17.2793 9.85067C16.8354 9.14782 15.957 7.91673 14.7017 6.86909C13.4485 5.82309 11.8697 5.00001 10.0003 5.00001Z" fill="#111827"/>
</g>
</svg>
