<svg width="16" height="16" viewBox="0 0 16 16" fill="none" xmlns="http://www.w3.org/2000/svg">
<g id="file-download-03-duotone">
<path id="Fill" opacity="0.12" d="M12.7482 4.74825L9.91977 1.91982C9.74875 1.7488 9.54996 1.61196 9.33398 1.51367V4.26737C9.33398 4.64073 9.33398 4.82742 9.40665 4.97003C9.47056 5.09547 9.57255 5.19745 9.69799 5.26137C9.8406 5.33403 10.0273 5.33403 10.4007 5.33403H13.1543C13.0561 5.11806 12.9192 4.91926 12.7482 4.74825Z" fill="#111827"/>
<path id="Vector" fill-rule="evenodd" clip-rule="evenodd" d="M5.83913 0.666016L9.33333 0.666016C9.51015 0.666016 9.67971 0.736254 9.80474 0.861278L13.8047 4.86128C13.9298 4.9863 14 5.15587 14 5.33268V11.4936C14 12.0302 14 12.4731 13.9705 12.8339C13.9399 13.2086 13.8742 13.5531 13.7094 13.8767C13.4537 14.3784 13.0457 14.7864 12.544 15.042C12.2204 15.2069 11.8759 15.2726 11.5012 15.3032C11.1404 15.3327 10.6975 15.3327 10.1609 15.3327H5.83912C5.30248 15.3327 4.85958 15.3327 4.49878 15.3032C4.12405 15.2726 3.77958 15.2069 3.45603 15.042C2.95426 14.7864 2.54631 14.3784 2.29065 13.8767C2.12579 13.5531 2.06008 13.2086 2.02946 12.8339C1.99998 12.4731 1.99999 12.0302 2 11.4935V4.50515C1.99999 3.9685 1.99998 3.5256 2.02946 3.1648C2.06008 2.79007 2.12579 2.4456 2.29065 2.12204C2.54631 1.62028 2.95426 1.21233 3.45603 0.956666C3.77958 0.791805 4.12405 0.726095 4.49878 0.695479C4.85958 0.666 5.30249 0.666007 5.83913 0.666016ZM4.60736 2.02438C4.31508 2.04826 4.16561 2.09155 4.06135 2.14467C3.81046 2.27251 3.60649 2.47648 3.47866 2.72736C3.42553 2.83163 3.38225 2.9811 3.35837 3.27338C3.33385 3.57343 3.33333 3.96163 3.33333 4.53268V11.466C3.33333 12.0371 3.33385 12.4253 3.35837 12.7253C3.38225 13.0176 3.42553 13.1671 3.47866 13.2713C3.60649 13.5222 3.81046 13.7262 4.06135 13.854C4.16561 13.9072 4.31508 13.9504 4.60736 13.9743C4.90742 13.9988 5.29561 13.9993 5.86667 13.9993H10.1333C10.7044 13.9993 11.0926 13.9988 11.3926 13.9743C11.6849 13.9504 11.8344 13.9072 11.9387 13.854C12.1895 13.7262 12.3935 13.5222 12.5213 13.2713C12.5745 13.1671 12.6178 13.0176 12.6416 12.7253C12.6661 12.4253 12.6667 12.0371 12.6667 11.466V5.9994L10.3787 5.9994C10.2105 5.99942 10.0466 5.99944 9.90785 5.9881C9.75545 5.97565 9.57563 5.94627 9.39468 5.85407C9.1438 5.72624 8.93982 5.52227 8.81199 5.27138C8.71979 5.09044 8.69042 4.91061 8.67796 4.75822C8.66663 4.61944 8.66665 4.45558 8.66667 4.28732L8.66667 1.99935H5.86667C5.29561 1.99935 4.90742 1.99987 4.60736 2.02438ZM10 2.94216L11.7239 4.66606H10.4C10.2023 4.66606 10.0941 4.66555 10.0164 4.65919C10.0133 4.65894 10.0104 4.65869 10.0076 4.65843C10.0074 4.65566 10.0071 4.65274 10.0069 4.64964C10.0005 4.57192 10 4.46375 10 4.26606V2.94216ZM8 7.33268C8.36819 7.33268 8.66667 7.63116 8.66667 7.99935L8.66667 10.3899L9.5286 9.52795C9.78895 9.2676 10.2111 9.2676 10.4714 9.52795C10.7318 9.78829 10.7318 10.2104 10.4714 10.4708L8.47141 12.4708C8.34638 12.5958 8.17681 12.666 8 12.666C7.82319 12.666 7.65362 12.5958 7.5286 12.4708L5.5286 10.4708C5.26825 10.2104 5.26825 9.78829 5.5286 9.52795C5.78895 9.2676 6.21106 9.2676 6.47141 9.52795L7.33333 10.3899L7.33333 7.99935C7.33333 7.63116 7.63181 7.33268 8 7.33268Z"/>
</g>
</svg>
