<svg width="16" height="16" viewBox="0 0 16 16" fill="none" xmlns="http://www.w3.org/2000/svg">
<g id="filter-funnel-02-outline">
<path id="Vector" fill-rule="evenodd" clip-rule="evenodd" d="M3.02211 1.33399C3.0321 1.33399 3.04213 1.33399 3.05219 1.33399L12.9775 1.33399C13.3299 1.33397 13.6387 1.33395 13.881 1.35574C14.1135 1.37664 14.4325 1.42572 14.691 1.63917C15.0121 1.90428 15.1909 2.30417 15.1744 2.72023C15.1611 3.05521 14.9849 3.32569 14.8455 3.5129C14.7001 3.708 14.4942 3.93812 14.2593 4.20067L10.4351 8.4748C10.3812 8.535 10.3545 8.56501 10.336 8.58758C10.3355 8.58817 10.3351 8.58872 10.3346 8.58926C10.3346 8.58995 10.3346 8.59067 10.3345 8.59143C10.3333 8.6206 10.3332 8.66075 10.3332 8.74152V12.3062C10.3332 12.3135 10.3333 12.322 10.3334 12.3316C10.3343 12.4233 10.3364 12.6135 10.2701 12.7912C10.2143 12.9406 10.1237 13.0745 10.0057 13.1817C9.86534 13.3092 9.68793 13.378 9.60247 13.4112C9.59354 13.4146 9.58561 13.4177 9.57883 13.4204L7.29362 14.3345C7.18769 14.3769 7.07056 14.4238 6.96725 14.4546C6.85613 14.4878 6.67359 14.5311 6.46304 14.4874C6.20503 14.4338 5.97861 14.2805 5.833 14.0608C5.71419 13.8816 5.68665 13.696 5.67616 13.5805C5.66642 13.4732 5.66646 13.347 5.66649 13.2329L5.6665 8.74152C5.6665 8.66075 5.66636 8.6206 5.66511 8.59142C5.66508 8.59067 5.66505 8.58995 5.66502 8.58926C5.66458 8.58873 5.66412 8.58817 5.66365 8.58759C5.64512 8.56501 5.61845 8.535 5.56459 8.4748L1.76044 4.2231C1.75373 4.2156 1.74704 4.20813 1.74038 4.20069C1.50544 3.93813 1.29952 3.708 1.15418 3.5129C1.01473 3.32569 0.838574 3.05521 0.825271 2.72023C0.808749 2.30417 0.987543 1.90428 1.30862 1.63917C1.56714 1.42572 1.88617 1.37664 2.11867 1.35574C2.36098 1.33395 2.66979 1.33397 3.02211 1.33399ZM2.20228 2.68732C2.20865 2.69627 2.21569 2.70595 2.22346 2.71639C2.32849 2.85739 2.49313 3.04237 2.75409 3.33404L6.55825 7.58574C6.56505 7.59335 6.57206 7.60114 6.57923 7.60912C6.6576 7.69627 6.75629 7.80602 6.82955 7.93671C6.89312 8.0501 6.93976 8.17218 6.96799 8.29906C7.00054 8.44532 7.00018 8.59292 6.99989 8.71012C6.99986 8.72085 6.99983 8.73132 6.99983 8.74152V13.016L8.99983 12.216V8.74152C8.99983 8.73132 8.99981 8.72085 8.99978 8.71011C8.99949 8.59291 8.99912 8.44532 9.03167 8.29906C9.05991 8.17218 9.10655 8.0501 9.17011 7.93671C9.24338 7.80602 9.34207 7.69626 9.42043 7.60912C9.42761 7.60113 9.43461 7.59334 9.44141 7.58574L13.2456 3.33404C13.5065 3.04237 13.6712 2.85739 13.7762 2.71639C13.784 2.70596 13.791 2.69627 13.7974 2.68732C13.7865 2.68609 13.7746 2.68488 13.7616 2.68372C13.5865 2.66797 13.3388 2.66732 12.9475 2.66732H3.05219C2.66082 2.66732 2.41318 2.66797 2.23806 2.68372C2.22511 2.68488 2.2132 2.68609 2.20228 2.68732Z" fill="#111827"/>
</g>
</svg>
