<svg width="16" height="16" viewBox="0 0 16 16" fill="none" xmlns="http://www.w3.org/2000/svg">
<g id="flip-backward-outline">
<path id="Vector" fill-rule="evenodd" clip-rule="evenodd" d="M5.13823 2.86128C5.39858 3.12163 5.39858 3.54374 5.13823 3.80409L3.60964 5.33268H11.0002C13.0252 5.33268 14.6668 6.97431 14.6668 8.99935C14.6668 11.0244 13.0252 12.666 11.0002 12.666H8.00016C7.63197 12.666 7.3335 12.3675 7.3335 11.9993C7.3335 11.6312 7.63197 11.3327 8.00016 11.3327H11.0002C12.2888 11.3327 13.3335 10.288 13.3335 8.99935C13.3335 7.71068 12.2888 6.66602 11.0002 6.66602H3.60964L5.13823 8.19461C5.39858 8.45496 5.39858 8.87707 5.13823 9.13742C4.87788 9.39777 4.45577 9.39777 4.19542 9.13742L1.52876 6.47075C1.26841 6.2104 1.26841 5.78829 1.52876 5.52794L4.19543 2.86128C4.45577 2.60093 4.87788 2.60093 5.13823 2.86128Z" fill="white"/>
</g>
</svg>
