<svg width="16" height="17" viewBox="0 0 16 17" fill="none" xmlns="http://www.w3.org/2000/svg">
<g id="graduation-hat-01-solid">
<g id="Vector">
<path d="M14.9642 6.596C15.19 6.48307 15.3327 6.25223 15.3327 5.99972C15.3327 5.7472 15.19 5.51636 14.9642 5.40343L8.51896 2.18071C8.45676 2.14897 8.32804 2.08328 8.18375 2.05621C8.06188 2.03335 7.93682 2.03335 7.81495 2.05621C7.67066 2.08328 7.54194 2.14897 7.47974 2.18071L1.03454 5.40343C0.808684 5.51636 0.666016 5.7472 0.666016 5.99972C0.666016 6.25223 0.808684 6.48307 1.03454 6.596L7.52131 9.848C7.69657 9.93586 7.7842 9.97979 7.87614 9.99708C7.95757 10.0124 8.04113 10.0124 8.12256 9.99708C8.2145 9.97979 8.30213 9.93586 8.47739 9.848L14.9642 6.596Z" fill="#9CA3B0"/>
<path d="M13.3304 9.77654C13.3304 9.49028 13.3304 9.34715 13.2702 9.26112C13.2176 9.18595 13.1365 9.13585 13.0458 9.12244C12.9419 9.1071 12.814 9.17106 12.5582 9.29898L8.51896 11.3187C8.45676 11.3504 8.32804 11.4161 8.18375 11.4432C8.06188 11.466 7.93682 11.466 7.81495 11.4432C7.67066 11.4161 7.54193 11.3504 7.47974 11.3187L3.44043 9.29892C3.18461 9.17101 3.0567 9.10705 2.95283 9.12239C2.86208 9.13579 2.78099 9.18589 2.7284 9.26106C2.66821 9.34709 2.66819 9.49022 2.66814 9.77648C2.66806 10.2035 2.66745 10.6305 2.66583 11.0576C2.66513 11.2416 2.66425 11.4729 2.73883 11.6891C2.80327 11.8759 2.90845 12.0461 3.04673 12.1873C3.20677 12.3507 3.41403 12.4533 3.57893 12.535C4.80776 13.1455 6.03546 13.7583 7.26073 14.3758C7.3958 14.4439 7.56578 14.5296 7.75343 14.5648C7.91592 14.5953 8.08266 14.5953 8.24515 14.5648C8.43279 14.5296 8.60277 14.4439 8.73783 14.3759C9.9631 13.7584 11.1901 13.1439 12.4197 12.535C12.5846 12.4533 12.7918 12.3507 12.9519 12.1873C13.0901 12.0461 13.1953 11.8759 13.2598 11.6891C13.3343 11.4729 13.3335 11.2416 13.3328 11.0576C13.3311 10.6306 13.3305 10.2036 13.3304 9.77654Z"/>
</g>
</g>
</svg>
