<svg width="16" height="16" viewBox="0 0 16 16" fill="none" xmlns="http://www.w3.org/2000/svg">
<g id="hourglass-01-outline">
<path id="Vector" fill-rule="evenodd" clip-rule="evenodd" d="M2 1.33268C2 0.964492 2.29848 0.666016 2.66667 0.666016H13.3333C13.7015 0.666016 14 0.964492 14 1.33268C14 1.70087 13.7015 1.99935 13.3333 1.99935H12.6667V3.16722C12.6667 3.19318 12.6667 3.21879 12.6667 3.24408C12.6669 3.72031 12.6671 4.07997 12.5751 4.42207C12.494 4.72363 12.3605 5.0086 12.1808 5.26399C11.9769 5.55371 11.7005 5.78381 11.3344 6.08849C11.315 6.10467 11.2953 6.12105 11.2754 6.13767L9.04137 7.99935L11.2754 9.86103C11.2953 9.87765 11.315 9.89403 11.3344 9.91021C11.7005 10.2149 11.9769 10.445 12.1808 10.7347C12.3605 10.9901 12.494 11.2751 12.5751 11.5766C12.6671 11.9187 12.6669 12.2784 12.6667 12.7546C12.6667 12.7799 12.6667 12.8055 12.6667 12.8315V13.9993H13.3333C13.7015 13.9993 14 14.2978 14 14.666C14 15.0342 13.7015 15.3327 13.3333 15.3327H2.66667C2.29848 15.3327 2 15.0342 2 14.666C2 14.2978 2.29848 13.9993 2.66667 13.9993H3.33333V12.8315C3.33333 12.8055 3.33332 12.7799 3.33331 12.7546C3.33305 12.2784 3.33286 11.9187 3.4249 11.5766C3.50603 11.2751 3.63951 10.9901 3.81923 10.7347C4.02312 10.445 4.29955 10.2149 4.66556 9.91021C4.68499 9.89403 4.70468 9.87764 4.72462 9.86103L6.95863 7.99935L4.72462 6.13767C4.70468 6.12105 4.68499 6.10466 4.66556 6.08849C4.29954 5.78381 4.02312 5.5537 3.81923 5.26399C3.63951 5.0086 3.50603 4.72363 3.4249 4.42207C3.33286 4.07997 3.33305 3.72031 3.33331 3.24408C3.33332 3.21879 3.33333 3.19317 3.33333 3.16722V1.99935H2.66667C2.29848 1.99935 2 1.70087 2 1.33268ZM4.66667 1.99935V3.16722C4.66667 3.75422 4.67203 3.92541 4.71245 4.07567C4.75302 4.22645 4.81975 4.36893 4.90962 4.49663C4.99917 4.62387 5.12725 4.73758 5.5782 5.11338L8 7.13154L10.4218 5.11338C10.8728 4.73758 11.0008 4.62387 11.0904 4.49663C11.1802 4.36893 11.247 4.22645 11.2875 4.07567C11.328 3.92541 11.3333 3.75422 11.3333 3.16722V1.99935H4.66667ZM8 8.86715L5.5782 10.8853C5.12725 11.2611 4.99917 11.3748 4.90962 11.5021C4.81975 11.6298 4.75302 11.7722 4.71245 11.923C4.67203 12.0733 4.66667 12.2445 4.66667 12.8315V13.9993H11.3333V12.8315C11.3333 12.2445 11.328 12.0733 11.2875 11.923C11.247 11.7722 11.1802 11.6298 11.0904 11.5021C11.0008 11.3748 10.8728 11.2611 10.4218 10.8853L8 8.86715Z" fill="white"/>
</g>
</svg>
