<svg width="16" height="16" viewBox="0 0 16 16" fill="none" xmlns="http://www.w3.org/2000/svg">
<g id="info-circle-solid">
<path id="Vector" fill-rule="evenodd" clip-rule="evenodd" d="M8.00008 0.666016C3.94999 0.666016 0.666748 3.94926 0.666748 7.99935C0.666748 12.0494 3.94999 15.3327 8.00008 15.3327C12.0502 15.3327 15.3334 12.0494 15.3334 7.99935C15.3334 3.94926 12.0502 0.666016 8.00008 0.666016ZM8.00008 4.66602C7.63189 4.66602 7.33341 4.96449 7.33341 5.33268C7.33341 5.70087 7.63189 5.99935 8.00008 5.99935H8.00675C8.37494 5.99935 8.67341 5.70087 8.67341 5.33268C8.67341 4.96449 8.37494 4.66602 8.00675 4.66602H8.00008ZM8.66675 7.99935C8.66675 7.63116 8.36827 7.33268 8.00008 7.33268C7.63189 7.33268 7.33341 7.63116 7.33341 7.99935V10.666C7.33341 11.0342 7.63189 11.3327 8.00008 11.3327C8.36827 11.3327 8.66675 11.0342 8.66675 10.666V7.99935Z" fill="#F59F0A"/>
</g>
</svg>
