<svg width="16" height="17" viewBox="0 0 16 17" fill="none" xmlns="http://www.w3.org/2000/svg">
<g id="log-out-04-outline">
<path id="Vector" fill-rule="evenodd" clip-rule="evenodd" d="M0.666992 8.50016C0.666992 4.8422 3.52878 1.8335 7.11144 1.8335C8.28921 1.8335 9.39399 2.16091 10.3436 2.73137C10.6592 2.92097 10.7614 3.33053 10.5718 3.64615C10.3822 3.96177 9.97265 4.06394 9.65703 3.87434C8.907 3.42378 8.03843 3.16683 7.11144 3.16683C4.31214 3.16683 2.00033 5.53071 2.00033 8.50016C2.00033 11.4696 4.31214 13.8335 7.11144 13.8335C8.03843 13.8335 8.907 13.5765 9.65703 13.126C9.97265 12.9364 10.3822 13.0386 10.5718 13.3542C10.7614 13.6698 10.6592 14.0794 10.3436 14.269C9.39399 14.8394 8.28921 15.1668 7.11144 15.1668C3.52878 15.1668 0.666992 12.1581 0.666992 8.50016ZM11.5289 5.36209C11.7893 5.10174 12.2114 5.10174 12.4717 5.36209L15.1384 8.02876C15.3987 8.28911 15.3987 8.71122 15.1384 8.97157L12.4717 11.6382C12.2114 11.8986 11.7893 11.8986 11.5289 11.6382C11.2686 11.3779 11.2686 10.9558 11.5289 10.6954L13.0575 9.16683H6.00033C5.63214 9.16683 5.33366 8.86835 5.33366 8.50016C5.33366 8.13197 5.63214 7.8335 6.00033 7.8335H13.0575L11.5289 6.3049C11.2686 6.04455 11.2686 5.62244 11.5289 5.36209Z"/>
</g>
</svg>
