<svg width="100" height="20" viewBox="0 0 100 20" fill="none" xmlns="http://www.w3.org/2000/svg">
<g id="logo">
<g id="Vector">
<path d="M37.0383 1.50485C36.6441 1.06776 35.9706 1.03185 35.5335 1.42602L27.1963 8.93366H26.0085V2.25816C26.0085 1.66953 25.5312 1.19302 24.9434 1.19302C24.3557 1.19302 23.8783 1.67041 23.8783 2.25816V17.7412C23.8783 18.3298 24.3557 18.8063 24.9434 18.8063C25.5312 18.8063 26.0085 18.3289 26.0085 17.7412V11.0648H27.2673L35.5335 18.5085C35.7367 18.6916 35.9925 18.7818 36.2465 18.7818C36.5382 18.7818 36.8281 18.6627 37.0383 18.4297C37.4325 17.9926 37.3966 17.3181 36.9595 16.9248L29.2329 9.96726L36.9595 3.00971C37.3966 2.61554 37.4316 1.94195 37.0383 1.50485Z" fill="#00A8A5"/>
<path d="M54.6656 9.07999C54.6971 9.0502 54.7295 9.02217 54.7611 8.99152C55.6256 8.15325 56.1267 6.94446 56.1267 5.73654C56.1258 4.5295 55.6256 3.32072 54.7611 2.48157C54.3301 2.06112 53.8177 1.72652 53.2597 1.50403C52.7009 1.28504 52.0991 1.17555 51.5061 1.1922H43.8776C43.8434 1.1922 43.8093 1.19395 43.776 1.19745C43.2355 1.24913 42.8125 1.70374 42.8125 2.25821V17.7412C42.8125 18.2948 43.2347 18.7503 43.7751 18.802C43.8093 18.8055 43.8434 18.8072 43.8776 18.8072H51.8311C51.8346 18.8072 51.8381 18.8064 51.8416 18.8064C52.5231 18.8213 53.2142 18.6934 53.8554 18.4402C54.4992 18.1818 55.0896 17.7947 55.5862 17.3094C56.5821 16.3397 57.1594 14.947 57.1594 13.5543C57.1594 12.1615 56.583 10.7688 55.5862 9.79913C55.3077 9.52584 54.9976 9.28495 54.6656 9.07999ZM53.279 3.96365C53.738 4.43841 54.0025 5.07959 53.9955 5.73654C54.0025 6.39349 53.738 7.03468 53.279 7.50944C52.8209 7.98594 52.1814 8.2715 51.5061 8.30216H44.9436V3.17093H51.5061C52.1814 3.20247 52.8209 3.48714 53.279 3.96365ZM54.105 15.8273C53.5164 16.4352 52.6921 16.797 51.832 16.8276L51.8179 16.8285H44.9436V10.2818H51.5236C51.5937 10.2835 51.6646 10.2835 51.7347 10.2818H51.8311C52.6912 10.3124 53.5146 10.6742 54.1041 11.2821C54.6945 11.8874 55.0352 12.7125 55.0282 13.5551C55.0361 14.3969 54.6954 15.2212 54.105 15.8273Z" fill="#00A8A5"/>
<path d="M75.6319 1.19215C75.3096 1.19215 74.9881 1.34895 74.7893 1.6056L64.7239 14.6211V2.25817C64.7239 1.66954 64.2465 1.19303 63.6588 1.19303C63.0702 1.19303 62.5937 1.67041 62.5937 2.25817V17.7412C62.5937 18.3263 63.071 18.8063 63.657 18.8063C63.6711 18.8063 64.1607 18.8326 64.5023 18.3929L74.5677 5.37737V17.7403C74.5677 18.3289 75.0451 18.8055 75.6328 18.8055C76.2214 18.8055 76.698 18.3281 76.698 17.7403V2.25817C76.6971 1.67742 76.2241 1.19215 75.6319 1.19215Z" fill="#00A8A5"/>
<path d="M98.8792 6.48017C98.4158 5.36773 97.7318 4.35165 96.8803 3.50286C96.0281 2.65584 95.0085 1.97786 93.896 1.5215C92.7845 1.06339 91.5818 0.831266 90.3844 0.833018C89.187 0.83477 87.9852 1.0704 86.8763 1.53114C85.7665 1.99013 84.7513 2.66985 83.9025 3.51776C83.0555 4.36566 82.3748 5.38175 81.9159 6.49156C81.4551 7.60049 81.2195 8.80227 81.2177 9.99967C81.2195 11.1971 81.4551 12.3989 81.9159 13.5078C82.3748 14.6176 83.0546 15.6328 83.9025 16.4816C84.7504 17.3286 85.7665 18.0092 86.8763 18.4682C87.9852 18.929 89.187 19.1646 90.3844 19.1663C91.5818 19.1681 92.7845 18.936 93.896 18.4778C95.0085 18.0215 96.0272 17.3435 96.8803 16.4965C97.7318 15.6486 98.4158 14.6316 98.8792 13.5192C99.3443 12.4076 99.5835 11.2023 99.5887 9.99967C99.5835 8.79702 99.3435 7.59173 98.8792 6.48017ZM96.9968 12.7378C96.6421 13.6041 96.113 14.4004 95.4517 15.067C94.7895 15.7327 93.9959 16.2679 93.1305 16.6296C92.265 16.9923 91.3278 17.1815 90.3844 17.1867C89.441 17.185 88.5029 17.0001 87.6348 16.6393C86.7668 16.2801 85.9688 15.7467 85.3031 15.0818C84.6374 14.4153 84.1048 13.6182 83.7457 12.7492C83.3857 11.8812 83.2009 10.9431 83.1982 9.99967C83.2 9.05629 83.3857 8.11817 83.7457 7.25011C84.1048 6.38206 84.6383 5.58409 85.3031 4.9175C85.9697 4.25179 86.7668 3.71922 87.6348 3.36009C88.5029 3.00008 89.441 2.81526 90.3844 2.81263C91.3278 2.81789 92.265 3.00621 93.1305 3.36972C93.9959 3.73148 94.7895 4.26668 95.4517 4.93239C96.113 5.59898 96.6421 6.3952 96.9968 7.2615C97.3533 8.12692 97.5338 9.06155 97.5338 9.99967C97.5338 10.9378 97.3533 11.8715 96.9968 12.7378Z" fill="#00A8A5"/>
<path d="M16.2479 1.42746L14.4076 3.08473C14.0485 2.77552 13.6674 2.49172 13.2654 2.24033C10.7374 0.722332 8.51256 0.84146 8.52745 0.842336C8.2305 0.831824 7.74611 0.856351 7.76013 0.856351C6.97529 0.875621 5.57555 1.16468 4.42895 1.72615C3.50571 2.172 2.64993 2.76238 1.92115 3.48415C1.19412 4.2068 0.579216 5.04244 0.113219 5.95954C0.111467 5.96305 0.107087 5.97093 0.105336 5.97444C-0.14343 6.48423 0.0694225 7.10001 0.579216 7.3479C1.08901 7.59579 1.70479 7.38382 1.95268 6.87402L1.95706 6.86526C2.30743 6.14525 2.77168 5.47866 3.33491 4.90492C3.89988 4.33381 4.56559 3.86431 5.28474 3.51219C6.18958 3.06546 7.288 2.81582 8.34175 2.82107C9.1625 2.82545 10.6244 2.97436 12.1766 3.95453C12.4175 4.1122 12.6487 4.28388 12.8695 4.46783L7.6375 9.17861C7.20041 9.57278 7.16537 10.2464 7.55866 10.6835C7.76889 10.9173 8.0597 11.0365 8.35051 11.0365C8.60453 11.0365 8.85943 10.9462 9.06352 10.7623L14.2911 6.05502C14.6169 6.55431 14.8736 7.09738 15.0663 7.65798C15.3229 8.41041 15.4535 9.20226 15.4613 9.99936C15.4535 10.7973 15.3238 11.5892 15.0663 12.3416C14.8088 13.0923 14.4374 13.8105 13.9372 14.4342C13.4432 15.0614 12.8467 15.6088 12.1757 16.0459C10.8548 16.8798 9.63551 17.1741 8.31022 17.182C7.37997 17.1873 6.24126 16.9604 5.28386 16.4883C4.56384 16.1362 3.89901 15.6667 3.33403 15.0955C2.7708 14.5227 2.30656 13.8552 1.95619 13.1352L1.94918 13.1212C1.94743 13.1177 1.94567 13.1142 1.94392 13.1107C1.68727 12.6044 1.06886 12.4029 0.562574 12.6596C0.0562833 12.9162 -0.145181 13.5346 0.111468 14.0409C0.576589 14.958 1.19237 15.7937 1.9194 16.5163C2.6473 17.2381 3.50309 17.8285 4.4272 18.2743C6.40593 19.244 8.22262 19.1651 8.33386 19.1651C10.119 19.1634 11.7544 18.6659 13.2636 17.7601C14.1343 17.2144 14.9139 16.5259 15.563 15.7262C16.8786 14.1329 17.5706 12.0596 17.5925 9.99936C17.5723 8.09683 16.9793 6.18466 15.8529 4.64827L17.6722 3.01027C18.1093 2.6161 18.1443 1.94251 17.751 1.50542C17.3595 1.0692 16.685 1.03329 16.2479 1.42746Z" fill="#00A8A5"/>
</g>
</g>
</svg>
