<svg width="145" height="32" viewBox="0 0 145 32" fill="none" xmlns="http://www.w3.org/2000/svg">
<path d="M29.6307 9.20349C29.3153 8.85382 28.7764 8.82509 28.4268 9.14043L21.7571 15.1465H20.8068V9.80614C20.8068 9.33523 20.4249 8.95403 19.9547 8.95403C19.4845 8.95403 19.1026 9.33593 19.1026 9.80614V22.1926C19.1026 22.6635 19.4845 23.0447 19.9547 23.0447C20.4249 23.0447 20.8068 22.6628 20.8068 22.1926V16.8515H21.8138L28.4268 22.8064C28.5893 22.9529 28.794 23.025 28.9972 23.025C29.2305 23.025 29.4625 22.9297 29.6307 22.7433C29.946 22.3937 29.9173 21.8541 29.5676 21.5395L23.3863 15.9734L29.5676 10.4074C29.9173 10.092 29.9453 9.55317 29.6307 9.20349Z" fill="#00A8A5"/>
<path d="M43.7325 15.2636C43.7577 15.2398 43.7836 15.2173 43.8089 15.1928C44.5005 14.5222 44.9013 13.5552 44.9013 12.5888C44.9006 11.6232 44.5005 10.6562 43.8089 9.98487C43.4641 9.64851 43.0542 9.38082 42.6078 9.20283C42.1607 9.02764 41.6793 8.94005 41.2049 8.95337H35.1021C35.0747 8.95337 35.0474 8.95477 35.0208 8.95757C34.5884 8.99891 34.25 9.3626 34.25 9.80617V22.1926C34.25 22.6355 34.5877 22.9999 35.0201 23.0412C35.0474 23.044 35.0747 23.0454 35.1021 23.0454H41.4649C41.4677 23.0454 41.4705 23.0447 41.4733 23.0447C42.0185 23.0566 42.5713 22.9543 43.0843 22.7518C43.5993 22.5451 44.0716 22.2353 44.469 21.8471C45.2657 21.0714 45.7275 19.9572 45.7275 18.843C45.7275 17.7288 45.2664 16.6146 44.469 15.8389C44.2461 15.6203 43.9981 15.4276 43.7325 15.2636ZM42.6232 11.1705C42.9904 11.5503 43.202 12.0633 43.1964 12.5888C43.202 13.1144 42.9904 13.6274 42.6232 14.0072C42.2567 14.3884 41.7452 14.6168 41.2049 14.6413H35.9549V10.5364H41.2049C41.7452 10.5616 42.2567 10.7893 42.6232 11.1705ZM43.284 20.6615C42.8131 21.1478 42.1537 21.4372 41.4656 21.4617L41.4544 21.4624H35.9549V16.225H41.2189C41.275 16.2264 41.3317 16.2264 41.3878 16.225H41.4649C42.153 16.2496 42.8117 16.539 43.2833 17.0253C43.7556 17.5095 44.0282 18.1696 44.0226 18.8437C44.0289 19.5171 43.7563 20.1765 43.284 20.6615Z" fill="#00A8A5"/>
<path d="M60.5056 8.95333C60.2477 8.95333 59.9905 9.07877 59.8314 9.28409L51.7792 19.6965V9.80614C51.7792 9.33524 51.3972 8.95403 50.927 8.95403C50.4561 8.95403 50.0749 9.33594 50.0749 9.80614V22.1926C50.0749 22.6607 50.4568 23.0447 50.9256 23.0447C50.9368 23.0447 51.3286 23.0657 51.6019 22.7139L59.6542 12.3015V22.1919C59.6542 22.6628 60.0361 23.044 60.5063 23.044C60.9772 23.044 61.3584 22.6621 61.3584 22.1919V9.80614C61.3577 9.34155 60.9793 8.95333 60.5056 8.95333Z" fill="#00A8A5"/>
<path d="M79.1034 13.1837C78.7327 12.2938 78.1854 11.4809 77.5043 10.8019C76.8224 10.1243 76.0068 9.5819 75.1168 9.21681C74.2276 8.85032 73.2655 8.66462 72.3075 8.66602C71.3496 8.66742 70.3882 8.85593 69.501 9.22452C68.6132 9.59171 67.801 10.1355 67.122 10.8138C66.4444 11.4921 65.8999 12.305 65.5327 13.1929C65.1641 14.08 64.9756 15.0414 64.9742 15.9993C64.9756 16.9573 65.1641 17.9187 65.5327 18.8058C65.8999 19.6937 66.4437 20.5059 67.122 21.1849C67.8003 21.8625 68.6132 22.407 69.501 22.7742C70.3882 23.1428 71.3496 23.3313 72.3075 23.3327C73.2655 23.3341 74.2276 23.1484 75.1168 22.7819C76.0068 22.4168 76.8217 21.8744 77.5043 21.1968C78.1854 20.5185 78.7327 19.7049 79.1034 18.815C79.4755 17.9257 79.6668 16.9615 79.671 15.9993C79.6668 15.0372 79.4748 14.073 79.1034 13.1837ZM77.5975 18.1899C77.3137 18.8829 76.8904 19.5199 76.3614 20.0532C75.8316 20.5857 75.1967 21.0139 74.5044 21.3033C73.812 21.5934 73.0622 21.7448 72.3075 21.749C71.5528 21.7476 70.8023 21.5997 70.1079 21.311C69.4134 21.0237 68.7751 20.597 68.2425 20.0651C67.7099 19.5318 67.2839 18.8941 66.9966 18.199C66.7086 17.5046 66.5607 16.7541 66.5586 15.9993C66.56 15.2446 66.7086 14.4941 66.9966 13.7997C67.2839 13.1053 67.7106 12.4669 68.2425 11.9336C68.7758 11.401 69.4134 10.975 70.1079 10.6877C70.8023 10.3997 71.5528 10.2518 72.3075 10.2497C73.0622 10.2539 73.812 10.4046 74.5044 10.6954C75.1967 10.9848 75.8316 11.413 76.3614 11.9455C76.8904 12.4788 77.3137 13.1158 77.5975 13.8088C77.8827 14.5011 78.027 15.2488 78.027 15.9993C78.027 16.7499 77.8827 17.4968 77.5975 18.1899Z" fill="#00A8A5"/>
<path d="M12.9983 9.14158L11.5261 10.4674C11.2388 10.22 10.9339 9.99299 10.6123 9.79187C8.58995 8.57747 6.81005 8.67278 6.82196 8.67348C6.5844 8.66507 6.19689 8.68469 6.2081 8.68469C5.58023 8.70011 4.46044 8.93135 3.54316 9.38053C2.80457 9.73721 2.11994 10.2095 1.53692 10.7869C0.955299 11.3651 0.463373 12.0336 0.0905749 12.7672C0.0891734 12.77 0.0856699 12.7764 0.0842684 12.7792C-0.114744 13.187 0.055538 13.6796 0.463373 13.8779C0.871208 14.0762 1.36383 13.9067 1.56215 13.4988L1.56565 13.4918C1.84595 12.9158 2.21734 12.3825 2.66792 11.9235C3.11991 11.4667 3.65248 11.0911 4.22779 10.8094C4.95166 10.452 5.8304 10.2523 6.6734 10.2565C7.33 10.26 8.49955 10.3791 9.74128 11.1632C9.93398 11.2894 10.119 11.4267 10.2956 11.5739L6.11 15.3425C5.76033 15.6578 5.7323 16.1967 6.04693 16.5464C6.21511 16.7335 6.44776 16.8288 6.68041 16.8288C6.88362 16.8288 7.08754 16.7566 7.25082 16.6094L11.4329 12.8436C11.6936 13.2431 11.8989 13.6775 12.053 14.126C12.2584 14.7279 12.3628 15.3614 12.3691 15.9991C12.3628 16.6375 12.2591 17.2709 12.053 17.8729C11.847 18.4734 11.5499 19.048 11.1498 19.547C10.7546 20.0487 10.2773 20.4867 9.74057 20.8364C8.68385 21.5035 7.70841 21.7389 6.64817 21.7452C5.90398 21.7494 4.99301 21.5679 4.22709 21.1902C3.65107 20.9085 3.11921 20.5329 2.66722 20.076C2.21664 19.6178 1.84525 19.0838 1.56495 18.5078L1.55934 18.4966C1.55794 18.4938 1.55654 18.491 1.55514 18.4882C1.34982 18.0831 0.855091 17.9219 0.450059 18.1273C0.0450267 18.3326 -0.116145 18.8273 0.0891742 19.2323C0.461271 19.966 0.953896 20.6345 1.53552 21.2127C2.11784 21.7901 2.80247 22.2624 3.54176 22.6191C5.12475 23.3948 6.5781 23.3317 6.66709 23.3317C8.09521 23.3303 9.40351 22.9323 10.6109 22.2077C11.3074 21.7712 11.9311 21.2204 12.4504 20.5806C13.5029 19.3059 14.0565 17.6473 14.074 15.9991C14.0579 14.4771 13.5835 12.9473 12.6823 11.7182L14.1378 10.4078C14.4874 10.0925 14.5155 9.55362 14.2008 9.20394C13.8876 8.85497 13.348 8.82624 12.9983 9.14158Z" fill="#00A8A5"/>
<circle cx="88.4815" cy="16.4815" r="1.48148" fill="#00A8A5"/>
<path fill-rule="evenodd" clip-rule="evenodd" d="M129.151 22.1589C129.14 21.271 129.151 9.84198 129.151 9.84198C129.151 9.40485 129.485 9.04519 129.911 9.00438C129.938 9.00161 129.965 9.00023 129.992 9.00023H136.272C136.275 9.00023 136.278 9.00092 136.281 9.00092C136.819 8.98916 137.365 9.09015 137.871 9.29004C138.379 9.49408 138.845 9.79979 139.238 10.183C140.024 10.9486 140.48 12.0484 140.48 13.1481C140.48 14.2479 140.025 15.3476 139.238 16.1133C139.018 16.3291 138.773 16.5193 138.511 16.6812C137.583 17.2955 136.406 17.2954 136.024 17.2953H136.016H130.834C130.834 17.2953 130.822 21.2782 130.834 22.1589C130.834 22.1672 130.834 22.1756 130.834 22.1839C130.82 22.6365 130.45 23 129.993 23C129.595 23 129.26 22.7222 129.174 22.349C129.159 22.2904 129.151 22.227 129.151 22.1589ZM136.273 10.5634C136.952 10.5876 137.603 10.8732 138.068 11.3533C138.534 11.8319 138.803 12.4828 138.797 13.1474C138.803 13.8128 138.534 14.4644 138.067 14.9423C137.602 15.4223 136.952 15.708 136.272 15.7322H136.196C136.141 15.7308 136.085 15.7308 136.03 15.7322H130.834V10.5627H136.262L136.273 10.5634Z" fill="#00A6A3"/>
<path d="M108.459 9.00011C108.205 9.00011 107.951 9.12392 107.794 9.32658L99.8462 19.604V9.84187C99.8462 9.37707 99.4692 9.0008 99.0051 9.0008C98.5403 9.0008 98.1641 9.37776 98.1641 9.84187V22.0677C98.1641 22.5297 98.541 22.9088 99.0037 22.9088C99.0148 22.9088 99.4015 22.9295 99.6712 22.5823L107.619 12.3049V22.067C107.619 22.5318 107.996 22.9081 108.46 22.9081C108.925 22.9081 109.301 22.5311 109.301 22.067V9.84187C109.301 9.38329 108.927 9.00011 108.459 9.00011Z" fill="#00A6A3"/>
<path d="M113.655 9.84181C113.655 9.3777 114.031 9.00075 114.496 9.00075L123.95 9.00006C124.418 9.00006 124.792 9.38324 124.792 9.84181V22.067C124.792 22.5311 124.416 22.908 123.951 22.908C123.487 22.908 123.11 22.5318 123.11 22.067V10.678L115.337 10.6777V22.0666C115.337 22.5307 114.961 22.9077 114.496 22.9077C114.032 22.9077 113.655 22.5314 113.655 22.0666V9.84181Z" fill="#00A6A3"/>
</svg>
