<svg width="16" height="16" viewBox="0 0 16 16" fill="none" xmlns="http://www.w3.org/2000/svg">
<g id="message-text-square-02-outline">
<path id="Vector" fill-rule="evenodd" clip-rule="evenodd" d="M5.17269 1.3335H10.8278C11.3644 1.33349 11.8073 1.33348 12.1681 1.36296C12.5428 1.39358 12.8873 1.45929 13.2109 1.62415C13.7126 1.87981 14.1206 2.28776 14.3762 2.78952C14.5411 3.11308 14.6068 3.45755 14.6374 3.83228C14.6669 4.19307 14.6669 4.63597 14.6669 5.17261V8.82771C14.6669 9.36435 14.6669 9.80725 14.6374 10.168C14.6068 10.5428 14.5411 10.8872 14.3762 11.2108C14.1206 11.7126 13.7126 12.1205 13.2109 12.3762C12.8873 12.541 12.5428 12.6068 12.1681 12.6374C11.8073 12.6668 11.3644 12.6668 10.8278 12.6668H9.12273C8.67999 12.6668 8.55106 12.67 8.43373 12.6941C8.31605 12.7182 8.20217 12.7582 8.09519 12.8128C7.98853 12.8673 7.88589 12.9454 7.54017 13.222L5.93141 14.509C5.80896 14.607 5.68414 14.7069 5.57441 14.7794C5.46945 14.8488 5.26596 14.973 5.00131 14.9733C4.69676 14.9736 4.40867 14.8352 4.21868 14.5971C4.05358 14.3903 4.02344 14.1538 4.01206 14.0285C4.00016 13.8975 4.00019 13.7376 4.00022 13.5808L4.00023 12.6614C3.73902 12.6527 3.51502 12.6309 3.31004 12.576C2.3898 12.3294 1.671 11.6106 1.42442 10.6903C1.33303 10.3492 1.33324 9.95547 1.33353 9.42522C1.33354 9.39509 1.33356 9.36452 1.33356 9.3335L1.33356 5.17263C1.33355 4.63598 1.33354 4.19308 1.36302 3.83228C1.39364 3.45755 1.45935 3.11308 1.62421 2.78952C1.87987 2.28776 2.28782 1.87981 2.78959 1.62415C3.11314 1.45929 3.45761 1.39358 3.83234 1.36296C4.19314 1.33348 4.63605 1.33349 5.17269 1.3335ZM3.94092 2.69186C3.64864 2.71574 3.49917 2.75903 3.39491 2.81215C3.14402 2.93999 2.94005 3.14396 2.81222 3.39484C2.75909 3.49911 2.71581 3.64858 2.69193 3.94086C2.66741 4.24091 2.66689 4.62911 2.66689 5.20016V9.3335C2.66689 9.9964 2.67262 10.1971 2.71233 10.3453C2.83562 10.8054 3.19501 11.1648 3.65513 11.2881C3.80332 11.3278 4.00399 11.3335 4.66689 11.3335C5.03508 11.3335 5.33356 11.632 5.33356 12.0002V13.2797L6.70724 12.1808C6.7224 12.1687 6.73735 12.1567 6.75212 12.1449C7.0335 11.9196 7.2462 11.7493 7.48858 11.6255C7.70255 11.5161 7.93031 11.4362 8.16567 11.3879C8.4323 11.3332 8.70479 11.3333 9.06525 11.3335C9.08416 11.3335 9.10332 11.3335 9.12273 11.3335H10.8002C11.3713 11.3335 11.7595 11.333 12.0595 11.3085C12.3518 11.2846 12.5013 11.2413 12.6055 11.1882C12.8564 11.0603 13.0604 10.8564 13.1882 10.6055C13.2414 10.5012 13.2846 10.3517 13.3085 10.0595C13.333 9.75941 13.3336 9.37122 13.3336 8.80016V5.20016C13.3336 4.62911 13.333 4.24091 13.3085 3.94086C13.2846 3.64858 13.2414 3.49911 13.1882 3.39484C13.0604 3.14396 12.8564 2.93999 12.6055 2.81215C12.5013 2.75903 12.3518 2.71574 12.0595 2.69186C11.7595 2.66735 11.3713 2.66683 10.8002 2.66683H5.20023C4.62917 2.66683 4.24098 2.66735 3.94092 2.69186ZM4.00023 5.66683C4.00023 5.29864 4.2987 5.00016 4.66689 5.00016H8.00023C8.36842 5.00016 8.66689 5.29864 8.66689 5.66683C8.66689 6.03502 8.36842 6.3335 8.00023 6.3335H4.66689C4.2987 6.3335 4.00023 6.03502 4.00023 5.66683ZM4.00023 8.00016C4.00023 7.63197 4.2987 7.3335 4.66689 7.3335H10.0002C10.3684 7.3335 10.6669 7.63197 10.6669 8.00016C10.6669 8.36835 10.3684 8.66683 10.0002 8.66683H4.66689C4.2987 8.66683 4.00023 8.36835 4.00023 8.00016Z" fill="#111827"/>
</g>
</svg>
