<svg width="16" height="16" viewBox="0 0 16 16" fill="none" xmlns="http://www.w3.org/2000/svg">
<g id="plus-solid">
<path id="Vector" d="M8.66602 3.33317C8.66602 2.96498 8.36754 2.6665 7.99935 2.6665C7.63116 2.6665 7.33268 2.96498 7.33268 3.33317V7.33317H3.33268C2.96449 7.33317 2.66602 7.63165 2.66602 7.99984C2.66602 8.36803 2.96449 8.6665 3.33268 8.6665H7.33268V12.6665C7.33268 13.0347 7.63116 13.3332 7.99935 13.3332C8.36754 13.3332 8.66602 13.0347 8.66602 12.6665V8.6665H12.666C13.0342 8.6665 13.3327 8.36803 13.3327 7.99984C13.3327 7.63165 13.0342 7.33317 12.666 7.33317H8.66602V3.33317Z" />
</g>
</svg>
