<svg width="19" height="19" viewBox="0 0 19 19" fill="none" xmlns="http://www.w3.org/2000/svg">
<g id="plus-square-solid">
<path id="Vector" fill-rule="evenodd" clip-rule="evenodd" d="M13.8789 2H5.12109C4.72574 1.99999 4.38465 1.99998 4.10373 2.02293C3.80722 2.04715 3.51231 2.10064 3.22852 2.24524C2.80516 2.46095 2.46095 2.80516 2.24524 3.22852C2.10064 3.51231 2.04715 3.80722 2.02293 4.10373C1.99998 4.38465 1.99999 4.72572 2 5.12106V13.8789C1.99999 14.2743 1.99998 14.6154 2.02293 14.8963C2.04715 15.1928 2.10064 15.4877 2.24524 15.7715C2.46095 16.1948 2.80516 16.5391 3.22852 16.7548C3.51231 16.8994 3.80722 16.9528 4.10373 16.9771C4.38466 17 4.72572 17 5.12108 17H13.8789C14.2743 17 14.6153 17 14.8963 16.9771C15.1928 16.9528 15.4877 16.8994 15.7715 16.7548C16.1948 16.5391 16.5391 16.1948 16.7548 15.7715C16.8994 15.4877 16.9528 15.1928 16.9771 14.8963C17 14.6153 17 14.2743 17 13.8789V5.12108C17 4.72572 17 4.38466 16.9771 4.10373C16.9528 3.80722 16.8994 3.51231 16.7548 3.22852C16.5391 2.80516 16.1948 2.46095 15.7715 2.24524C15.4877 2.10064 15.1928 2.04715 14.8963 2.02293C14.6154 1.99998 14.2743 1.99999 13.8789 2ZM9.5 5.75C9.91421 5.75 10.25 6.08579 10.25 6.5V8.75H12.5C12.9142 8.75 13.25 9.08579 13.25 9.5C13.25 9.91421 12.9142 10.25 12.5 10.25H10.25V12.5C10.25 12.9142 9.91421 13.25 9.5 13.25C9.08579 13.25 8.75 12.9142 8.75 12.5V10.25H6.5C6.08579 10.25 5.75 9.91421 5.75 9.5C5.75 9.08579 6.08579 8.75 6.5 8.75H8.75V6.5C8.75 6.08579 9.08579 5.75 9.5 5.75Z" fill="#21C45D"/>
</g>
</svg>
