<svg width="17" height="16" viewBox="0 0 17 16" fill="none" xmlns="http://www.w3.org/2000/svg">
<g id="plus-circle-outline">
<path id="Vector" fill-rule="evenodd" clip-rule="evenodd" d="M8.49984 1.99984C5.18613 1.99984 2.49984 4.68613 2.49984 7.99984C2.49984 11.3135 5.18613 13.9998 8.49984 13.9998C11.8135 13.9998 14.4998 11.3135 14.4998 7.99984C14.4998 4.68613 11.8135 1.99984 8.49984 1.99984ZM1.1665 7.99984C1.1665 3.94975 4.44975 0.666504 8.49984 0.666504C12.5499 0.666504 15.8332 3.94975 15.8332 7.99984C15.8332 12.0499 12.5499 15.3332 8.49984 15.3332C4.44975 15.3332 1.1665 12.0499 1.1665 7.99984ZM8.49984 4.6665C8.86803 4.6665 9.1665 4.96498 9.1665 5.33317V7.33317H11.1665C11.5347 7.33317 11.8332 7.63165 11.8332 7.99984C11.8332 8.36803 11.5347 8.6665 11.1665 8.6665H9.1665V10.6665C9.1665 11.0347 8.86803 11.3332 8.49984 11.3332C8.13165 11.3332 7.83317 11.0347 7.83317 10.6665V8.6665H5.83317C5.46498 8.6665 5.1665 8.36803 5.1665 7.99984C5.1665 7.63165 5.46498 7.33317 5.83317 7.33317H7.83317V5.33317C7.83317 4.96498 8.13165 4.6665 8.49984 4.6665Z" />
</g>
</svg>
