<svg width="20" height="20" viewBox="0 0 20 20" fill="none" xmlns="http://www.w3.org/2000/svg">
<g id="plus-circle-solid">
<path id="Vector" fill-rule="evenodd" clip-rule="evenodd" d="M10.0007 0.833008C4.93804 0.833008 0.833984 4.93706 0.833984 9.99967C0.833984 15.0623 4.93804 19.1663 10.0007 19.1663C15.0633 19.1663 19.1673 15.0623 19.1673 9.99967C19.1673 4.93706 15.0633 0.833008 10.0007 0.833008ZM10.0007 5.83301C10.4609 5.83301 10.834 6.2061 10.834 6.66634V9.16634H13.334C13.7942 9.16634 14.1673 9.53944 14.1673 9.99967C14.1673 10.4599 13.7942 10.833 13.334 10.833H10.834V13.333C10.834 13.7932 10.4609 14.1663 10.0007 14.1663C9.54041 14.1663 9.16732 13.7932 9.16732 13.333V10.833H6.66732C6.20708 10.833 5.83398 10.4599 5.83398 9.99967C5.83398 9.53944 6.20708 9.16634 6.66732 9.16634H9.16732V6.66634C9.16732 6.2061 9.54041 5.83301 10.0007 5.83301Z" fill="#00A8A5"/>
</g>
</svg>
