<svg width="16" height="16" viewBox="0 0 16 16" fill="none" xmlns="http://www.w3.org/2000/svg">
<g id="refresh-ccw-02-duotone">
<path id="Vector" fill-rule="evenodd" clip-rule="evenodd" d="M3.2853 3.28661C5.8888 0.683111 10.1099 0.68311 12.7134 3.28661C13.6351 4.20831 14.2313 5.33456 14.5003 6.51981C14.5817 6.87887 14.3567 7.23599 13.9976 7.31746C13.6386 7.39893 13.2815 7.17389 13.2 6.81483C12.9851 5.8677 12.5092 4.96808 11.7706 4.22942C9.68779 2.14662 6.31091 2.14662 4.22811 4.22942C3.44253 5.015 2.92353 5.58936 2.58221 6.00065H5.33268C5.70087 6.00065 5.99935 6.29913 5.99935 6.66732C5.99935 7.03551 5.70087 7.33398 5.33268 7.33398H1.33268C0.964492 7.33398 0.666016 7.03551 0.666016 6.66732V2.66732C0.666016 2.29913 0.964492 2.00065 1.33268 2.00065C1.70087 2.00065 1.99935 2.29913 1.99935 2.66732V4.63638C2.33251 4.26405 2.75331 3.8186 3.2853 3.28661ZM2.00106 8.68384C2.36012 8.60237 2.71724 8.82741 2.79871 9.18647C3.01361 10.1336 3.48945 11.0332 4.22811 11.7719C6.31091 13.8547 9.68779 13.8547 11.7706 11.7719C12.5562 10.9863 13.0752 10.4119 13.4165 10.0007H10.666C10.2978 10.0007 9.99935 9.70218 9.99935 9.33398C9.99935 8.96579 10.2978 8.66732 10.666 8.66732H14.666C15.0342 8.66732 15.3327 8.96579 15.3327 9.33398V13.334C15.3327 13.7022 15.0342 14.0007 14.666 14.0007C14.2978 14.0007 13.9993 13.7022 13.9993 13.334V11.3649C13.6662 11.7373 13.2454 12.1827 12.7134 12.7147C10.1099 15.3182 5.8888 15.3182 3.2853 12.7147C2.3636 11.793 1.76735 10.6667 1.49843 9.4815C1.41696 9.12243 1.64199 8.76531 2.00106 8.68384Z"/>
</g>
</svg>
