<svg width="16" height="16" viewBox="0 0 16 16" fill="none" xmlns="http://www.w3.org/2000/svg">
<g id="_Search - Add-on">
<path id="Vector" fill-rule="evenodd" clip-rule="evenodd" d="M7.66634 1.33398C4.16854 1.33398 1.33301 4.16951 1.33301 7.66732C1.33301 11.1651 4.16854 14.0007 7.66634 14.0007C9.17511 14.0007 10.5606 13.4731 11.6486 12.5923L13.5283 14.4721C13.7886 14.7324 14.2107 14.7324 14.4711 14.4721C14.7314 14.2117 14.7314 13.7896 14.4711 13.5292L12.5914 11.6495C13.4721 10.5616 13.9997 9.17608 13.9997 7.66732C13.9997 4.16951 11.1641 1.33398 7.66634 1.33398ZM2.66634 7.66732C2.66634 4.90589 4.90492 2.66732 7.66634 2.66732C10.4278 2.66732 12.6663 4.90589 12.6663 7.66732C12.6663 10.4287 10.4278 12.6673 7.66634 12.6673C4.90492 12.6673 2.66634 10.4287 2.66634 7.66732Z" fill="#9CA3B0"/>
</g>
</svg>
