<svg width="16" height="16" viewBox="0 0 16 16" fill="none" xmlns="http://www.w3.org/2000/svg">
<g id="search-bold">
<path id="Vector" fill-rule="evenodd" clip-rule="evenodd" d="M7.41667 3.625C5.32259 3.625 3.625 5.32259 3.625 7.41667C3.625 9.51075 5.32259 11.2083 7.41667 11.2083C8.43128 11.2083 9.35282 10.8098 10.0333 10.1608C10.0521 10.1377 10.0723 10.1153 10.0938 10.0938C10.1153 10.0723 10.1377 10.0521 10.1608 10.0333C10.8098 9.35282 11.2083 8.43128 11.2083 7.41667C11.2083 5.32259 9.51075 3.625 7.41667 3.625ZM11.9051 10.6676C12.5676 9.75445 12.9583 8.63118 12.9583 7.41667C12.9583 4.35609 10.4772 1.875 7.41667 1.875C4.35609 1.875 1.875 4.35609 1.875 7.41667C1.875 10.4772 4.35609 12.9583 7.41667 12.9583C8.63118 12.9583 9.75445 12.5676 10.6676 11.9051L12.6313 13.8687C12.973 14.2104 13.527 14.2104 13.8687 13.8687C14.2104 13.527 14.2104 12.973 13.8687 12.6313L11.9051 10.6676Z" fill="#D0D5DC"/>
</g>
</svg>
