<svg width="24" height="25" viewBox="0 0 24 25" fill="none" xmlns="http://www.w3.org/2000/svg">
<g id="send-03-solid">
<path id="Vector" d="M22.1255 13.1644C22.3327 12.7454 22.3327 12.2538 22.1255 11.8348C21.9431 11.4658 21.623 11.2724 21.4572 11.1791C21.2786 11.0786 21.0498 10.9757 20.8216 10.873L4.03784 3.32036C3.80441 3.21527 3.57169 3.1105 3.37538 3.0425C3.19515 2.98007 2.83228 2.866 2.43052 2.97779C1.9765 3.10412 1.60824 3.43648 1.43618 3.87521C1.28391 4.26344 1.36029 4.63607 1.40398 4.82174C1.45157 5.02399 1.53201 5.26624 1.6127 5.50921L3.23718 10.4035C3.36798 10.7976 3.43338 10.9946 3.55499 11.1403C3.66239 11.269 3.80039 11.3686 3.95632 11.43C4.13291 11.4995 4.34051 11.4995 4.75572 11.4995H11.9994C12.5517 11.4995 12.9994 11.9472 12.9994 12.4995C12.9994 13.0518 12.5517 13.4995 11.9994 13.4995H4.77463C4.36047 13.4995 4.15339 13.4995 3.97712 13.5688C3.82146 13.6299 3.68363 13.7291 3.57623 13.8573C3.45461 14.0025 3.38887 14.1988 3.25739 14.5916L1.61984 19.4832C1.53828 19.7267 1.45703 19.9692 1.40883 20.1717C1.36464 20.3573 1.28698 20.7306 1.43883 21.1199C1.61031 21.5594 1.9786 21.8927 2.43304 22.0195C2.83547 22.1318 3.19917 22.0173 3.37945 21.9549C3.57615 21.8867 3.80945 21.7817 4.04365 21.6762L20.8216 14.1262C21.0498 14.0235 21.2786 13.9206 21.4572 13.8201C21.623 13.7268 21.9431 13.5333 22.1255 13.1644Z" />
</g>
</svg>
