<svg width="19" height="19" viewBox="0 0 19 19" fill="none" xmlns="http://www.w3.org/2000/svg">
<g id="share-04-alt-solid">
<g id="Vector">
<path d="M11 2.74902C11 2.33481 11.3358 1.99902 11.75 1.99902H16.25C16.6642 1.99902 17 2.33481 17 2.74902L17 7.24902C17 7.66324 16.6642 7.99902 16.25 7.99902C15.8358 7.99902 15.5 7.66324 15.5 7.24902L15.5 4.55969L10.7803 9.27935C10.4874 9.57225 10.0126 9.57225 9.71967 9.27935C9.42678 8.98646 9.42678 8.51159 9.71967 8.21869L14.4393 3.49902H11.75C11.3358 3.49902 11 3.16324 11 2.74902Z" fill="#21C45D"/>
<path d="M9.46583 6.35121C9.76285 6.0542 9.91135 5.90569 9.96699 5.73445C10.0159 5.58381 10.0159 5.42155 9.96699 5.27092C9.91135 5.09967 9.76285 4.95117 9.46583 4.65415L8.8818 4.07013L8.85479 4.04301C8.75434 3.94203 8.62785 3.81486 8.47309 3.72002C8.33888 3.63778 8.19256 3.57717 8.03951 3.54043C7.86301 3.49806 7.68366 3.49853 7.54122 3.49891L7.50295 3.49898L6.31903 3.49898C5.7153 3.49897 5.21703 3.49897 4.81113 3.53213C4.38956 3.56657 4.00203 3.6405 3.63803 3.82596C3.07354 4.11358 2.6146 4.57253 2.32698 5.13701C2.14151 5.50101 2.06759 5.88854 2.03315 6.31011C1.99998 6.71601 1.99999 7.21427 2 7.81799V12.68C1.99999 13.2837 1.99998 13.782 2.03315 14.1879C2.06759 14.6094 2.14151 14.997 2.32698 15.361C2.6146 15.9254 3.07354 16.3844 3.63803 16.672C4.00203 16.8575 4.38956 16.9314 4.81113 16.9658C5.21702 16.999 5.71529 16.999 6.31901 16.999H11.181C11.7847 16.999 12.283 16.999 12.6889 16.9658C13.1104 16.9314 13.498 16.8575 13.862 16.672C14.4265 16.3844 14.8854 15.9254 15.173 15.361C15.3585 14.997 15.4324 14.6094 15.4669 14.1879C15.5 13.782 15.5 13.2837 15.5 12.68V11.496L15.5001 11.4578C15.5005 11.3153 15.5009 11.136 15.4586 10.9595C15.4218 10.8064 15.3612 10.6601 15.279 10.5259C15.1841 10.3711 15.057 10.2446 14.956 10.1442L14.9289 10.1172L14.3449 9.53319C14.0479 9.23618 13.8994 9.08767 13.7281 9.03203C13.5775 8.98309 13.4152 8.98309 13.2646 9.03203C13.0933 9.08767 12.9448 9.23618 12.6478 9.53319L11.841 10.34C10.9623 11.2187 9.53769 11.2187 8.65901 10.34C7.78033 9.46133 7.78033 8.03671 8.65901 7.15803L9.46583 6.35121Z" fill="#21C45D"/>
</g>
</g>
</svg>
