<svg width="16" height="16" viewBox="0 0 16 16" fill="none" xmlns="http://www.w3.org/2000/svg">
<g id="sort-lines-outline">
<path id="Sourse (Stroke)" fill-rule="evenodd" clip-rule="evenodd" d="M1.33325 4.00065C1.33325 3.63246 1.63173 3.33398 1.99992 3.33398H13.9999C14.3681 3.33398 14.6666 3.63246 14.6666 4.00065C14.6666 4.36884 14.3681 4.66732 13.9999 4.66732H1.99992C1.63173 4.66732 1.33325 4.36884 1.33325 4.00065Z" fill="#111827"/>
<path id="Sourse (Stroke)_2" fill-rule="evenodd" clip-rule="evenodd" d="M1.33325 8.00065C1.33325 7.63246 1.63173 7.33398 1.99992 7.33398H9.99992C10.3681 7.33398 10.6666 7.63246 10.6666 8.00065C10.6666 8.36884 10.3681 8.66732 9.99992 8.66732H1.99992C1.63173 8.66732 1.33325 8.36884 1.33325 8.00065Z" fill="#111827"/>
<path id="Sourse (Stroke)_3" fill-rule="evenodd" clip-rule="evenodd" d="M1.33325 12.0007C1.33325 11.6325 1.63173 11.334 1.99992 11.334H5.99992C6.36811 11.334 6.66658 11.6325 6.66658 12.0007C6.66658 12.3688 6.36811 12.6673 5.99992 12.6673H1.99992C1.63173 12.6673 1.33325 12.3688 1.33325 12.0007Z" fill="#111827"/>
</g>
</svg>
