<svg width="14" height="14" viewBox="0 0 14 14" fill="none" xmlns="http://www.w3.org/2000/svg">
<g id="target-03-outline" clip-path="url(#clip0_9323_10892)">
<path id="Vector" fill-rule="evenodd" clip-rule="evenodd" d="M7.00065 0.583008C7.32282 0.583008 7.58398 0.844175 7.58398 1.16634V1.78172C10.0174 2.05072 11.9496 3.9829 12.2186 6.41634H12.834C13.1562 6.41634 13.4173 6.67751 13.4173 6.99967C13.4173 7.32184 13.1562 7.58301 12.834 7.58301H12.2186C11.9496 10.0165 10.0174 11.9486 7.58398 12.2176V12.833C7.58398 13.1552 7.32282 13.4163 7.00065 13.4163C6.67848 13.4163 6.41732 13.1552 6.41732 12.833V12.2176C3.98388 11.9486 2.0517 10.0165 1.78269 7.58301H1.16732C0.845152 7.58301 0.583984 7.32184 0.583984 6.99967C0.583984 6.67751 0.845152 6.41634 1.16732 6.41634H1.78269C2.0517 3.9829 3.98388 2.05072 6.41732 1.78172V1.16634C6.41732 0.844175 6.67848 0.583008 7.00065 0.583008ZM6.41732 2.95769C4.629 3.21349 3.21447 4.62802 2.95867 6.41634H3.50065C3.82282 6.41634 4.08398 6.67751 4.08398 6.99967C4.08398 7.32184 3.82282 7.58301 3.50065 7.58301H2.95867C3.21447 9.37133 4.629 10.7859 6.41732 11.0417V10.4997C6.41732 10.1775 6.67848 9.91634 7.00065 9.91634C7.32282 9.91634 7.58398 10.1775 7.58398 10.4997V11.0417C9.3723 10.7859 10.7868 9.37133 11.0426 7.58301H10.5007C10.1785 7.58301 9.91732 7.32184 9.91732 6.99967C9.91732 6.67751 10.1785 6.41634 10.5007 6.41634H11.0426C10.7868 4.62802 9.3723 3.21349 7.58398 2.95769V3.49967C7.58398 3.82184 7.32282 4.08301 7.00065 4.08301C6.67848 4.08301 6.41732 3.82184 6.41732 3.49967V2.95769ZM7.00065 5.83301C6.35632 5.83301 5.83398 6.35534 5.83398 6.99967C5.83398 7.64401 6.35632 8.16634 7.00065 8.16634C7.64498 8.16634 8.16732 7.64401 8.16732 6.99967C8.16732 6.35534 7.64498 5.83301 7.00065 5.83301ZM4.66732 6.99967C4.66732 5.71101 5.71199 4.66634 7.00065 4.66634C8.28932 4.66634 9.33399 5.71101 9.33399 6.99967C9.33399 8.28834 8.28932 9.33301 7.00065 9.33301C5.71199 9.33301 4.66732 8.28834 4.66732 6.99967Z" fill="#6B7280"/>
</g>
<defs>
<clipPath id="clip0_9323_10892">
<rect width="14" height="14" fill="white"/>
</clipPath>
</defs>
</svg>
