<svg width="20" height="20" viewBox="0 0 20 20" fill="none" xmlns="http://www.w3.org/2000/svg">
<g id="trash-03-outline">
<path id="Vector" fill-rule="evenodd" clip-rule="evenodd" d="M6.66602 2.49984C6.66602 2.0396 7.03911 1.6665 7.49935 1.6665H12.4993C12.9596 1.6665 13.3327 2.0396 13.3327 2.49984C13.3327 2.96007 12.9596 3.33317 12.4993 3.33317H7.49935C7.03911 3.33317 6.66602 2.96007 6.66602 2.49984ZM4.15955 4.1665H2.49935C2.03911 4.1665 1.66602 4.5396 1.66602 4.99984C1.66602 5.46007 2.03911 5.83317 2.49935 5.83317H3.38639L3.92113 13.8544C3.96309 14.4839 3.99782 15.0049 4.06008 15.4289C4.1249 15.8704 4.22772 16.2738 4.44193 16.6498C4.77537 17.2352 5.27834 17.7057 5.88454 17.9995C6.27395 18.1882 6.68335 18.264 7.12818 18.2993C7.55542 18.3332 8.07754 18.3332 8.70847 18.3332H11.2902C11.9212 18.3332 12.4433 18.3332 12.8705 18.2993C13.3154 18.264 13.7247 18.1882 14.1142 17.9995C14.7204 17.7057 15.2233 17.2352 15.5568 16.6498C15.771 16.2738 15.8738 15.8704 15.9386 15.4289C16.0009 15.0048 16.0356 14.4838 16.0776 13.8543L16.6123 5.83317H17.4993C17.9596 5.83317 18.3327 5.46007 18.3327 4.99984C18.3327 4.5396 17.9596 4.1665 17.4993 4.1665H15.8391C15.8343 4.16646 15.8294 4.16646 15.8246 4.1665H4.17413C4.16928 4.16646 4.16442 4.16646 4.15955 4.1665ZM14.9419 5.83317H5.05675L5.58191 13.7105C5.62663 14.3813 5.65755 14.836 5.70906 15.1868C5.7591 15.5276 5.82022 15.7022 5.89008 15.8248C6.0568 16.1175 6.30829 16.3528 6.61139 16.4997C6.73839 16.5612 6.91673 16.6106 7.26006 16.6378C7.61354 16.6659 8.06923 16.6665 8.74156 16.6665H11.2571C11.9295 16.6665 12.3852 16.6659 12.7386 16.6378C13.082 16.6106 13.2603 16.5612 13.3873 16.4997C13.6904 16.3528 13.9419 16.1175 14.1086 15.8248C14.1785 15.7022 14.2396 15.5276 14.2896 15.1868C14.3411 14.836 14.3721 14.3813 14.4168 13.7105L14.9419 5.83317ZM8.33268 7.9165C8.79292 7.9165 9.16602 8.2896 9.16602 8.74984V12.9165C9.16602 13.3767 8.79292 13.7498 8.33268 13.7498C7.87245 13.7498 7.49935 13.3767 7.49935 12.9165V8.74984C7.49935 8.2896 7.87245 7.9165 8.33268 7.9165ZM11.666 7.9165C12.1263 7.9165 12.4993 8.2896 12.4993 8.74984V12.9165C12.4993 13.3767 12.1263 13.7498 11.666 13.7498C11.2058 13.7498 10.8327 13.3767 10.8327 12.9165V8.74984C10.8327 8.2896 11.2058 7.9165 11.666 7.9165Z" fill="#6B7280"/>
</g>
</svg>
