<svg width="20" height="20" viewBox="0 0 20 20" fill="none" xmlns="http://www.w3.org/2000/svg">
<g id="users-02-outline">
<path id="Vector" fill-rule="evenodd" clip-rule="evenodd" d="M7.9154 3.33366C6.30457 3.33366 4.99873 4.63949 4.99873 6.25033C4.99873 7.86116 6.30457 9.16699 7.9154 9.16699C9.52623 9.16699 10.8321 7.86116 10.8321 6.25033C10.8321 4.63949 9.52623 3.33366 7.9154 3.33366ZM3.33207 6.25033C3.33207 3.71902 5.3841 1.66699 7.9154 1.66699C10.4467 1.66699 12.4987 3.71902 12.4987 6.25033C12.4987 8.78163 10.4467 10.8337 7.9154 10.8337C5.3841 10.8337 3.33207 8.78163 3.33207 6.25033ZM12.5858 2.51926C12.7906 2.10712 13.2908 1.93904 13.7029 2.14386C15.2101 2.89285 16.2487 4.44952 16.2487 6.25033C16.2487 8.05113 15.2101 9.6078 13.7029 10.3568C13.2908 10.5616 12.7906 10.3935 12.5858 9.98139C12.381 9.56924 12.5491 9.06908 12.9612 8.86426C13.9236 8.38599 14.5821 7.39429 14.5821 6.25033C14.5821 5.10636 13.9236 4.11466 12.9612 3.63639C12.5491 3.43157 12.381 2.93141 12.5858 2.51926ZM7.9154 14.167C5.79976 14.167 3.82167 15.2714 2.32067 17.1818C2.03633 17.5437 1.51245 17.6066 1.15056 17.3223C0.788661 17.0379 0.725788 16.514 1.01013 16.1521C2.75328 13.9335 5.17967 12.5003 7.9154 12.5003C10.6511 12.5003 13.0775 13.9335 14.8207 16.1521C15.105 16.514 15.0421 17.0379 14.6802 17.3223C14.3183 17.6066 13.7945 17.5437 13.5101 17.1818C12.0091 15.2714 10.031 14.167 7.9154 14.167ZM14.2395 13.6288C14.4293 13.2095 14.923 13.0234 15.3423 13.2131C16.7406 13.8458 17.9771 14.8664 18.9873 16.1521C19.2717 16.514 19.2088 17.0379 18.8469 17.3223C18.485 17.6066 17.9611 17.5437 17.6768 17.1818C16.8079 16.0759 15.776 15.2387 14.6552 14.7315C14.2359 14.5418 14.0498 14.0481 14.2395 13.6288Z" />
</g>
</svg>
