<svg width="20" height="20" viewBox="0 0 20 20" fill="none" xmlns="http://www.w3.org/2000/svg">
<g id="users-03-outline">
<path id="Vector" d="M15.3289 12.4531C16.6759 13.1298 17.8326 14.2111 18.6753 15.5687C18.9252 15.971 18.9962 16.1126 19.0425 16.4117C19.1538 17.1295 18.7157 17.917 18.0472 18.201C17.7628 18.3218 17.609 18.3337 17.0381 18.3337C16.5779 18.3337 16.2048 17.9606 16.2048 17.5003C16.2048 17.0401 16.5779 16.667 17.0381 16.667L17.3797 16.6645C17.3798 16.6601 17.3814 16.6573 17.3834 16.6555L17.2594 16.4479C16.5754 15.3459 15.647 14.4781 14.5807 13.9424C14.1694 13.7358 14.0035 13.2349 14.2101 12.8237C14.4167 12.4124 14.9176 12.2465 15.3289 12.4531ZM7.87145 11.667C10.4585 11.667 12.8325 13.0434 14.3491 15.3204C14.7192 15.8764 14.8143 16.0446 14.8807 16.3783C14.9062 16.5064 14.915 16.6356 14.9071 16.767C14.8794 17.2274 14.6167 17.7181 14.2487 17.9964C13.8409 18.3047 13.5919 18.3337 12.6028 18.3337H3.14008C2.15093 18.3337 1.90193 18.3047 1.49415 17.9963C1.12619 17.718 0.863456 17.2274 0.835803 16.7668C0.827926 16.6356 0.836689 16.5065 0.862168 16.3784C0.917496 16.1002 0.992906 15.9367 1.23064 15.5684L1.3939 15.3203C2.9104 13.0434 5.28437 11.667 7.87145 11.667ZM7.87145 13.3337C5.86432 13.3337 3.99943 14.4149 2.78109 16.2441C2.69127 16.379 2.62863 16.4754 2.58547 16.5442L2.51551 16.6612L2.82825 16.6654L12.6028 16.667L13.2272 16.6612C13.2074 16.6249 13.175 16.5711 13.1214 16.4875L12.9619 16.2442C11.7435 14.4149 9.87857 13.3337 7.87145 13.3337ZM7.87145 1.66699C10.4028 1.66699 12.4548 3.71902 12.4548 6.25033C12.4548 8.78163 10.4028 10.8337 7.87145 10.8337C5.34014 10.8337 3.28812 8.78163 3.28812 6.25033C3.28812 3.71902 5.34014 1.66699 7.87145 1.66699ZM13.659 2.14387C15.2054 2.91238 16.2048 4.4921 16.2048 6.25033C16.2048 8.00855 15.2054 9.58827 13.659 10.3568C13.2469 10.5617 12.7467 10.3936 12.5419 9.98146C12.337 9.56932 12.5051 9.06916 12.9172 8.86433C13.9023 8.37475 14.5381 7.36973 14.5381 6.25033C14.5381 5.13094 13.9023 4.12593 12.9173 3.63639C12.5051 3.43157 12.337 2.93142 12.5419 2.51927C12.7467 2.10712 13.2468 1.93905 13.659 2.14387ZM7.87145 3.33366C6.26062 3.33366 4.95478 4.6395 4.95478 6.25033C4.95478 7.86116 6.26062 9.16699 7.87145 9.16699C9.48229 9.16699 10.7881 7.86116 10.7881 6.25033C10.7881 4.63949 9.48229 3.33366 7.87145 3.33366Z" />
</g>
</svg>
